<?xml version="1.0" encoding="UTF-8" standalone="no"?>
<!DOCTYPE svg  PUBLIC '-//W3C//DTD SVG 1.1//EN'  'http://www.w3.org/Graphics/SVG/1.1/DTD/svg11.dtd'>
<svg xmlns="http://www.w3.org/2000/svg">
<defs>
<font id="Seravek-Regular" horiz-adv-x="740">
<font-face underline-position="-177" font-weight="400" descent="-200" panose-1="2 11 5 3 4 0 0 2 0 4" units-per-em="1000" unicode-range="U+0020-25CA" bbox="-95 -250 1254 843" x-height="480" underline-thickness="49" font-family="Seravek" ascent="800" cap-height="666"/>
<missing-glyph horiz-adv-x="1000"/>
<glyph glyph-name=".notdef" horiz-adv-x="1000"/>
<glyph glyph-name=".null" horiz-adv-x="0"/>
<glyph glyph-name="nonmarkingreturn" horiz-adv-x="1000"/>
<glyph glyph-name="space" horiz-adv-x="215" unicode=" "/>
<glyph glyph-name="exclam" horiz-adv-x="296" unicode="!" d="M206 51q0 -24 -16 -41t-42 -17t-42 17t-16 41t16 41t42 17t42 -17t16 -41zM175 179h-52l-22 281v206h94v-206z"/>
<glyph glyph-name="quotedbl" horiz-adv-x="417" unicode='&quot;' d="M262 429l-12 237h92l-12 -237h-68zM87 429l-12 237h92l-12 -237h-68z"/>
<glyph glyph-name="numbersign" horiz-adv-x="672" unicode="#" d="M232 239h197l20 196h-196zM422 177h-196l-19 -177h-73l19 177h-108v62h114l21 196h-115v62h122l18 169h73l-18 -169h196l18 169h73l-18 -169h103v-62h-110l-20 -196h107v-62h-114l-19 -177h-73z"/>
<glyph glyph-name="dollar" horiz-adv-x="495" unicode="$" d="M201 -120v121q-38 4 -75 14.5t-66 24.5l17 70q38 -17 75 -27.5t78 -10.5q59 0 90.5 26.5t31.5 75.5q0 24 -10 44t-27.5 36.5t-40.5 30.5t-48 27q-29 15 -57 33.5t-50 41.5t-35 51.5t-13 63.5q0 69 41 108.5t102 50.5v125h81v-122q29 -2 62.5 -9.5t56.5 -21.5l-17 -70 q-67 31 -133 31q-51 0 -78 -22.5t-27 -66.5q0 -22 8.5 -38.5t23.5 -30t34.5 -26t41.5 -25.5q21 -13 51 -30.5t57 -42t46 -57.5t19 -77q0 -69 -43 -113.5t-115 -59.5v-125h-81z"/>
<glyph glyph-name="percent" horiz-adv-x="911" unicode="%" d="M597 182q0 -26 5 -49.5t16 -41.5t28.5 -28.5t41.5 -10.5t41.5 10.5t28.5 28.5t16 41.5t5 49.5q0 25 -5.5 49t-16.5 42t-28 29t-41 11t-41 -11t-28 -29t-16.5 -42t-5.5 -49zM856 182q0 -38 -11 -73t-32 -62t-52.5 -43t-72.5 -16t-72.5 16t-52.5 43t-32 62t-11 73 q0 37 11 72.5t32 62.5t52.5 43.5t72.5 16.5t72.5 -16.5t52.5 -43.5t32 -62.5t11 -72.5zM132 483q0 -26 5 -49.5t16 -41.5t28.5 -28.5t41.5 -10.5t41.5 10.5t28.5 28.5t16 41.5t5 49.5q0 25 -5.5 49t-16.5 42t-28 29t-41 11t-41 -11t-28 -29t-16.5 -42t-5.5 -49zM391 483 q0 -38 -11 -73t-32 -62t-52.5 -43t-72.5 -16t-72.5 16t-52.5 43t-32 62t-11 73q0 37 11 72.5t32 62.5t52.5 43.5t72.5 16.5t72.5 -16.5t52.5 -43.5t32 -62.5t11 -72.5zM580 678l66 -31l-315 -659l-65 32z"/>
<glyph glyph-name="ampersand" d="M164 510q0 -43 24 -76.5t56 -60.5q20 15 41 31.5t37.5 36.5t27 43.5t10.5 50.5q0 38 -27 59t-67 21q-48 0 -75 -27.5t-27 -77.5zM249 53q57 0 103.5 24.5t84.5 65.5q-51 32 -104.5 70t-93.5 73q-18 -14 -36 -29t-32.5 -32.5t-23.5 -37t-9 -43.5q0 -43 28.5 -67t82.5 -24z M653 359q-12 -26 -25 -53.5t-27.5 -54t-29.5 -50t-30 -41.5q42 -27 86.5 -53.5t87.5 -52.5l-40 -66q-42 24 -88 53.5t-92 61.5q-48 -51 -108.5 -83t-136.5 -32q-91 0 -143 42t-52 110q0 34 12.5 62.5t32 51.5t42.5 41.5t45 33.5q-41 36 -70.5 81.5t-29.5 99.5 q0 77 48.5 122.5t134.5 45.5q35 0 65.5 -10t53 -28.5t35 -44t12.5 -56.5q0 -35 -13.5 -65t-34 -55.5t-45.5 -46.5t-48 -38q42 -34 85.5 -66t102.5 -69q32 42 55.5 88.5t49.5 103.5z" unicode="&amp;"/>
<glyph glyph-name="quotesingle" horiz-adv-x="242" unicode="&apos;" d="M87 429l-12 237h92l-12 -237h-68z"/>
<glyph glyph-name="parenleft" horiz-adv-x="337" unicode="(" d="M165 280q0 -52 6 -103t20 -104t36.5 -108.5t54.5 -115.5l-66 -35q-68 110 -104.5 224t-36.5 242t36.5 242t104.5 224l66 -35q-32 -60 -54.5 -115.5t-36.5 -108.5t-20 -104t-6 -103z"/>
<glyph glyph-name="parenright" horiz-adv-x="337" unicode=")" d="M172 280q0 52 -6 103t-20 104t-36.5 108.5t-54.5 115.5l66 35q68 -110 104.5 -224t36.5 -242t-36.5 -242t-104.5 -224l-66 35q32 60 54.5 115.5t36.5 108.5t20 104t6 103z"/>
<glyph glyph-name="asterisk" horiz-adv-x="408" unicode="*" d="M226 509v-121h-44v121l-105 -60l-22 38l105 60l-105 60l22 38l105 -61v122h44v-122l105 61l22 -38l-105 -60l105 -60l-22 -38z"/>
<glyph glyph-name="plus" horiz-adv-x="606" unicode="+" d="M342 289v-204h-78v204h-192v68h192v204h78v-204h192v-68h-192z"/>
<glyph glyph-name="comma" horiz-adv-x="260" unicode="," d="M40 -129q29 57 45 114.5t18 121.5l87 -9q-3 -66 -26.5 -133.5t-64.5 -125.5z"/>
<glyph glyph-name="hyphen" horiz-adv-x="355" unicode="-" d="M55 220v75h245v-75h-245z"/>
<glyph glyph-name="period" horiz-adv-x="256" unicode="." d="M186 51q0 -24 -16 -41t-42 -17t-42 17t-16 41t16 41t42 17t42 -17t16 -41z"/>
<glyph glyph-name="slash" horiz-adv-x="418" unicode="/" d="M298 692l75 -26l-252 -766l-76 24z"/>
<glyph glyph-name="zero" horiz-adv-x="592" unicode="0" d="M296 62q42 0 71 20t47 56t26.5 86t8.5 109t-8.5 109t-26.5 86t-47 56t-71 20t-71 -20t-47 -56t-26.5 -86t-8.5 -109t8.5 -109t26.5 -86t47 -56t71 -20zM540 333q0 -74 -14.5 -137t-44.5 -109t-76 -72.5t-109 -26.5t-109 26.5t-76 72.5t-44.5 109t-14.5 137 q0 73 14.5 136.5t44.5 109.5t76 72.5t109 26.5t109 -26.5t76 -72.5t44.5 -109.5t14.5 -136.5z"/>
<glyph glyph-name="one" horiz-adv-x="351" unicode="1" d="M175 0v570l-129 -53l-26 71l187 78h59v-666h-91z"/>
<glyph glyph-name="two" horiz-adv-x="475" unicode="2" d="M62 639q32 20 71.5 29.5t81.5 9.5q46 0 84 -14t65 -40t41.5 -62.5t14.5 -81.5q0 -42 -10.5 -78t-30 -69.5t-47.5 -66.5t-62 -68q-19 -20 -35 -35.5t-31 -30t-30.5 -28.5t-33.5 -30h290v-74h-393l-11 55q57 57 103 105.5t88 94.5q51 56 81.5 108t30.5 113q0 60 -33 93.5 t-90 33.5q-32 0 -63 -8.5t-60 -24.5z"/>
<glyph glyph-name="three" horiz-adv-x="486" unicode="3" d="M428 176q0 -43 -16.5 -78t-46 -59.5t-70 -37.5t-88.5 -13q-20 0 -41.5 2.5t-42.5 7t-41 10.5t-36 13l18 73q33 -15 67.5 -23.5t69.5 -8.5q68 0 102 31t34 79q0 36 -15 61t-40.5 40.5t-59 23t-70.5 7.5h-39v74h36q36 0 68 9t55.5 25.5t37.5 40.5t14 54q0 48 -30.5 72.5 t-81.5 24.5q-32 0 -61 -6.5t-64 -22.5l-18 69q35 19 73 26.5t81 7.5q42 0 77 -11.5t60.5 -32.5t40 -50t14.5 -65q0 -61 -36 -104t-99 -69q31 -8 58 -23.5t47 -37t31.5 -49t11.5 -60.5z"/>
<glyph glyph-name="four" horiz-adv-x="536" unicode="4" d="M324 566l-200 -301h200v301zM411 192v-192h-87v192h-277l-12 70l276 404h100v-401h90v-73h-90z"/>
<glyph glyph-name="five" horiz-adv-x="509" unicode="5" d="M459 188q0 -45 -18 -82t-50 -63t-75.5 -40.5t-94.5 -14.5q-41 0 -86.5 8t-74.5 20l15 72q32 -13 69 -20t75 -7q33 0 60.5 8t47.5 23.5t31 37.5t11 51q0 33 -14 58t-38.5 41t-59 24t-74.5 8h-98v354h345v-74h-254v-207h32q48 0 93.5 -12t80.5 -36t56 -61t21 -88z"/>
<glyph glyph-name="six" horiz-adv-x="547" unicode="6" d="M411 197q0 58 -32.5 88.5t-90.5 30.5q-44 0 -82.5 -20.5t-62.5 -48.5v-14q0 -28 7 -58t24.5 -56t44 -42.5t62.5 -16.5q62 0 96 39.5t34 97.5zM414 614q-51 -26 -95.5 -54t-79.5 -63t-59.5 -78.5t-35.5 -100.5q29 35 68 53.5t91 18.5q44 0 80 -14.5t62 -40.5t40 -61.5 t14 -77.5q0 -47 -17.5 -85.5t-47 -65.5t-69 -42t-83.5 -15q-57 0 -100 23.5t-71 60.5t-42 83t-14 92q0 77 23.5 142t66 118t102.5 95.5t133 75.5z"/>
<glyph glyph-name="seven" horiz-adv-x="454" unicode="7" d="M418 593l-264 -593h-91l269 592h-300v74h373z"/>
<glyph glyph-name="eight" horiz-adv-x="542" unicode="8" d="M164 524q0 -44 27 -72t80 -59q46 31 76.5 61t30.5 70q0 37 -28 61t-79 24t-79 -24.5t-28 -60.5zM395 159q0 25 -8.5 44.5t-24 36.5t-38.5 33t-53 34q-26 -18 -48.5 -34t-39.5 -33.5t-26.5 -37.5t-9.5 -46q0 -47 33.5 -73t90.5 -26q55 0 89.5 28.5t34.5 73.5zM271 678 q39 0 74.5 -10t61.5 -29.5t41.5 -48t15.5 -64.5q0 -29 -11 -53.5t-29 -45.5t-41.5 -40t-48.5 -35q31 -18 58.5 -38t47 -43t31 -50.5t11.5 -60.5q0 -38 -17 -70t-46.5 -54.5t-67.5 -35t-80 -12.5q-45 0 -83.5 11.5t-67 33t-44.5 53t-16 71.5q0 33 13.5 61.5t34.5 52t47.5 43 t52.5 34.5q-27 16 -50.5 34t-41.5 40t-28 47t-10 54q0 36 15 64.5t41.5 49t61.5 31t75 10.5z"/>
<glyph glyph-name="nine" horiz-adv-x="547" unicode="9" d="M134 469q0 -58 32.5 -88.5t90.5 -30.5q44 0 81.5 20t63.5 49v8q0 30 -7 62t-24.5 58t-44 42.5t-62.5 16.5q-64 0 -97 -39.5t-33 -97.5zM131 52q51 25 95 53.5t79.5 63.5t60 78.5t35.5 100.5q-27 -33 -67 -52.5t-92 -19.5q-44 0 -80 14.5t-62 40.5t-40 61.5t-14 77.5 q0 47 16.5 85.5t46 65.5t69 42t85.5 15q57 0 100 -23.5t71 -60.5t42 -83t14 -92q0 -77 -23.5 -142t-66.5 -118t-102.5 -95.5t-132.5 -75.5z"/>
<glyph glyph-name="colon" horiz-adv-x="256" unicode=":" d="M186 364q0 -24 -16 -41t-42 -17t-42 17t-16 41t16 41t42 17t42 -17t16 -41zM186 51q0 -24 -16 -41t-42 -17t-42 17t-16 41t16 41t42 17t42 -17t16 -41z"/>
<glyph glyph-name="semicolon" horiz-adv-x="254" unicode=";" d="M28 -129q29 57 45 114.5t18 121.5l87 -9q-3 -66 -26.5 -133.5t-64.5 -125.5zM194 364q0 -24 -16 -41t-42 -17t-42 17t-16 41t16 41t42 17t42 -17t16 -41z"/>
<glyph glyph-name="less" horiz-adv-x="587" unicode="&lt;" d="M496 571l31 -64l-385 -184l385 -184l-31 -64l-431 215v66z"/>
<glyph glyph-name="equal" horiz-adv-x="616" unicode="=" d="M82 252h452v-68h-452v68zM82 463h452v-68h-452v68z"/>
<glyph glyph-name="greater" horiz-adv-x="587" unicode="&gt;" d="M522 356v-66l-431 -215l-31 64l385 184l-385 184l31 64z"/>
<glyph glyph-name="question" horiz-adv-x="457" unicode="?" d="M222 51q0 -24 -16 -41t-42 -17t-42 17t-16 41t16 41t42 17t42 -17t16 -41zM402 503q0 -50 -21.5 -90.5t-56.5 -76t-80 -67.5t-92 -65l-44 60q42 30 79 57.5t64.5 55.5t44 58t16.5 65q0 50 -31 76.5t-79 26.5q-36 0 -68 -9.5t-60 -26.5l-24 70q38 23 78 32t83 9 q39 0 73.5 -11t60.5 -33t41.5 -55t15.5 -76z"/>
<glyph glyph-name="at" horiz-adv-x="813" unicode="@" d="M441 343q-27 0 -47 -13t-33.5 -34t-20 -47t-6.5 -52q0 -23 7.5 -39t25.5 -16q13 0 26 8.5t25.5 23t24 32.5t20.5 37l17 95q-18 5 -39 5zM445 398q29 0 58 -7.5t51 -19.5l-26 -149q-3 -15 -3 -28q0 -29 13 -46t42 -17q24 0 46 13.5t38 37.5t25.5 56t9.5 69 q0 51 -19.5 92.5t-54 70t-82 44t-104.5 15.5q-68 0 -125.5 -22.5t-99.5 -64t-66 -100.5t-24 -132q0 -130 75.5 -202.5t213.5 -72.5q69 0 127 15.5t118 43.5l18 -51q-28 -15 -61 -26.5t-68 -19.5t-70 -12t-67 -4q-84 0 -149 24.5t-109.5 68t-68 103.5t-23.5 131 q0 84 29 153.5t80 118.5t121 76t152 27q73 0 132.5 -21.5t100.5 -58.5t63.5 -87t22.5 -107q0 -48 -14 -89.5t-38.5 -72t-59 -48.5t-75.5 -18q-51 0 -78.5 28t-29.5 66q-21 -39 -52 -63.5t-66 -24.5q-22 0 -37.5 9t-25 24t-14 34.5t-4.5 40.5q0 39 11 75.5t33.5 65t56 45.5 t77.5 17z"/>
<glyph glyph-name="A" horiz-adv-x="676" unicode="A" d="M210 235h256l-128 347zM648 0h-94l-61 161h-311l-60 -161h-94l265 666h90z"/>
<glyph glyph-name="B" horiz-adv-x="569" unicode="B" d="M253 379q34 0 63.5 8t51 23t33.5 36t12 48q0 50 -37.5 75t-97.5 25h-110v-215h85zM438 189q0 30 -14 52.5t-38 37t-56 21.5t-68 7h-94v-235h106q75 0 119.5 29.5t44.5 87.5zM526 186q0 -41 -18.5 -75.5t-52.5 -59t-81.5 -38t-105.5 -13.5h-188v666h206q48 0 88 -11.5 t68.5 -33t44 -51.5t15.5 -66q0 -58 -38.5 -97.5t-98.5 -59.5q74 -14 117.5 -54.5t43.5 -106.5z"/>
<glyph glyph-name="C" horiz-adv-x="610" unicode="C" d="M389 678q45 0 94 -8.5t82 -22.5l-15 -71q-34 12 -73 19.5t-77 7.5q-125 0 -195 -70t-70 -200t70 -200t195 -70q38 0 77 7.5t73 19.5l15 -71q-33 -14 -82 -22.5t-94 -8.5q-82 0 -146.5 26t-108.5 72t-67.5 109t-23.5 138t23.5 138t67.5 109t108.5 72t146.5 26z"/>
<glyph glyph-name="D" horiz-adv-x="683" unicode="D" d="M265 74q60 0 112.5 17.5t91.5 50.5t61.5 81t22.5 110q0 61 -22.5 109.5t-61.5 81.5t-91.5 50.5t-112.5 17.5h-93v-518h93zM80 666h185q86 0 156 -25t120 -69.5t77 -105.5t27 -133t-27 -133t-77 -105.5t-120 -69.5t-156 -25h-185v666z"/>
<glyph glyph-name="E" horiz-adv-x="510" unicode="E" d="M80 666h371v-75h-279v-213h267v-75h-267v-228h282v-75h-374v666z"/>
<glyph glyph-name="F" horiz-adv-x="495" unicode="F" d="M80 0v666h375v-75h-283v-228h271v-75h-271v-288h-92z"/>
<glyph glyph-name="G" horiz-adv-x="677" unicode="G" d="M400 678q56 0 107 -9.5t92 -29.5l-15 -73q-43 17 -89.5 27t-93.5 10q-124 0 -195 -72.5t-71 -205.5q0 -128 67 -196.5t201 -68.5q32 0 64.5 4.5t55.5 11.5v217h84v-268q-38 -16 -97 -26.5t-118 -10.5q-82 0 -147 24.5t-110 69t-68.5 106.5t-23.5 137q0 78 24.5 143 t70.5 111.5t112 72.5t150 26z"/>
<glyph glyph-name="H" horiz-adv-x="685" unicode="H" d="M513 0v299h-341v-299h-92v666h92v-289h341v289h92v-666h-92z"/>
<glyph glyph-name="I" horiz-adv-x="262" unicode="I" d="M177 0h-92v666h92v-666z"/>
<glyph glyph-name="J" horiz-adv-x="250" unicode="J" d="M175 152q-1 -43 -5.5 -81.5t-18 -76t-37 -75t-61.5 -77.5l-64 51q52 59 73 116.5t21 127.5v529h92v-514z"/>
<glyph glyph-name="K" horiz-adv-x="585" unicode="K" d="M80 0v666h92v-323l278 323h111l-287 -330l306 -336h-116l-292 330v-330h-92z"/>
<glyph glyph-name="L" horiz-adv-x="472" unicode="L" d="M172 666v-591h278v-75h-370v666h92z"/>
<glyph glyph-name="M" horiz-adv-x="846" unicode="M" d="M651 666h83l48 -666h-88l-32 519l-192 -399h-94l-192 399l-32 -519h-88l48 666h83l228 -471z"/>
<glyph glyph-name="N" horiz-adv-x="709" unicode="N" d="M541 0l-373 523v-523h-88v666h88l373 -523v523h88v-666h-88z"/>
<glyph glyph-name="O" d="M370 62q57 0 101 21t73 58t44 86.5t15 105.5t-15 105.5t-44 86t-73 58t-101 21.5t-101 -21.5t-73 -58t-44 -86t-15 -105.5t15 -105.5t44 -86.5t73 -58t101 -21zM370 -12q-78 0 -139 28t-102 75t-62.5 110t-21.5 132t21.5 132t62.5 110t102 75t139 28t139 -28t102 -75 t62.5 -110t21.5 -132t-21.5 -132t-62.5 -110t-102 -75t-139 -28z" unicode="O"/>
<glyph glyph-name="P" horiz-adv-x="508" unicode="P" d="M404 472q0 33 -13 55.5t-35.5 37t-53 21t-64.5 6.5h-66v-255h49q40 0 73.5 9t58 26.5t38 42.5t13.5 57zM496 471q0 -48 -21 -86.5t-58.5 -65.5t-88.5 -41.5t-110 -14.5h-46v-263h-92v666h161q54 0 100.5 -12t81 -36.5t54 -61t19.5 -85.5z"/>
<glyph glyph-name="Q" d="M370 62q57 0 101 21t73 58t44 86.5t15 105.5t-15 105.5t-44 86t-73 58t-101 21.5t-101 -21.5t-73 -58t-44 -86t-15 -105.5t15 -105.5t44 -86.5t73 -58t101 -21zM370 -12q-78 0 -139 28t-102 75t-62.5 110t-21.5 132t21.5 132t62.5 110t102 75t139 28t139 -28t102 -75 t62.5 -110t21.5 -132q0 -50 -11 -97t-33 -87.5t-54 -73t-74 -53.5l165 -104l-43 -68l-220 142q-13 -2 -27 -3t-28 -1z" unicode="Q"/>
<glyph glyph-name="R" horiz-adv-x="584" unicode="R" d="M418 476q0 31 -13.5 53.5t-36.5 36t-53 20t-63 6.5h-80v-251h46q42 0 78.5 8t63.5 24.5t42.5 42t15.5 60.5zM172 0h-92v666h173q54 0 100.5 -12t81.5 -35.5t55 -59t20 -81.5q0 -69 -44.5 -120t-124.5 -74l235 -284h-113l-217 268q-5 0 -15 -0.5t-21 -0.5h-21.5h-16.5 v-267z"/>
<glyph glyph-name="S" horiz-adv-x="501" unicode="S" d="M464 173q0 -43 -18.5 -77t-50 -58t-74 -37t-91.5 -13q-48 0 -98.5 10t-92.5 30l18 73q37 -17 81.5 -28t89.5 -11q65 0 105 27.5t40 79.5q0 29 -11.5 49.5t-31.5 37t-46.5 29.5t-56.5 27q-34 16 -65.5 33.5t-55.5 40t-38.5 51t-14.5 66.5q0 43 15.5 76t43.5 55t67 33 t86 11q48 0 93.5 -11t79.5 -29l-17 -73q-32 17 -73 28t-83 11q-121 0 -121 -94q0 -21 6 -36.5t19.5 -29t36 -26t54.5 -28.5t68 -34.5t66 -44t50 -59.5t20 -79z"/>
<glyph glyph-name="T" horiz-adv-x="528" unicode="T" d="M506 666v-75h-196v-591h-92v591h-196v75h484z"/>
<glyph glyph-name="U" horiz-adv-x="674" unicode="U" d="M506 666h92v-430q0 -52 -17 -97.5t-50 -79t-81.5 -52.5t-112.5 -19t-112.5 19t-81.5 52.5t-50 79t-17 97.5v430h92v-434q0 -75 42.5 -122t126.5 -47t126.5 47t42.5 122v434z"/>
<glyph glyph-name="V" horiz-adv-x="594" unicode="V" d="M492 666h92l-239 -666h-96l-239 666h92l195 -557z"/>
<glyph glyph-name="W" horiz-adv-x="944" unicode="W" d="M684 121l147 545h89l-190 -666h-91l-167 578l-167 -578h-91l-190 666h89l147 -545l160 545h104z"/>
<glyph glyph-name="X" horiz-adv-x="596" unicode="X" d="M298 263l-173 -263h-97l222 335l-219 331h97l170 -258l170 258h97l-219 -331l222 -335h-97z"/>
<glyph glyph-name="Y" horiz-adv-x="540" unicode="Y" d="M437 666h98l-219 -403v-263h-92v263l-219 403h98l167 -318z"/>
<glyph glyph-name="Z" horiz-adv-x="540" unicode="Z" d="M63 666h430v-74l-345 -518h352v-74h-450v74l345 518h-332v74z"/>
<glyph glyph-name="bracketleft" horiz-adv-x="358" unicode="[" d="M100 -176v912h198v-73h-108v-766h108v-73h-198z"/>
<glyph glyph-name="backslash" horiz-adv-x="419" unicode="\" d="M374 -76l-77 -24l-252 766l76 26z"/>
<glyph glyph-name="bracketright" horiz-adv-x="358" unicode="]" d="M60 -176v73h108v766h-108v73h198v-912h-198z"/>
<glyph glyph-name="asciicircum" horiz-adv-x="510" unicode="^" d="M450 348l-69 -32l-126 277l-126 -277l-69 32l155 318h80z"/>
<glyph glyph-name="underscore" horiz-adv-x="415" unicode="_" d="M-3 -250v49h421v-49h-421z"/>
<glyph glyph-name="grave" horiz-adv-x="404" unicode="`" d="M213 555l-98 160h100l74 -160h-76z"/>
<glyph glyph-name="a" horiz-adv-x="501" unicode="a" d="M211 56q39 0 73 17.5t59 44.5v89q-30 -2 -56 -4t-52 -5q-21 -2 -39.5 -7t-32 -13.5t-21 -22t-7.5 -32.5q0 -34 20 -50.5t56 -16.5zM345 60q-11 -13 -27 -25.5t-36.5 -22.5t-45 -16t-51.5 -6q-30 0 -55 9.5t-43 26.5t-28.5 42t-10.5 55q0 66 46.5 100t124.5 39 q32 2 63.5 3t60.5 1v21q0 61 -26 95.5t-86 34.5q-35 0 -66.5 -9t-60.5 -25l-21 66q38 23 77.5 32t86.5 9q85 0 135.5 -52t50.5 -149v-289h-88v60z"/>
<glyph glyph-name="b" horiz-adv-x="541" unicode="b" d="M279 418q-38 0 -66.5 -13t-48.5 -32v-297q18 -7 37.5 -10.5t47.5 -3.5q82 0 123 50t41 131q0 36 -8 68t-24.5 56t-42 37.5t-59.5 13.5zM74 706h90v-270q22 23 56.5 38.5t80.5 15.5t83 -18.5t63.5 -51.5t41 -78t14.5 -98t-16.5 -99t-48.5 -80.5t-79.5 -54.5t-109.5 -20 q-48 0 -92.5 9t-82.5 26v681z"/>
<glyph glyph-name="c" horiz-adv-x="446" unicode="c" d="M276 490q40 0 75 -7t60 -19l-13 -69q-26 11 -55.5 17t-58.5 6q-81 0 -119.5 -49.5t-38.5 -128.5t38.5 -128.5t119.5 -49.5q29 0 58.5 6t55.5 17l13 -69q-25 -12 -63 -19t-72 -7q-60 0 -105 20t-75 54.5t-45 80t-15 95.5t15 95.5t45 80t75 54.5t105 20z"/>
<glyph glyph-name="d" horiz-adv-x="544" unicode="d" d="M252 62q43 0 75 21t52 45v277q-17 7 -39 10t-46 3q-75 0 -119.5 -47t-44.5 -135q0 -79 29.5 -126.5t92.5 -47.5zM469 0h-85v66q-27 -32 -65 -54t-92 -22q-42 0 -76 18t-59 51t-38.5 78t-13.5 99q0 60 18.5 107.5t51.5 80t77.5 49.5t96.5 17q29 0 51.5 -3.5t43.5 -9.5v229 h90v-706z"/>
<glyph glyph-name="e" horiz-adv-x="484" unicode="e" d="M257 423q-29 0 -51 -11t-38 -30t-25 -44.5t-11 -53.5h226q1 12 1 24q0 15 -3 35t-15 39t-33 30t-51 11zM260 490q46 0 80.5 -15t58 -41t35 -61.5t11.5 -76.5t-10 -81h-303q1 -35 10 -63t27.5 -48.5t48 -31.5t71.5 -11q39 0 73.5 8t63.5 20l12 -67q-32 -15 -74.5 -23.5 t-87.5 -8.5q-60 0 -104.5 19.5t-73.5 53t-43.5 78.5t-14.5 97t15 98t43.5 80.5t69.5 54t92 19.5z"/>
<glyph glyph-name="f" horiz-adv-x="356" unicode="f" d="M111 0v407h-81v73h81v20q0 110 51.5 163t136.5 53q23 0 44 -2.5t38 -9.5l-8 -69q-29 8 -63 8q-57 0 -83 -34t-26 -103v-26h140v-73h-140v-407h-90z"/>
<glyph glyph-name="g" horiz-adv-x="513" unicode="g" d="M243 225q47 0 79 26.5t32 73.5t-31.5 73.5t-79.5 26.5t-79.5 -25.5t-31.5 -74.5t32 -74.5t79 -25.5zM208 17q-17 -8 -35 -17.5t-32.5 -21t-24 -26t-9.5 -33.5q0 -38 34 -55t93 -17q31 0 63 6t57.5 18.5t42 31.5t16.5 44q0 18 -9 29t-24 18t-34 10t-40 5zM243 161 q-20 0 -38 3q-15 -20 -15 -40q0 -18 12.5 -26.5t41.5 -10.5l99 -8q34 -3 63 -10.5t49.5 -21.5t32 -36.5t11.5 -53.5q0 -39 -22.5 -71t-60 -54.5t-86 -35t-100.5 -12.5q-44 0 -82 7.5t-66.5 23t-45 39t-16.5 55.5q0 27 12.5 47t32 34.5t43.5 24.5t47 16q-20 10 -33.5 27 t-13.5 43q0 29 16 46t37 28q-49 18 -79 56.5t-30 92.5q0 36 15 66t40.5 52.5t60.5 35t75 12.5q18 0 34.5 -2.5t32.5 -7.5h179v-67h-84q14 -20 21.5 -42t7.5 -47q0 -36 -14.5 -66t-40.5 -51.5t-61 -33.5t-75 -12z"/>
<glyph glyph-name="h" horiz-adv-x="554" unicode="h" d="M75 0v706h90v-287q29 35 65 53t84 18q45 0 77 -19t53 -51.5t30.5 -75.5t9.5 -91v-253h-90v250q0 37 -6 67.5t-19 52.5t-34 34.5t-51 12.5q-40 0 -70.5 -21t-48.5 -44v-352h-90z"/>
<glyph glyph-name="i" horiz-adv-x="240" unicode="i" d="M63 622q0 23 15.5 40t41.5 17t41.5 -17t15.5 -40t-15.5 -40t-41.5 -17t-41.5 17t-15.5 40zM75 0v480h90v-480h-90z"/>
<glyph glyph-name="j" horiz-adv-x="235" unicode="j" d="M63 622q0 23 15.5 40t41.5 17t41.5 -17t15.5 -40t-15.5 -40t-41.5 -17t-41.5 17t-15.5 40zM165 118q0 -47 -6 -90t-20.5 -84.5t-40 -81t-64.5 -78.5l-62 49q56 61 79.5 126t23.5 143v378h90v-362z"/>
<glyph glyph-name="k" horiz-adv-x="490" unicode="k" d="M75 0v706h90v-453l192 227h104l-203 -236l220 -244h-109l-204 238v-238h-90z"/>
<glyph glyph-name="l" horiz-adv-x="276" unicode="l" d="M160 124q0 -29 11.5 -44.5t39.5 -15.5q22 0 45 6l4 -67q-33 -11 -73 -11q-63 0 -90 37t-27 91v586h90v-582z"/>
<glyph glyph-name="m" horiz-adv-x="861" unicode="m" d="M597 417q-38 0 -70.5 -22t-57.5 -54q9 -41 9 -88v-253h-90v250q0 37 -5 67.5t-17 52.5t-32 34.5t-50 12.5q-40 0 -70.5 -21t-48.5 -44v-352h-90v480h86v-70q27 38 65 59t88 21q51 0 84.5 -25t52.5 -69q30 45 71.5 69.5t100.5 24.5q45 0 77 -19t52 -51.5t29.5 -75.5 t9.5 -91v-253h-90v250q0 37 -5 67.5t-17 52.5t-32 34.5t-50 12.5z"/>
<glyph glyph-name="n" horiz-adv-x="554" unicode="n" d="M75 0v480h86v-70q27 38 65 59t88 21q45 0 77 -19t53 -51.5t30.5 -75.5t9.5 -91v-253h-90v250q0 37 -6 67.5t-19 52.5t-34 34.5t-51 12.5q-40 0 -70.5 -21t-48.5 -44v-352h-90z"/>
<glyph glyph-name="o" horiz-adv-x="546" unicode="o" d="M416 240q0 37 -9 70t-26.5 57.5t-44.5 38.5t-63 14t-63 -14t-44.5 -38.5t-26.5 -57.5t-9 -70q0 -38 9 -70.5t26.5 -57t44.5 -38.5t63 -14t63 14t44.5 38.5t26.5 57t9 70.5zM506 240q0 -51 -15.5 -96t-45.5 -79.5t-73.5 -54.5t-98.5 -20q-56 0 -99 20t-73 54.5t-45.5 79.5 t-15.5 96t15.5 96t45.5 79.5t73 54.5t99 20q55 0 98.5 -20t73.5 -54.5t45.5 -79.5t15.5 -96z"/>
<glyph glyph-name="p" horiz-adv-x="544" unicode="p" d="M290 417q-44 0 -75 -20.5t-50 -44.5v-277q17 -7 39 -10t46 -3q75 0 119.5 47t44.5 135q0 37 -7.5 69t-23 55t-39 36t-54.5 13zM75 480h86v-65q23 31 59 53t93 22q43 0 78 -18t60 -51t39 -78t14 -99q0 -60 -18.5 -107.5t-51.5 -80t-77.5 -49.5t-96.5 -17q-29 0 -51.5 3.5 t-43.5 9.5v-209h-90v686z"/>
<glyph glyph-name="q" horiz-adv-x="544" unicode="q" d="M264 62q38 0 66.5 13t48.5 32v298q-21 8 -42 10.5t-42 2.5q-82 0 -123.5 -51.5t-41.5 -132.5q0 -38 8 -69.5t24.5 -54t41.5 -35.5t60 -13zM469 -206h-90v250q-22 -23 -56.5 -38.5t-80.5 -15.5q-47 0 -84.5 18.5t-63.5 51t-40 77.5t-14 98q0 54 16.5 101t48.5 81 t79.5 53.5t109.5 19.5q96 0 175 -34v-662z"/>
<glyph glyph-name="r" horiz-adv-x="361" unicode="r" d="M345 406h-23q-53 0 -91.5 -20t-65.5 -65v-321h-90v480h86v-92q21 48 55.5 73t91.5 25q22 0 37 -5v-75z"/>
<glyph glyph-name="s" horiz-adv-x="418" unicode="s" d="M383 137q0 -34 -14.5 -61t-40 -46t-60.5 -29.5t-76 -10.5q-18 0 -38 2t-40 6t-38.5 9.5t-31.5 11.5l15 71q26 -11 59.5 -20t74.5 -9q43 0 72.5 15.5t29.5 49.5q0 16 -8 28.5t-21 22t-30.5 17.5t-36.5 16q-26 10 -52 22.5t-47.5 30t-35 40.5t-13.5 55q0 35 14.5 60t38 41 t54.5 23.5t64 7.5q38 0 74 -8.5t65 -23.5l-15 -68q-29 14 -60.5 21.5t-63.5 7.5q-35 0 -59 -12t-24 -44q0 -15 8.5 -25.5t22 -19t29.5 -15.5t30 -14q13 -6 39 -17t51.5 -28.5t44.5 -43.5t19 -63z"/>
<glyph glyph-name="t" horiz-adv-x="389" unicode="t" d="M20 480h86v123h90v-123h158v-73h-158v-245q0 -21 3 -39.5t11 -31.5t22 -20.5t37 -7.5q42 0 76 13l8 -68q-16 -7 -45.5 -12.5t-57.5 -5.5q-39 0 -66 12.5t-44.5 35t-25.5 53.5t-8 68v248h-86v73z"/>
<glyph glyph-name="u" horiz-adv-x="545" unicode="u" d="M470 480v-480h-86v70q-26 -35 -64.5 -57.5t-88.5 -22.5q-45 0 -76.5 19t-51.5 51.5t-29 75.5t-9 91v253h90v-250q0 -37 5 -67.5t17 -52.5t32.5 -34.5t51.5 -12.5q40 0 70 21t49 44v352h90z"/>
<glyph glyph-name="v" horiz-adv-x="470" unicode="v" d="M364 480h91l-173 -480h-94l-173 480h91l129 -389z"/>
<glyph glyph-name="w" horiz-adv-x="754" unicode="w" d="M548 106l101 374h85l-142 -480h-84l-131 403l-131 -403h-84l-142 480h85l101 -374l122 374h98z"/>
<glyph glyph-name="x" horiz-adv-x="491" unicode="x" d="M293 243l178 -243h-96l-130 179l-129 -179h-96l178 243l-174 237h96l125 -173l126 173h96z"/>
<glyph glyph-name="y" horiz-adv-x="460" unicode="y" d="M117 -206l71 201l-176 485h93l126 -393l124 393h93l-243 -686h-88z"/>
<glyph glyph-name="z" horiz-adv-x="452" unicode="z" d="M55 0v70l248 340h-239v70h337v-70l-248 -340h259v-70h-357z"/>
<glyph glyph-name="braceleft" horiz-adv-x="401" unicode="{" d="M241 8q0 -57 18 -84t68 -27h24v-73h-23q-90 0 -133.5 43t-43.5 146v133q0 52 -22.5 75t-69.5 23h-14v72h14q47 0 69.5 23t22.5 75v133q0 103 43.5 146t133.5 43h23v-73h-24q-50 0 -68 -27t-18 -84v-124q0 -60 -25 -96.5t-85 -51.5q60 -15 85 -51.5t25 -96.5v-124z"/>
<glyph glyph-name="bar" horiz-adv-x="264" unicode="|" d="M95 -250v1000h74v-1000h-74z"/>
<glyph glyph-name="braceright" horiz-adv-x="401" unicode="}" d="M160 132q0 60 25 96.5t85 51.5q-60 15 -85 51.5t-25 96.5v124q0 57 -18 84t-68 27h-24v73h23q90 0 133.5 -43t43.5 -146v-133q0 -52 22.5 -75t69.5 -23h14v-72h-14q-47 0 -69.5 -23t-22.5 -75v-133q0 -103 -43.5 -146t-133.5 -43h-23v73h24q50 0 68 27t18 84v124z"/>
<glyph glyph-name="asciitilde" horiz-adv-x="581" unicode="~" d="M526 389q-20 -63 -51 -93.5t-80 -30.5q-26 0 -54.5 13.5t-57.5 27.5q-23 11 -44.5 21.5t-41.5 10.5q-16 0 -26.5 -6t-18.5 -16.5t-14 -24t-12 -29.5l-66 28q19 66 50.5 95t86.5 29q28 0 55 -11t55 -26q26 -14 47.5 -25t41.5 -11q28 0 42 23.5t24 52.5z"/>
<glyph glyph-name="uni00A0" horiz-adv-x="215" unicode=" "/>
<glyph glyph-name="exclamdown" horiz-adv-x="306" unicode="¡" d="M211 432q0 -24 -16 -41t-42 -17t-42 17t-16 41t16 41t42 17t42 -17t16 -41zM200 23v-206h-94v206l22 281h52z"/>
<glyph glyph-name="cent" horiz-adv-x="497" unicode="¢" d="M246 689h81v-117q27 -2 56 -9t49 -17l-13 -67q-23 10 -52 15.5t-59 5.5q-76 0 -115.5 -43.5t-39.5 -123.5t39.5 -123.5t115.5 -43.5q30 0 59 5.5t52 15.5l13 -67q-20 -10 -49 -17t-56 -9v-117h-81v121q-90 19 -135.5 82.5t-45.5 152.5t45.5 152.5t135.5 82.5v121z"/>
<glyph glyph-name="sterling" horiz-adv-x="537" unicode="£" d="M422 270h-171q-4 -60 -34 -112.5t-71 -84.5h311v-73h-389l-18 65q44 42 74 92t38 113h-107v72h110v110q0 109 50 167.5t146 58.5q42 0 75 -7.5t56 -19.5l-15 -71q-23 12 -52 18.5t-56 6.5q-60 0 -87 -38.5t-27 -115.5v-109h167v-72z"/>
<glyph glyph-name="currency" horiz-adv-x="632" unicode="¤" d="M182 333q0 -29 9 -55t26.5 -45.5t42 -31t56.5 -11.5q31 0 56 11.5t42.5 31t26.5 45.5t9 55t-9 55t-26.5 45.5t-42.5 31t-56 11.5q-32 0 -56.5 -11.5t-42 -31t-26.5 -45.5t-9 -55zM508 598l54 -51l-83 -84q23 -26 35.5 -59.5t12.5 -70.5q0 -38 -12.5 -71t-35.5 -60l83 -83 l-54 -51l-88 87q-45 -27 -104 -27t-104 27l-88 -87l-54 51l83 83q-23 27 -35.5 60t-12.5 71q0 37 12.5 70.5t35.5 59.5l-83 84l54 51l88 -88q47 28 104 28t104 -28z"/>
<glyph glyph-name="yen" horiz-adv-x="546" unicode="¥" d="M401 666h95l-123 -279h100v-65h-128l-27 -59v-48h155v-64h-155v-151h-90v151h-155v64h155v48l-27 59h-128v65h100l-123 279h95l128 -315z"/>
<glyph glyph-name="brokenbar" horiz-adv-x="264" unicode="¦" d="M95 -250v385h74v-385h-74zM169 365h-74v385h74v-385z"/>
<glyph glyph-name="section" horiz-adv-x="615" unicode="§" d="M234 639q-43 -26 -70 -67t-27 -103q0 -34 9.5 -61.5t26 -51.5t39.5 -46.5t49 -45.5q25 -22 54.5 -47t55 -54.5t42.5 -63t17 -72.5q0 -24 -7 -44t-21 -40q34 23 60 63.5t26 90.5q0 35 -10.5 64.5t-30 57t-47 54t-61.5 55.5q-33 29 -59.5 54.5t-44.5 50.5t-27.5 52t-9.5 59 t11.5 57t24.5 38zM365 716q37 0 69.5 -4.5t57.5 -15.5l-10 -58q-26 8 -50.5 12.5t-53.5 4.5q-50 0 -79 -27.5t-29 -76.5q0 -43 27 -78t81 -81q33 -28 65.5 -58t58.5 -63.5t42 -73t16 -86.5q0 -61 -26.5 -109t-70 -81t-100 -50t-115.5 -17q-35 0 -71.5 5t-67.5 16l11 60 q26 -9 55.5 -14.5t64.5 -5.5q58 0 88 28.5t30 74.5q0 31 -15.5 57.5t-38 50.5t-49.5 45t-49 42q-34 31 -60 59.5t-44 58t-27.5 62.5t-9.5 73q0 60 23.5 106.5t64.5 78.5t95.5 48.5t116.5 16.5z"/>
<glyph glyph-name="dieresis" horiz-adv-x="519" unicode="¨" d="M404 632q0 -23 -15 -38.5t-39 -15.5t-39 15.5t-15 38.5t15 38.5t39 15.5t39 -15.5t15 -38.5zM223 632q0 -23 -15 -38.5t-39 -15.5t-39 15.5t-15 38.5t15 38.5t39 15.5t39 -15.5t15 -38.5z"/>
<glyph glyph-name="copyright" horiz-adv-x="814" unicode="©" d="M427 529q25 0 53 -4.5t48 -13.5l-9 -53q-42 14 -84 14q-66 0 -101 -36.5t-35 -102.5t35 -102.5t101 -36.5q42 0 84 14l9 -53q-20 -9 -48 -13.5t-53 -4.5q-45 0 -81.5 15t-61.5 41t-38.5 62t-13.5 78t13.5 78t38.5 62t61.5 41t81.5 15zM99 333q0 -63 22 -119.5t62.5 -99 t97.5 -67.5t126 -25t126 25t97.5 67.5t62.5 99t22 119.5t-22 119.5t-62.5 99t-97.5 67.5t-126 25t-126 -25t-97.5 -67.5t-62.5 -99t-22 -119.5zM754 333q0 -71 -25 -133.5t-71 -109.5t-109.5 -74.5t-141.5 -27.5t-141.5 27.5t-109.5 74.5t-71 109.5t-25 133.5t25 134t71 110 t109.5 74t141.5 27t141.5 -27t109.5 -74t71 -110t25 -134z"/>
<glyph glyph-name="ordfeminine" horiz-adv-x="455" unicode="ª" d="M195 375q25 0 47 9t44 24v64q-34 -3 -77 -9q-28 -4 -45 -14.5t-17 -32.5q0 -19 11 -30t37 -11zM287 366q-18 -19 -47.5 -32.5t-64.5 -13.5q-48 0 -75 26t-27 68q0 48 30.5 71.5t80.5 28.5q24 2 52 3.5t50 1.5v13q0 41 -20 61.5t-58 20.5q-26 0 -49 -5.5t-45 -16.5l-15 57 q29 16 59 21.5t64 5.5q30 0 56 -8.5t45 -25.5t30 -44.5t11 -64.5v-205h-77v38zM65 260h325v-62h-325v62z"/>
<glyph glyph-name="guillemotleft" horiz-adv-x="575" unicode="«" d="M505 79l-59 -46l-167 208l167 208l59 -46l-131 -162zM276 79l-59 -46l-167 208l167 208l59 -46l-131 -162z"/>
<glyph glyph-name="logicalnot" horiz-adv-x="612" unicode="¬" d="M459 85v204h-384v68h462v-272h-78z"/>
<glyph glyph-name="registered" horiz-adv-x="564" unicode="®" d="M471 460q0 39 -13.5 73.5t-38.5 60.5t-59.5 41t-77.5 15t-78 -15t-59.5 -41t-38 -60.5t-13.5 -73.5t13.5 -73.5t38 -60.5t59.5 -41t78 -15t77.5 15t59.5 41t38.5 60.5t13.5 73.5zM60 460q0 44 16 83.5t45 69.5t70 47.5t91 17.5t91 -17.5t70 -47.5t45 -69.5t16 -83.5 t-16 -83.5t-45 -69.5t-70 -47.5t-91 -17.5t-91 17.5t-70 47.5t-45 69.5t-16 83.5zM323 511q0 15 -11.5 22t-28.5 7h-26v-63h14q24 0 38 8.5t14 25.5zM367 513q0 -23 -13.5 -39t-35.5 -24l74 -92h-55l-65 84h-15v-84h-44v217h76q32 0 55 -16.5t23 -45.5z"/>
<glyph glyph-name="macron" horiz-adv-x="502" unicode="¯" d="M115 651h272v-69h-272v69z"/>
<glyph glyph-name="degree" horiz-adv-x="400" unicode="°" d="M271 554q0 30 -17.5 53t-53.5 23t-53.5 -23t-17.5 -53t17.5 -53t53.5 -23t53.5 23t17.5 53zM70 554q0 25 9 48t26 39.5t41 26.5t54 10t54 -10t41 -26.5t26 -39.5t9 -48q0 -26 -9 -48.5t-26 -39.5t-41 -27t-54 -10t-54 10t-41 27t-26 39.5t-9 48.5z"/>
<glyph glyph-name="plusminus" horiz-adv-x="612" unicode="±" d="M75 68h462v-68h-462v68zM345 318v-178h-78v178h-192v66h192v177h78v-177h192v-66h-192z"/>
<glyph glyph-name="twosuperior" horiz-adv-x="389" unicode="²" d="M55 795q26 14 54.5 21.5t61.5 7.5q66 0 103 -33.5t37 -87.5q0 -28 -9.5 -52t-25 -45t-36.5 -40t-44 -37q-17 -14 -32 -25t-29 -22h189v-62h-281l-15 50q32 26 60.5 49.5t58.5 49.5q34 29 60 59.5t26 69.5q0 31 -18.5 47.5t-53.5 16.5q-24 0 -45 -7t-43 -18z"/>
<glyph glyph-name="threesuperior" horiz-adv-x="364" unicode="³" d="M308 526q0 -52 -43 -84t-113 -32q-29 0 -60 7t-52 18l13 57q22 -10 44.5 -15.5t47.5 -5.5q40 0 62.5 14.5t22.5 42.5q0 32 -28 46.5t-70 14.5h-48v62h43q45 0 69.5 17.5t24.5 44.5q0 26 -19.5 38t-50.5 12q-23 0 -44 -5t-42 -15l-14 57q26 13 54 18.5t60 5.5q28 0 52 -7 t42 -19.5t28.5 -31t10.5 -42.5q0 -70 -79 -100q39 -10 64 -36t25 -62z"/>
<glyph glyph-name="acute" horiz-adv-x="404" unicode="´" d="M115 555l74 160h100l-98 -160h-76z"/>
<glyph glyph-name="mu" horiz-adv-x="605" unicode="µ" d="M75 480h90v-250q0 -36 5.5 -67t18 -53t32.5 -34.5t49 -12.5q38 0 67.5 19t52.5 46v352h90v-350q0 -33 11 -53t51 -20h18v-54q-13 -5 -26 -7t-30 -2q-45 0 -71 22t-36 57q-27 -37 -63.5 -60t-85.5 -23q-40 0 -70 22t-43 54q12 -39 21 -80t9 -88v-104h-90v686z"/>
<glyph glyph-name="paragraph" horiz-adv-x="575" unicode="¶" d="M421 -140v742h-116v-421q-53 0 -98 16t-77.5 46.5t-51 75t-18.5 102.5t19.5 103.5t52.5 77t77.5 48t94.5 16.5h191v-806h-74z"/>
<glyph glyph-name="periodcentered" horiz-adv-x="256" unicode="·" d="M186 255q0 -24 -16 -41t-42 -17t-42 17t-16 41t16 41t42 17t42 -17t16 -41z"/>
<glyph glyph-name="cedilla" horiz-adv-x="388" unicode="¸" d="M273 -119q0 -23 -11 -39.5t-30 -28t-45.5 -18.5t-57.5 -11l-13 54q13 2 26.5 5t24.5 8t18.5 12t7.5 17t-7 17t-18 11.5t-25 7.5l-28 6l32 78h57l-16 -44q14 -3 29 -8.5t27.5 -14t20.5 -21.5t8 -31z"/>
<glyph glyph-name="onesuperior" horiz-adv-x="304" unicode="¹" d="M134 420v316l-101 -33l-18 61l143 50h54v-394h-78z"/>
<glyph glyph-name="ordmasculine" horiz-adv-x="484" unicode="º" d="M80 260h325v-62h-325v62zM142 498q0 -49 26 -82.5t74 -33.5t74 33.5t26 82.5t-26 82.5t-74 33.5t-74 -33.5t-26 -82.5zM419 498q0 -36 -12 -68t-35 -56.5t-56 -39t-74 -14.5t-74 14.5t-56 39t-35 56.5t-12 68t12 68t35 56.5t56 39t74 14.5t74 -14.5t56 -39t35 -56.5 t12 -68z"/>
<glyph glyph-name="guillemotright" horiz-adv-x="575" unicode="»" d="M201 241l-131 162l59 46l167 -208l-167 -208l-59 46zM430 241l-131 162l59 46l167 -208l-167 -208l-59 46z"/>
<glyph glyph-name="onequarter" horiz-adv-x="835" unicode="¼" d="M648 314l-122 -155h122v155zM722 100v-100h-74v100h-185l-16 52l198 242h77v-235h63v-59h-63zM174 272v316l-101 -33l-18 61l143 50h54v-394h-78zM553 678l60 -32l-353 -658l-60 33z"/>
<glyph glyph-name="onehalf" horiz-adv-x="883" unicode="½" d="M544 375q26 14 54.5 21.5t61.5 7.5q66 0 103 -33.5t37 -87.5q0 -28 -9.5 -52t-25 -45t-36.5 -40t-44 -37q-17 -14 -32 -25t-29 -22h189v-62h-281l-15 50q32 26 60.5 49.5t58.5 49.5q34 29 60 59.5t26 69.5q0 31 -18.5 47.5t-53.5 16.5q-24 0 -45 -7t-43 -18zM174 272v316 l-101 -33l-18 61l143 50h54v-394h-78zM553 678l60 -32l-353 -658l-60 33z"/>
<glyph glyph-name="threequarters" horiz-adv-x="862" unicode="¾" d="M338 378q0 -52 -43 -84t-113 -32q-29 0 -60 7t-52 18l13 57q22 -10 44.5 -15.5t47.5 -5.5q40 0 62.5 14.5t22.5 42.5q0 32 -28 46.5t-70 14.5h-48v62h43q45 0 69.5 17.5t24.5 44.5q0 26 -19.5 38t-50.5 12q-23 0 -44 -5t-42 -15l-14 57q26 13 54 18.5t60 5.5q28 0 52 -7 t42 -19.5t28.5 -31t10.5 -42.5q0 -70 -79 -100q39 -10 64 -36t25 -62zM675 314l-122 -155h122v155zM749 100v-100h-74v100h-185l-16 52l198 242h77v-235h63v-59h-63zM580 678l60 -32l-353 -658l-60 33z"/>
<glyph glyph-name="questiondown" horiz-adv-x="457" unicode="¿" d="M235 432q0 24 16 41t42 17t42 -17t16 -41t-16 -41t-42 -17t-42 17t-16 41zM55 -20q0 49 21.5 90t56.5 76.5t80 67.5t92 65l44 -60q-42 -30 -79 -57.5t-64.5 -55.5t-44 -58t-16.5 -65q0 -50 31 -76.5t79 -26.5q36 0 68 9.5t60 26.5l24 -70q-38 -23 -78 -32t-83 -9 q-39 0 -73.5 11t-60.5 33t-41.5 55t-15.5 76z"/>
<glyph glyph-name="Agrave" horiz-adv-x="676" unicode="À" d="M299 729l-115 114h106l84 -114h-75zM210 235h256l-128 347zM648 0h-94l-61 161h-311l-60 -161h-94l265 666h90z"/>
<glyph glyph-name="Aacute" horiz-adv-x="676" unicode="Á" d="M305 729l84 114h106l-115 -114h-75zM210 235h256l-128 347zM648 0h-94l-61 161h-311l-60 -161h-94l265 666h90z"/>
<glyph glyph-name="Acircumflex" horiz-adv-x="676" unicode="Â" d="M477 729h-80l-59 75l-59 -75h-80l92 114h94zM210 235h256l-128 347zM648 0h-94l-61 161h-311l-60 -161h-94l265 666h90z"/>
<glyph glyph-name="Atilde" horiz-adv-x="676" unicode="Ã" d="M415 734q-19 0 -40 7.5t-43 15.5q-23 8 -39.5 13t-30.5 5q-19 0 -27 -12.5t-16 -32.5l-55 19q13 51 35 72.5t64 21.5q24 0 46 -6.5t40 -13.5q20 -8 36.5 -14.5t29.5 -6.5q17 0 25 11t16 30l54 -24q-16 -44 -36.5 -64.5t-58.5 -20.5zM210 235h256l-128 347zM648 0h-94 l-61 161h-311l-60 -161h-94l265 666h90z"/>
<glyph glyph-name="Adieresis" horiz-adv-x="676" unicode="Ä" d="M489 789q0 -23 -14.5 -37t-38.5 -14t-38.5 14t-14.5 37t14.5 37t38.5 14t38.5 -14t14.5 -37zM292 789q0 -23 -14.5 -37t-38.5 -14t-38.5 14t-14.5 37t14.5 37t38.5 14t38.5 -14t14.5 -37zM210 235h256l-128 347zM648 0h-94l-61 161h-311l-60 -161h-94l265 666h90z"/>
<glyph glyph-name="Aring" horiz-adv-x="676" unicode="Å" d="M379 726q0 18 -10 31t-31 13t-31 -13t-10 -31t10.5 -31t30.5 -13t30.5 13t10.5 31zM210 235h256l-128 347zM338 810q22 0 38.5 -7t27.5 -19t16.5 -27t5.5 -31q0 -21 -9.5 -40t-29.5 -31l261 -655h-94l-61 161h-311l-60 -161h-94l261 655q-21 14 -30 32t-9 39q0 16 5.5 31 t16.5 27t27.5 19t38.5 7z"/>
<glyph glyph-name="AE" horiz-adv-x="879" unicode="Æ" d="M233 234h228l-41 343zM818 591h-318l27 -213h267v-75h-257l29 -228h255v-75h-330l-20 160h-280l-89 -160h-97l384 666h429v-75z"/>
<glyph glyph-name="Ccedilla" horiz-adv-x="610" unicode="Ç" d="M454 -119q0 -23 -11 -39.5t-30 -28t-45.5 -18.5t-57.5 -11l-13 54q13 2 26.5 5t24.5 8t18.5 12t7.5 17t-7 17t-18 11.5t-25 7.5l-28 6l29 71q-68 9 -120.5 38.5t-88.5 74t-54.5 102.5t-18.5 125q0 75 23.5 138t67.5 109t108.5 72t146.5 26q45 0 94 -8.5t82 -22.5l-15 -71 q-34 12 -73 19.5t-77 7.5q-125 0 -195 -70t-70 -200t70 -200t195 -70q38 0 77 7.5t73 19.5l15 -71q-33 -14 -82 -22.5t-94 -8.5h-9l-11 -32q14 -3 29 -8.5t27.5 -14t20.5 -21.5t8 -31z"/>
<glyph glyph-name="Egrave" horiz-adv-x="510" unicode="È" d="M256 729l-115 114h106l84 -114h-75zM80 666h371v-75h-279v-213h267v-75h-267v-228h282v-75h-374v666z"/>
<glyph glyph-name="Eacute" horiz-adv-x="510" unicode="É" d="M200 729l84 114h106l-115 -114h-75zM80 666h371v-75h-279v-213h267v-75h-267v-228h282v-75h-374v666z"/>
<glyph glyph-name="Ecircumflex" horiz-adv-x="510" unicode="Ê" d="M411 729h-80l-59 75l-59 -75h-80l92 114h94zM80 666h371v-75h-279v-213h267v-75h-267v-228h282v-75h-374v666z"/>
<glyph glyph-name="Edieresis" horiz-adv-x="510" unicode="Ë" d="M425 789q0 -23 -14.5 -37t-38.5 -14t-38.5 14t-14.5 37t14.5 37t38.5 14t38.5 -14t14.5 -37zM228 789q0 -23 -14.5 -37t-38.5 -14t-38.5 14t-14.5 37t14.5 37t38.5 14t38.5 -14t14.5 -37zM80 666h371v-75h-279v-213h267v-75h-267v-228h282v-75h-374v666z"/>
<glyph glyph-name="Igrave" horiz-adv-x="262" unicode="Ì" d="M97 729l-115 114h106l84 -114h-75zM177 0h-92v666h92v-666z"/>
<glyph glyph-name="Iacute" horiz-adv-x="262" unicode="Í" d="M92 729l84 114h106l-115 -114h-75zM177 0h-92v666h92v-666z"/>
<glyph glyph-name="Icircumflex" horiz-adv-x="262" unicode="Î" d="M270 729h-80l-59 75l-59 -75h-80l92 114h94zM177 0h-92v666h92v-666z"/>
<glyph glyph-name="Idieresis" horiz-adv-x="262" unicode="Ï" d="M283 789q0 -23 -14.5 -37t-38.5 -14t-38.5 14t-14.5 37t14.5 37t38.5 14t38.5 -14t14.5 -37zM86 789q0 -23 -14.5 -37t-38.5 -14t-38.5 14t-14.5 37t14.5 37t38.5 14t38.5 -14t14.5 -37zM177 0h-92v666h92v-666z"/>
<glyph glyph-name="Eth" horiz-adv-x="729" unicode="Ð" d="M311 74q60 0 112.5 17.5t91.5 50.5t61.5 81t22.5 110q0 61 -22.5 109.5t-61.5 81.5t-91.5 50.5t-112.5 17.5h-93v-222h181v-74h-181v-222h93zM45 370h81v296h185q86 0 156 -25t120 -69.5t77 -105.5t27 -133t-27 -133t-77 -105.5t-120 -69.5t-156 -25h-185v296h-81v74z "/>
<glyph glyph-name="Ntilde" horiz-adv-x="709" unicode="Ñ" d="M432 734q-19 0 -40 7.5t-43 15.5q-23 8 -39.5 13t-30.5 5q-19 0 -27 -12.5t-16 -32.5l-55 19q13 51 35 72.5t64 21.5q24 0 46 -6.5t40 -13.5q20 -8 36.5 -14.5t29.5 -6.5q17 0 25 11t16 30l54 -24q-16 -44 -36.5 -64.5t-58.5 -20.5zM541 0l-373 523v-523h-88v666h88 l373 -523v523h88v-666h-88z"/>
<glyph glyph-name="Ograve" d="M337 729l-115 114h106l84 -114h-75zM370 62q57 0 101 21t73 58t44 86.5t15 105.5t-15 105.5t-44 86t-73 58t-101 21.5t-101 -21.5t-73 -58t-44 -86t-15 -105.5t15 -105.5t44 -86.5t73 -58t101 -21zM370 -12q-78 0 -139 28t-102 75t-62.5 110t-21.5 132t21.5 132t62.5 110 t102 75t139 28t139 -28t102 -75t62.5 -110t21.5 -132t-21.5 -132t-62.5 -110t-102 -75t-139 -28z" unicode="Ò"/>
<glyph glyph-name="Oacute" d="M322 729l84 114h106l-115 -114h-75zM370 62q57 0 101 21t73 58t44 86.5t15 105.5t-15 105.5t-44 86t-73 58t-101 21.5t-101 -21.5t-73 -58t-44 -86t-15 -105.5t15 -105.5t44 -86.5t73 -58t101 -21zM370 -12q-78 0 -139 28t-102 75t-62.5 110t-21.5 132t21.5 132t62.5 110 t102 75t139 28t139 -28t102 -75t62.5 -110t21.5 -132t-21.5 -132t-62.5 -110t-102 -75t-139 -28z" unicode="Ó"/>
<glyph glyph-name="Ocircumflex" d="M509 729h-80l-59 75l-59 -75h-80l92 114h94zM370 62q57 0 101 21t73 58t44 86.5t15 105.5t-15 105.5t-44 86t-73 58t-101 21.5t-101 -21.5t-73 -58t-44 -86t-15 -105.5t15 -105.5t44 -86.5t73 -58t101 -21zM370 -12q-78 0 -139 28t-102 75t-62.5 110t-21.5 132t21.5 132 t62.5 110t102 75t139 28t139 -28t102 -75t62.5 -110t21.5 -132t-21.5 -132t-62.5 -110t-102 -75t-139 -28z" unicode="Ô"/>
<glyph glyph-name="Otilde" d="M448 734q-19 0 -40 7.5t-43 15.5q-23 8 -39.5 13t-30.5 5q-19 0 -27 -12.5t-16 -32.5l-55 19q13 51 35 72.5t64 21.5q24 0 46 -6.5t40 -13.5q20 -8 36.5 -14.5t29.5 -6.5q17 0 25 11t16 30l54 -24q-16 -44 -36.5 -64.5t-58.5 -20.5zM370 62q57 0 101 21t73 58t44 86.5 t15 105.5t-15 105.5t-44 86t-73 58t-101 21.5t-101 -21.5t-73 -58t-44 -86t-15 -105.5t15 -105.5t44 -86.5t73 -58t101 -21zM370 -12q-78 0 -139 28t-102 75t-62.5 110t-21.5 132t21.5 132t62.5 110t102 75t139 28t139 -28t102 -75t62.5 -110t21.5 -132t-21.5 -132 t-62.5 -110t-102 -75t-139 -28z" unicode="Õ"/>
<glyph glyph-name="Odieresis" d="M521 789q0 -23 -14.5 -37t-38.5 -14t-38.5 14t-14.5 37t14.5 37t38.5 14t38.5 -14t14.5 -37zM324 789q0 -23 -14.5 -37t-38.5 -14t-38.5 14t-14.5 37t14.5 37t38.5 14t38.5 -14t14.5 -37zM370 62q57 0 101 21t73 58t44 86.5t15 105.5t-15 105.5t-44 86t-73 58t-101 21.5 t-101 -21.5t-73 -58t-44 -86t-15 -105.5t15 -105.5t44 -86.5t73 -58t101 -21zM370 -12q-78 0 -139 28t-102 75t-62.5 110t-21.5 132t21.5 132t62.5 110t102 75t139 28t139 -28t102 -75t62.5 -110t21.5 -132t-21.5 -132t-62.5 -110t-102 -75t-139 -28z" unicode="Ö"/>
<glyph glyph-name="multiply" horiz-adv-x="582" unicode="×" d="M451 534l51 -51l-160 -160l160 -160l-51 -51l-160 161l-160 -161l-51 51l160 160l-160 160l51 51l160 -161z"/>
<glyph glyph-name="Oslash" horiz-adv-x="746" unicode="Ø" d="M373 62q57 0 101 21t73 58t44 86.5t15 105.5q0 52 -12.5 98t-37.5 81l-324 -404q28 -22 63 -34t78 -12zM140 333q0 -53 12.5 -99.5t38.5 -82.5l324 406q-28 22 -63 34.5t-79 12.5q-57 0 -101 -21.5t-73 -58t-44 -86t-15 -105.5zM373 -12q-58 0 -105.5 15t-85.5 42 l-87 -109l-46 37l89 111q-45 48 -67.5 112.5t-22.5 136.5q0 69 21.5 132t62.5 110t102 75t139 28q58 0 106 -15.5t86 -43.5l88 111l46 -38l-90 -113q44 -48 66.5 -111t22.5 -135q0 -69 -21.5 -132t-62.5 -110t-102 -75t-139 -28z"/>
<glyph glyph-name="Ugrave" horiz-adv-x="674" unicode="Ù" d="M316 729l-115 114h106l84 -114h-75zM506 666h92v-430q0 -52 -17 -97.5t-50 -79t-81.5 -52.5t-112.5 -19t-112.5 19t-81.5 52.5t-50 79t-17 97.5v430h92v-434q0 -75 42.5 -122t126.5 -47t126.5 47t42.5 122v434z"/>
<glyph glyph-name="Uacute" horiz-adv-x="674" unicode="Ú" d="M282 729l84 114h106l-115 -114h-75zM506 666h92v-430q0 -52 -17 -97.5t-50 -79t-81.5 -52.5t-112.5 -19t-112.5 19t-81.5 52.5t-50 79t-17 97.5v430h92v-434q0 -75 42.5 -122t126.5 -47t126.5 47t42.5 122v434z"/>
<glyph glyph-name="Ucircumflex" horiz-adv-x="674" unicode="Û" d="M476 729h-80l-59 75l-59 -75h-80l92 114h94zM506 666h92v-430q0 -52 -17 -97.5t-50 -79t-81.5 -52.5t-112.5 -19t-112.5 19t-81.5 52.5t-50 79t-17 97.5v430h92v-434q0 -75 42.5 -122t126.5 -47t126.5 47t42.5 122v434z"/>
<glyph glyph-name="Udieresis" horiz-adv-x="674" unicode="Ü" d="M488 789q0 -23 -14.5 -37t-38.5 -14t-38.5 14t-14.5 37t14.5 37t38.5 14t38.5 -14t14.5 -37zM291 789q0 -23 -14.5 -37t-38.5 -14t-38.5 14t-14.5 37t14.5 37t38.5 14t38.5 -14t14.5 -37zM506 666h92v-430q0 -52 -17 -97.5t-50 -79t-81.5 -52.5t-112.5 -19t-112.5 19 t-81.5 52.5t-50 79t-17 97.5v430h92v-434q0 -75 42.5 -122t126.5 -47t126.5 47t42.5 122v434z"/>
<glyph glyph-name="Yacute" horiz-adv-x="540" unicode="Ý" d="M223 729l84 114h106l-115 -114h-75zM437 666h98l-219 -403v-263h-92v263l-219 403h98l167 -318z"/>
<glyph glyph-name="Thorn" horiz-adv-x="516" unicode="Þ" d="M404 343q0 33 -13 55.5t-35.5 37t-53 21t-64.5 6.5h-66v-255h51q40 0 73.5 9t57.5 26.5t37 42.5t13 57zM496 342q0 -48 -21 -86.5t-58.5 -65.5t-88.5 -41.5t-110 -14.5h-46v-134h-92v666h92v-129h69q54 0 100.5 -12t81 -36.5t54 -61t19.5 -85.5z"/>
<glyph glyph-name="germandbls" horiz-adv-x="590" unicode="ß" d="M75 0v482q0 58 16 101.5t45.5 73t71 44.5t92.5 15q33 0 65.5 -9t57.5 -27.5t40.5 -46t15.5 -63.5q0 -38 -19 -68.5t-38 -53.5q-14 -17 -24.5 -29.5t-17.5 -23.5t-11 -21t-4 -22t6.5 -22t17 -18.5t23.5 -16t27 -16.5q18 -12 39.5 -25.5t40 -31t31 -40.5t12.5 -54 t-13.5 -56.5t-37 -43.5t-55.5 -28t-69 -10q-29 0 -64.5 6t-61.5 17l12 71q30 -12 58.5 -17.5t55.5 -5.5q38 0 62.5 16t24.5 46q0 16 -7 28.5t-19 23t-27 20t-31 18.5q-26 15 -47 28.5t-35.5 28.5t-22.5 33.5t-8 44.5q0 21 6.5 39t16 33t20 27.5t18.5 22.5q19 23 36 45.5 t17 52.5q0 35 -27.5 55t-69.5 20q-62 0 -95.5 -42.5t-33.5 -121.5v-479h-90z"/>
<glyph glyph-name="agrave" horiz-adv-x="501" unicode="à" d="M221 555l-98 160h100l74 -160h-76zM211 56q39 0 73 17.5t59 44.5v89q-30 -2 -56 -4t-52 -5q-21 -2 -39.5 -7t-32 -13.5t-21 -22t-7.5 -32.5q0 -34 20 -50.5t56 -16.5zM345 60q-11 -13 -27 -25.5t-36.5 -22.5t-45 -16t-51.5 -6q-30 0 -55 9.5t-43 26.5t-28.5 42t-10.5 55 q0 66 46.5 100t124.5 39q32 2 63.5 3t60.5 1v21q0 61 -26 95.5t-86 34.5q-35 0 -66.5 -9t-60.5 -25l-21 66q38 23 77.5 32t86.5 9q85 0 135.5 -52t50.5 -149v-289h-88v60z"/>
<glyph glyph-name="aacute" horiz-adv-x="501" unicode="á" d="M199 555l74 160h100l-98 -160h-76zM211 56q39 0 73 17.5t59 44.5v89q-30 -2 -56 -4t-52 -5q-21 -2 -39.5 -7t-32 -13.5t-21 -22t-7.5 -32.5q0 -34 20 -50.5t56 -16.5zM345 60q-11 -13 -27 -25.5t-36.5 -22.5t-45 -16t-51.5 -6q-30 0 -55 9.5t-43 26.5t-28.5 42t-10.5 55 q0 66 46.5 100t124.5 39q32 2 63.5 3t60.5 1v21q0 61 -26 95.5t-86 34.5q-35 0 -66.5 -9t-60.5 -25l-21 66q38 23 77.5 32t86.5 9q85 0 135.5 -52t50.5 -149v-289h-88v60z"/>
<glyph glyph-name="acircumflex" horiz-adv-x="501" unicode="â" d="M403 555h-80l-70 110l-70 -110h-80l107 160h86zM211 56q39 0 73 17.5t59 44.5v89q-30 -2 -56 -4t-52 -5q-21 -2 -39.5 -7t-32 -13.5t-21 -22t-7.5 -32.5q0 -34 20 -50.5t56 -16.5zM345 60q-11 -13 -27 -25.5t-36.5 -22.5t-45 -16t-51.5 -6q-30 0 -55 9.5t-43 26.5 t-28.5 42t-10.5 55q0 66 46.5 100t124.5 39q32 2 63.5 3t60.5 1v21q0 61 -26 95.5t-86 34.5q-35 0 -66.5 -9t-60.5 -25l-21 66q38 23 77.5 32t86.5 9q85 0 135.5 -52t50.5 -149v-289h-88v60z"/>
<glyph glyph-name="atilde" horiz-adv-x="501" unicode="ã" d="M327 567q-20 0 -43 10.5t-37 17.5t-27.5 13t-25.5 6q-19 0 -28 -12.5t-20 -38.5l-54 22q13 49 35.5 73t66.5 24q20 0 37 -6.5t34 -15.5q17 -8 32 -16.5t29 -8.5q18 0 27.5 14t17.5 32l53 -25q-17 -42 -39.5 -65.5t-57.5 -23.5zM211 56q39 0 73 17.5t59 44.5v89 q-30 -2 -56 -4t-52 -5q-21 -2 -39.5 -7t-32 -13.5t-21 -22t-7.5 -32.5q0 -34 20 -50.5t56 -16.5zM345 60q-11 -13 -27 -25.5t-36.5 -22.5t-45 -16t-51.5 -6q-30 0 -55 9.5t-43 26.5t-28.5 42t-10.5 55q0 66 46.5 100t124.5 39q32 2 63.5 3t60.5 1v21q0 61 -26 95.5t-86 34.5 q-35 0 -66.5 -9t-60.5 -25l-21 66q38 23 77.5 32t86.5 9q85 0 135.5 -52t50.5 -149v-289h-88v60z"/>
<glyph glyph-name="adieresis" horiz-adv-x="501" unicode="ä" d="M399 632q0 -23 -15 -38.5t-39 -15.5t-39 15.5t-15 38.5t15 38.5t39 15.5t39 -15.5t15 -38.5zM218 632q0 -23 -15 -38.5t-39 -15.5t-39 15.5t-15 38.5t15 38.5t39 15.5t39 -15.5t15 -38.5zM211 56q39 0 73 17.5t59 44.5v89q-30 -2 -56 -4t-52 -5q-21 -2 -39.5 -7 t-32 -13.5t-21 -22t-7.5 -32.5q0 -34 20 -50.5t56 -16.5zM345 60q-11 -13 -27 -25.5t-36.5 -22.5t-45 -16t-51.5 -6q-30 0 -55 9.5t-43 26.5t-28.5 42t-10.5 55q0 66 46.5 100t124.5 39q32 2 63.5 3t60.5 1v21q0 61 -26 95.5t-86 34.5q-35 0 -66.5 -9t-60.5 -25l-21 66 q38 23 77.5 32t86.5 9q85 0 135.5 -52t50.5 -149v-289h-88v60z"/>
<glyph glyph-name="aring" horiz-adv-x="501" unicode="å" d="M294 635q0 18 -10.5 31t-30.5 13t-30.5 -13t-10.5 -31t10.5 -30.5t30.5 -12.5t30.5 12.5t10.5 30.5zM253 719q22 0 38.5 -7t27.5 -19t16.5 -27t5.5 -31q0 -32 -22 -57.5t-66 -25.5t-66 25.5t-22 57.5q0 16 5.5 31t16.5 27t27.5 19t38.5 7zM211 56q39 0 73 17.5t59 44.5 v89q-30 -2 -56 -4t-52 -5q-21 -2 -39.5 -7t-32 -13.5t-21 -22t-7.5 -32.5q0 -34 20 -50.5t56 -16.5zM345 60q-11 -13 -27 -25.5t-36.5 -22.5t-45 -16t-51.5 -6q-30 0 -55 9.5t-43 26.5t-28.5 42t-10.5 55q0 66 46.5 100t124.5 39q32 2 63.5 3t60.5 1v21q0 61 -26 95.5 t-86 34.5q-35 0 -66.5 -9t-60.5 -25l-21 66q38 23 77.5 32t86.5 9q85 0 135.5 -52t50.5 -149v-289h-88v60z"/>
<glyph glyph-name="ae" horiz-adv-x="800" unicode="æ" d="M565 423q-59 0 -90.5 -40t-34.5 -102h226q1 7 1.5 13.5t0.5 13.5q0 52 -26 83.5t-77 31.5zM224 56q47 0 84 17t64 42q-10 21 -15.5 44.5t-7.5 49.5q-27 -1 -57.5 -2t-59.5 -3q-40 -3 -66 -21t-26 -56t23 -54.5t61 -16.5zM567 490q46 0 81 -15.5t58.5 -42t35.5 -62.5 t12 -77q0 -37 -11 -81h-303q2 -69 37.5 -110t114.5 -41q39 0 73.5 8.5t66.5 23.5l17 -66q-30 -16 -72 -26.5t-92 -10.5q-61 0 -106.5 20.5t-74.5 55.5q-39 -34 -88.5 -55t-109.5 -21q-34 0 -61.5 10t-47.5 27.5t-31 42t-11 53.5q0 72 44 107t122 41q29 2 63 3t64 2v21 q0 60 -29 90t-83 30q-35 0 -64.5 -9t-59.5 -24l-18 68q30 17 69.5 27.5t82.5 10.5q58 0 96 -20t62 -58q28 36 68.5 57t94.5 21z"/>
<glyph glyph-name="ccedilla" horiz-adv-x="446" unicode="ç" d="M349 -119q0 -23 -11 -39.5t-30 -28t-45.5 -18.5t-57.5 -11l-13 54q13 2 26.5 5t24.5 8t18.5 12t7.5 17t-7 17t-18 11.5t-25 7.5l-28 6l30 73q-47 9 -81.5 31.5t-57.5 55.5t-34.5 73.5t-11.5 84.5q0 50 15 95.5t45 80t75 54.5t105 20q40 0 75 -7t60 -19l-13 -69 q-26 11 -55.5 17t-58.5 6q-81 0 -119.5 -49.5t-38.5 -128.5t38.5 -128.5t119.5 -49.5q29 0 58.5 6t55.5 17l13 -69q-25 -12 -63 -19t-72 -7l-12 -34q14 -3 29 -8.5t27.5 -14t20.5 -21.5t8 -31z"/>
<glyph glyph-name="egrave" horiz-adv-x="484" unicode="è" d="M221 555l-98 160h100l74 -160h-76zM257 423q-29 0 -51 -11t-38 -30t-25 -44.5t-11 -53.5h226q1 12 1 24q0 15 -3 35t-15 39t-33 30t-51 11zM260 490q46 0 80.5 -15t58 -41t35 -61.5t11.5 -76.5t-10 -81h-303q1 -35 10 -63t27.5 -48.5t48 -31.5t71.5 -11q39 0 73.5 8 t63.5 20l12 -67q-32 -15 -74.5 -23.5t-87.5 -8.5q-60 0 -104.5 19.5t-73.5 53t-43.5 78.5t-14.5 97t15 98t43.5 80.5t69.5 54t92 19.5z"/>
<glyph glyph-name="eacute" horiz-adv-x="484" unicode="é" d="M207 555l74 160h100l-98 -160h-76zM257 423q-29 0 -51 -11t-38 -30t-25 -44.5t-11 -53.5h226q1 12 1 24q0 15 -3 35t-15 39t-33 30t-51 11zM260 490q46 0 80.5 -15t58 -41t35 -61.5t11.5 -76.5t-10 -81h-303q1 -35 10 -63t27.5 -48.5t48 -31.5t71.5 -11q39 0 73.5 8 t63.5 20l12 -67q-32 -15 -74.5 -23.5t-87.5 -8.5q-60 0 -104.5 19.5t-73.5 53t-43.5 78.5t-14.5 97t15 98t43.5 80.5t69.5 54t92 19.5z"/>
<glyph glyph-name="ecircumflex" horiz-adv-x="484" unicode="ê" d="M408 555h-80l-70 110l-70 -110h-80l107 160h86zM257 423q-29 0 -51 -11t-38 -30t-25 -44.5t-11 -53.5h226q1 12 1 24q0 15 -3 35t-15 39t-33 30t-51 11zM260 490q46 0 80.5 -15t58 -41t35 -61.5t11.5 -76.5t-10 -81h-303q1 -35 10 -63t27.5 -48.5t48 -31.5t71.5 -11 q39 0 73.5 8t63.5 20l12 -67q-32 -15 -74.5 -23.5t-87.5 -8.5q-60 0 -104.5 19.5t-73.5 53t-43.5 78.5t-14.5 97t15 98t43.5 80.5t69.5 54t92 19.5z"/>
<glyph glyph-name="edieresis" horiz-adv-x="484" unicode="ë" d="M405 632q0 -23 -15 -38.5t-39 -15.5t-39 15.5t-15 38.5t15 38.5t39 15.5t39 -15.5t15 -38.5zM224 632q0 -23 -15 -38.5t-39 -15.5t-39 15.5t-15 38.5t15 38.5t39 15.5t39 -15.5t15 -38.5zM257 423q-29 0 -51 -11t-38 -30t-25 -44.5t-11 -53.5h226q1 12 1 24q0 15 -3 35 t-15 39t-33 30t-51 11zM260 490q46 0 80.5 -15t58 -41t35 -61.5t11.5 -76.5t-10 -81h-303q1 -35 10 -63t27.5 -48.5t48 -31.5t71.5 -11q39 0 73.5 8t63.5 20l12 -67q-32 -15 -74.5 -23.5t-87.5 -8.5q-60 0 -104.5 19.5t-73.5 53t-43.5 78.5t-14.5 97t15 98t43.5 80.5 t69.5 54t92 19.5z"/>
<glyph glyph-name="igrave" horiz-adv-x="240" unicode="ì" d="M83 555l-98 160h100l74 -160h-76zM75 0v480h90v-480h-90z"/>
<glyph glyph-name="iacute" horiz-adv-x="240" unicode="í" d="M83 555l74 160h100l-98 -160h-76zM75 0v480h90v-480h-90z"/>
<glyph glyph-name="icircumflex" horiz-adv-x="240" unicode="î" d="M270 555h-80l-70 110l-70 -110h-80l107 160h86zM75 0v480h90v-480h-90z"/>
<glyph glyph-name="idieresis" horiz-adv-x="240" unicode="ï" d="M265 632q0 -23 -15 -38.5t-39 -15.5t-39 15.5t-15 38.5t15 38.5t39 15.5t39 -15.5t15 -38.5zM84 632q0 -23 -15 -38.5t-39 -15.5t-39 15.5t-15 38.5t15 38.5t39 15.5t39 -15.5t15 -38.5zM75 0v480h90v-480h-90z"/>
<glyph glyph-name="eth" horiz-adv-x="547" unicode="ð" d="M131 227q0 -74 35 -120.5t103 -46.5q40 0 68 19.5t45 49.5t25 66t8 68v81q-26 19 -60 32t-74 13q-72 0 -111 -42t-39 -120zM245 605q-32 15 -69 25.5t-76 18.5l17 67q53 -6 101.5 -21t92.5 -39l83 64l35 -45l-68 -52q66 -51 104.5 -127.5t38.5 -182.5q0 -70 -15 -129 t-44.5 -102t-73.5 -67.5t-103 -24.5q-58 0 -100.5 20t-70 53t-41 76t-13.5 90q0 56 16.5 99t45.5 72t68 44t85 15q47 0 84.5 -11.5t67.5 -31.5q-14 54 -42.5 92.5t-68.5 66.5l-97 -75l-36 45z"/>
<glyph glyph-name="ntilde" horiz-adv-x="554" unicode="ñ" d="M349 567q-20 0 -43 10.5t-37 17.5t-27.5 13t-25.5 6q-19 0 -28 -12.5t-20 -38.5l-54 22q13 49 35.5 73t66.5 24q20 0 37 -6.5t34 -15.5q17 -8 32 -16.5t29 -8.5q18 0 27.5 14t17.5 32l53 -25q-17 -42 -39.5 -65.5t-57.5 -23.5zM75 0v480h86v-70q27 38 65 59t88 21 q45 0 77 -19t53 -51.5t30.5 -75.5t9.5 -91v-253h-90v250q0 37 -6 67.5t-19 52.5t-34 34.5t-51 12.5q-40 0 -70.5 -21t-48.5 -44v-352h-90z"/>
<glyph glyph-name="ograve" horiz-adv-x="546" unicode="ò" d="M233 555l-98 160h100l74 -160h-76zM416 240q0 37 -9 70t-26.5 57.5t-44.5 38.5t-63 14t-63 -14t-44.5 -38.5t-26.5 -57.5t-9 -70q0 -38 9 -70.5t26.5 -57t44.5 -38.5t63 -14t63 14t44.5 38.5t26.5 57t9 70.5zM506 240q0 -51 -15.5 -96t-45.5 -79.5t-73.5 -54.5t-98.5 -20 q-56 0 -99 20t-73 54.5t-45.5 79.5t-15.5 96t15.5 96t45.5 79.5t73 54.5t99 20q55 0 98.5 -20t73.5 -54.5t45.5 -79.5t15.5 -96z"/>
<glyph glyph-name="oacute" horiz-adv-x="546" unicode="ó" d="M234 555l74 160h100l-98 -160h-76zM416 240q0 37 -9 70t-26.5 57.5t-44.5 38.5t-63 14t-63 -14t-44.5 -38.5t-26.5 -57.5t-9 -70q0 -38 9 -70.5t26.5 -57t44.5 -38.5t63 -14t63 14t44.5 38.5t26.5 57t9 70.5zM506 240q0 -51 -15.5 -96t-45.5 -79.5t-73.5 -54.5t-98.5 -20 q-56 0 -99 20t-73 54.5t-45.5 79.5t-15.5 96t15.5 96t45.5 79.5t73 54.5t99 20q55 0 98.5 -20t73.5 -54.5t45.5 -79.5t15.5 -96z"/>
<glyph glyph-name="ocircumflex" horiz-adv-x="546" unicode="ô" d="M423 555h-80l-70 110l-70 -110h-80l107 160h86zM416 240q0 37 -9 70t-26.5 57.5t-44.5 38.5t-63 14t-63 -14t-44.5 -38.5t-26.5 -57.5t-9 -70q0 -38 9 -70.5t26.5 -57t44.5 -38.5t63 -14t63 14t44.5 38.5t26.5 57t9 70.5zM506 240q0 -51 -15.5 -96t-45.5 -79.5 t-73.5 -54.5t-98.5 -20q-56 0 -99 20t-73 54.5t-45.5 79.5t-15.5 96t15.5 96t45.5 79.5t73 54.5t99 20q55 0 98.5 -20t73.5 -54.5t45.5 -79.5t15.5 -96z"/>
<glyph glyph-name="otilde" horiz-adv-x="546" unicode="õ" d="M347 567q-20 0 -43 10.5t-37 17.5t-27.5 13t-25.5 6q-19 0 -28 -12.5t-20 -38.5l-54 22q13 49 35.5 73t66.5 24q20 0 37 -6.5t34 -15.5q17 -8 32 -16.5t29 -8.5q18 0 27.5 14t17.5 32l53 -25q-17 -42 -39.5 -65.5t-57.5 -23.5zM416 240q0 37 -9 70t-26.5 57.5t-44.5 38.5 t-63 14t-63 -14t-44.5 -38.5t-26.5 -57.5t-9 -70q0 -38 9 -70.5t26.5 -57t44.5 -38.5t63 -14t63 14t44.5 38.5t26.5 57t9 70.5zM506 240q0 -51 -15.5 -96t-45.5 -79.5t-73.5 -54.5t-98.5 -20q-56 0 -99 20t-73 54.5t-45.5 79.5t-15.5 96t15.5 96t45.5 79.5t73 54.5t99 20 q55 0 98.5 -20t73.5 -54.5t45.5 -79.5t15.5 -96z"/>
<glyph glyph-name="odieresis" horiz-adv-x="546" unicode="ö" d="M417 632q0 -23 -15 -38.5t-39 -15.5t-39 15.5t-15 38.5t15 38.5t39 15.5t39 -15.5t15 -38.5zM236 632q0 -23 -15 -38.5t-39 -15.5t-39 15.5t-15 38.5t15 38.5t39 15.5t39 -15.5t15 -38.5zM416 240q0 37 -9 70t-26.5 57.5t-44.5 38.5t-63 14t-63 -14t-44.5 -38.5 t-26.5 -57.5t-9 -70q0 -38 9 -70.5t26.5 -57t44.5 -38.5t63 -14t63 14t44.5 38.5t26.5 57t9 70.5zM506 240q0 -51 -15.5 -96t-45.5 -79.5t-73.5 -54.5t-98.5 -20q-56 0 -99 20t-73 54.5t-45.5 79.5t-15.5 96t15.5 96t45.5 79.5t73 54.5t99 20q55 0 98.5 -20t73.5 -54.5 t45.5 -79.5t15.5 -96z"/>
<glyph glyph-name="divide" horiz-adv-x="612" unicode="÷" d="M249 136q0 23 15.5 40t41.5 17t41.5 -17t15.5 -40t-15.5 -40t-41.5 -17t-41.5 17t-15.5 40zM249 510q0 23 15.5 40t41.5 17t41.5 -17t15.5 -40t-15.5 -40t-41.5 -17t-41.5 17t-15.5 40zM75 289v68h462v-68h-462z"/>
<glyph glyph-name="oslash" horiz-adv-x="556" unicode="ø" d="M135 240q0 -67 27 -113l196 266q-17 11 -36.5 17.5t-43.5 6.5q-36 0 -62.5 -13.5t-44.5 -37.5t-27 -56.5t-9 -69.5zM421 240q0 66 -27 113l-197 -266q17 -11 36.5 -17.5t44.5 -6.5q36 0 62.5 13.5t44.5 37.5t27 56t9 70zM111 58q-32 35 -49 81.5t-17 100.5q0 51 15.5 96 t45.5 79.5t73 54.5t99 20q71 0 126 -35l64 87l43 -31l-66 -90q32 -35 49 -81.5t17 -99.5q0 -51 -15.5 -96t-45.5 -79.5t-73.5 -54.5t-98.5 -20q-38 0 -69.5 9t-57.5 26l-64 -87l-42 31z"/>
<glyph glyph-name="ugrave" horiz-adv-x="545" unicode="ù" d="M258 555l-98 160h100l74 -160h-76zM470 480v-480h-86v70q-26 -35 -64.5 -57.5t-88.5 -22.5q-45 0 -76.5 19t-51.5 51.5t-29 75.5t-9 91v253h90v-250q0 -37 5 -67.5t17 -52.5t32.5 -34.5t51.5 -12.5q40 0 70 21t49 44v352h90z"/>
<glyph glyph-name="uacute" horiz-adv-x="545" unicode="ú" d="M225 555l74 160h100l-98 -160h-76zM470 480v-480h-86v70q-26 -35 -64.5 -57.5t-88.5 -22.5q-45 0 -76.5 19t-51.5 51.5t-29 75.5t-9 91v253h90v-250q0 -37 5 -67.5t17 -52.5t32.5 -34.5t51.5 -12.5q40 0 70 21t49 44v352h90z"/>
<glyph glyph-name="ucircumflex" horiz-adv-x="545" unicode="û" d="M422 555h-80l-70 110l-70 -110h-80l107 160h86zM470 480v-480h-86v70q-26 -35 -64.5 -57.5t-88.5 -22.5q-45 0 -76.5 19t-51.5 51.5t-29 75.5t-9 91v253h90v-250q0 -37 5 -67.5t17 -52.5t32.5 -34.5t51.5 -12.5q40 0 70 21t49 44v352h90z"/>
<glyph glyph-name="udieresis" horiz-adv-x="545" unicode="ü" d="M417 632q0 -23 -15 -38.5t-39 -15.5t-39 15.5t-15 38.5t15 38.5t39 15.5t39 -15.5t15 -38.5zM236 632q0 -23 -15 -38.5t-39 -15.5t-39 15.5t-15 38.5t15 38.5t39 15.5t39 -15.5t15 -38.5zM470 480v-480h-86v70q-26 -35 -64.5 -57.5t-88.5 -22.5q-45 0 -76.5 19 t-51.5 51.5t-29 75.5t-9 91v253h90v-250q0 -37 5 -67.5t17 -52.5t32.5 -34.5t51.5 -12.5q40 0 70 21t49 44v352h90z"/>
<glyph glyph-name="yacute" horiz-adv-x="460" unicode="ý" d="M182 555l74 160h100l-98 -160h-76zM117 -206l71 201l-176 485h93l126 -393l124 393h93l-243 -686h-88z"/>
<glyph glyph-name="thorn" horiz-adv-x="546" unicode="þ" d="M290 417q-42 0 -74 -20.5t-51 -44.5v-277q17 -7 39 -10t46 -3q75 0 119.5 47t44.5 135q0 37 -7.5 69t-23 55t-39 36t-54.5 13zM75 706h90v-288q23 30 58 51t90 21q43 0 78 -18t60 -51t39 -78t14 -99q0 -60 -18.5 -107.5t-51.5 -80t-77.5 -49.5t-96.5 -17q-29 0 -51.5 3.5 t-43.5 9.5v-209h-90v912z"/>
<glyph glyph-name="OE" horiz-adv-x="953" unicode="Œ" d="M521 588q-24 6 -59 10.5t-68 4.5q-130 0 -193.5 -71.5t-63.5 -198.5t63.5 -198.5t193.5 -71.5q33 0 68 4.5t59 10.5v510zM385 678q35 0 70 -3t66 -9h371v-75h-279v-213h267v-75h-267v-228h282v-75h-374q-35 -6 -68 -9t-68 -3q-87 0 -151 28t-106 75t-62.5 110t-20.5 132 t20.5 132t62.5 110t106 75t151 28z"/>
<glyph glyph-name="oe" horiz-adv-x="860" unicode="œ" d="M632 423q-27 0 -49 -11t-38 -29.5t-25.5 -44t-11.5 -54.5h226q1 7 1.5 14t0.5 13q0 47 -25.5 79.5t-78.5 32.5zM416 240q0 37 -9 69.5t-27 56.5t-44.5 37.5t-62.5 13.5t-62.5 -13.5t-44.5 -37.5t-27 -56.5t-9 -69.5q0 -38 9 -70t27 -56t44.5 -37.5t62.5 -13.5t62.5 13.5 t44.5 37.5t27 56t9 70zM635 490q46 0 81 -15t58.5 -41t35.5 -61.5t12 -76.5q0 -37 -11 -81h-303q1 -34 10 -62.5t27.5 -48.5t47.5 -31.5t70 -11.5q39 0 71.5 7t67.5 21l12 -67q-33 -15 -72 -23.5t-89 -8.5q-68 0 -121 29.5t-76 77.5q-26 -46 -75 -76.5t-112 -30.5 q-56 0 -98.5 20t-71.5 54.5t-44 79.5t-15 96t15.5 96t45.5 79.5t73 54.5t99 20q63 0 110.5 -28t77.5 -78q21 42 65 74t109 32z"/>
<glyph glyph-name="Scaron" horiz-adv-x="501" unicode="Š" d="M298 729h-94l-92 114h80l59 -75l59 75h80zM464 173q0 -43 -18.5 -77t-50 -58t-74 -37t-91.5 -13q-48 0 -98.5 10t-92.5 30l18 73q37 -17 81.5 -28t89.5 -11q65 0 105 27.5t40 79.5q0 29 -11.5 49.5t-31.5 37t-46.5 29.5t-56.5 27q-34 16 -65.5 33.5t-55.5 40t-38.5 51 t-14.5 66.5q0 43 15.5 76t43.5 55t67 33t86 11q48 0 93.5 -11t79.5 -29l-17 -73q-32 17 -73 28t-83 11q-121 0 -121 -94q0 -21 6 -36.5t19.5 -29t36 -26t54.5 -28.5t68 -34.5t66 -44t50 -59.5t20 -79z"/>
<glyph glyph-name="scaron" horiz-adv-x="418" unicode="š" d="M255 555h-86l-107 160h80l70 -110l70 110h80zM383 137q0 -34 -14.5 -61t-40 -46t-60.5 -29.5t-76 -10.5q-18 0 -38 2t-40 6t-38.5 9.5t-31.5 11.5l15 71q26 -11 59.5 -20t74.5 -9q43 0 72.5 15.5t29.5 49.5q0 16 -8 28.5t-21 22t-30.5 17.5t-36.5 16q-26 10 -52 22.5 t-47.5 30t-35 40.5t-13.5 55q0 35 14.5 60t38 41t54.5 23.5t64 7.5q38 0 74 -8.5t65 -23.5l-15 -68q-29 14 -60.5 21.5t-63.5 7.5q-35 0 -59 -12t-24 -44q0 -15 8.5 -25.5t22 -19t29.5 -15.5t30 -14q13 -6 39 -17t51.5 -28.5t44.5 -43.5t19 -63z"/>
<glyph glyph-name="Ydieresis" horiz-adv-x="540" unicode="Ÿ" d="M421 789q0 -23 -14.5 -37t-38.5 -14t-38.5 14t-14.5 37t14.5 37t38.5 14t38.5 -14t14.5 -37zM224 789q0 -23 -14.5 -37t-38.5 -14t-38.5 14t-14.5 37t14.5 37t38.5 14t38.5 -14t14.5 -37zM437 666h98l-219 -403v-263h-92v263l-219 403h98l167 -318z"/>
<glyph glyph-name="circumflex" horiz-adv-x="530" unicode="ˆ" d="M415 555h-80l-70 110l-70 -110h-80l107 160h86z"/>
<glyph glyph-name="tilde" horiz-adv-x="562" unicode="˜" d="M350 567q-20 0 -43 10.5t-37 17.5t-27.5 13t-25.5 6q-19 0 -28 -12.5t-20 -38.5l-54 22q13 49 35.5 73t66.5 24q20 0 37 -6.5t34 -15.5q17 -8 32 -16.5t29 -8.5q18 0 27.5 14t17.5 32l53 -25q-17 -42 -39.5 -65.5t-57.5 -23.5z"/>
<glyph glyph-name="u0391" horiz-adv-x="676" unicode="Α" d="M210 235h256l-128 347zM648 0h-94l-61 161h-311l-60 -161h-94l265 666h90z"/>
<glyph glyph-name="u0392" horiz-adv-x="569" unicode="Β" d="M253 379q34 0 63.5 8t51 23t33.5 36t12 48q0 50 -37.5 75t-97.5 25h-110v-215h85zM438 189q0 30 -14 52.5t-38 37t-56 21.5t-68 7h-94v-235h106q75 0 119.5 29.5t44.5 87.5zM526 186q0 -41 -18.5 -75.5t-52.5 -59t-81.5 -38t-105.5 -13.5h-188v666h206q48 0 88 -11.5 t68.5 -33t44 -51.5t15.5 -66q0 -58 -38.5 -97.5t-98.5 -59.5q74 -14 117.5 -54.5t43.5 -106.5z"/>
<glyph glyph-name="u0393" horiz-adv-x="470" unicode="Γ" d="M80 0v666h365v-75h-273v-591h-92z"/>
<glyph glyph-name="u0394" horiz-adv-x="676" unicode="Δ" d="M148 74h381l-192 504zM648 0h-620l265 666h90z"/>
<glyph glyph-name="u0395" horiz-adv-x="510" unicode="Ε" d="M80 666h371v-75h-279v-213h267v-75h-267v-228h282v-75h-374v666z"/>
<glyph glyph-name="u0396" horiz-adv-x="540" unicode="Ζ" d="M63 666h430v-74l-345 -518h352v-74h-450v74l345 518h-332v74z"/>
<glyph glyph-name="u0397" horiz-adv-x="685" unicode="Η" d="M513 0v299h-341v-299h-92v666h92v-289h341v289h92v-666h-92z"/>
<glyph glyph-name="u0398" d="M248 295v75h244v-75h-244zM370 62q57 0 101 21t73 58t44 86.5t15 105.5t-15 105.5t-44 86t-73 58t-101 21.5t-101 -21.5t-73 -58t-44 -86t-15 -105.5t15 -105.5t44 -86.5t73 -58t101 -21zM370 -12q-78 0 -139 28t-102 75t-62.5 110t-21.5 132t21.5 132t62.5 110t102 75 t139 28t139 -28t102 -75t62.5 -110t21.5 -132t-21.5 -132t-62.5 -110t-102 -75t-139 -28z" unicode="Θ"/>
<glyph glyph-name="u0399" horiz-adv-x="262" unicode="Ι" d="M177 0h-92v666h92v-666z"/>
<glyph glyph-name="u039A" horiz-adv-x="585" unicode="Κ" d="M80 0v666h92v-323l278 323h111l-287 -330l306 -336h-116l-292 330v-330h-92z"/>
<glyph glyph-name="u039B" horiz-adv-x="644" unicode="Λ" d="M116 0h-94l255 666h90l255 -666h-94l-206 582z"/>
<glyph glyph-name="u039C" horiz-adv-x="846" unicode="Μ" d="M651 666h83l48 -666h-88l-32 519l-192 -399h-94l-192 399l-32 -519h-88l48 666h83l228 -471z"/>
<glyph glyph-name="u039D" horiz-adv-x="709" unicode="Ν" d="M541 0l-373 523v-523h-88v666h88l373 -523v523h88v-666h-88z"/>
<glyph glyph-name="u039E" horiz-adv-x="510" unicode="Ξ" d="M122 377h266v-75h-266v75zM39 666h432v-75h-432v75zM28 75h456v-75h-456v75z"/>
<glyph glyph-name="u039F" d="M370 62q57 0 101 21t73 58t44 86.5t15 105.5t-15 105.5t-44 86t-73 58t-101 21.5t-101 -21.5t-73 -58t-44 -86t-15 -105.5t15 -105.5t44 -86.5t73 -58t101 -21zM370 -12q-78 0 -139 28t-102 75t-62.5 110t-21.5 132t21.5 132t62.5 110t102 75t139 28t139 -28t102 -75 t62.5 -110t21.5 -132t-21.5 -132t-62.5 -110t-102 -75t-139 -28z" unicode="Ο"/>
<glyph glyph-name="u03A0" horiz-adv-x="675" unicode="Π" d="M503 0v591h-331v-591h-92v666h515v-666h-92z"/>
<glyph glyph-name="u03A1" horiz-adv-x="508" unicode="Ρ" d="M404 472q0 33 -13 55.5t-35.5 37t-53 21t-64.5 6.5h-66v-255h49q40 0 73.5 9t58 26.5t38 42.5t13.5 57zM496 471q0 -48 -21 -86.5t-58.5 -65.5t-88.5 -41.5t-110 -14.5h-46v-263h-92v666h161q54 0 100.5 -12t81 -36.5t54 -61t19.5 -85.5z"/>
<glyph glyph-name="u03A3" horiz-adv-x="540" unicode="Σ" d="M152 74h348v-74h-450v74l206 271l-196 247v74h430v-74h-328l193 -240z"/>
<glyph glyph-name="u03A4" horiz-adv-x="528" unicode="Τ" d="M506 666v-75h-196v-591h-92v591h-196v75h484z"/>
<glyph glyph-name="u03A5" horiz-adv-x="540" unicode="Υ" d="M437 666h98l-219 -403v-263h-92v263l-219 403h98l167 -318z"/>
<glyph glyph-name="u03A6" horiz-adv-x="781" unicode="Φ" d="M644 333q0 50 -16 89t-44 66.5t-66 42.5t-81 18v-433q43 3 81 18.5t66 42.5t44 66t16 90zM138 333q0 -51 16.5 -90t45 -66t66 -42.5t79.5 -18.5v433q-45 -2 -83 -17t-65.5 -43t-43 -67t-15.5 -89zM437 -6h-92v50q-68 6 -123.5 27.5t-94.5 58.5t-60 88t-21 115t21 115 t60 88t94.5 58.5t123.5 27.5v50h92v-50q68 -6 123 -27.5t94 -58.5t60.5 -88t21.5 -115t-21.5 -115t-60.5 -88t-94 -58.5t-123 -27.5v-50z"/>
<glyph glyph-name="u03A7" horiz-adv-x="596" unicode="Χ" d="M298 263l-173 -263h-97l222 335l-219 331h97l170 -258l170 258h97l-219 -331l222 -335h-97z"/>
<glyph glyph-name="u03A8" horiz-adv-x="762" unicode="Ψ" d="M426 0h-92v206q-60 1 -109.5 15.5t-85.5 44t-55.5 76t-19.5 112.5v212h92v-197q0 -51 11 -86t33 -57t55.5 -32.5t78.5 -13.5v386h92v-386q45 3 78.5 13.5t55.5 32.5t33 57t11 86v197h92v-212q0 -66 -19.5 -112.5t-55.5 -76t-85.5 -44t-109.5 -15.5v-206z"/>
<glyph glyph-name="u03B1" horiz-adv-x="594" unicode="α" d="M130 235q0 -37 9.5 -69t27 -55.5t43 -37t58.5 -13.5q34 0 61 18.5t46.5 47t30 62.5t11.5 64q-6 35 -18 65.5t-30 53.5t-43 36.5t-58 13.5q-66 0 -102 -48t-36 -138zM516 479q-2 -19 -4.5 -45t-5 -56t-5 -62t-5.5 -64q1 -62 7.5 -100t16 -59t21.5 -29t25 -8l-12 -63 q-5 -2 -13.5 -3t-16.5 -1q-32 0 -59.5 30.5t-33.5 86.5q-34 -64 -77.5 -90t-107.5 -26q-42 0 -79 15.5t-65.5 46t-45 75.5t-16.5 105q0 69 18 118t48 80t69 45.5t81 14.5q26 0 51 -4.5t47.5 -15.5t41.5 -29.5t33 -46.5q2 28 4 48t5 37h78z"/>
<glyph glyph-name="u03B2" horiz-adv-x="560" unicode="β" d="M165 105q17 -20 45 -34t76 -14q56 0 89 34t33 94q0 64 -40 94.5t-107 30.5h-42v64q73 0 111 28t38 88q0 54 -27 86t-75 32q-53 0 -77 -29t-24 -87v-387zM75 -206v638q0 129 48.5 187.5t154.5 58.5q39 0 71 -12.5t54.5 -35.5t34.5 -55t12 -71q0 -29 -8 -52t-21 -40.5 t-30 -30t-34 -20.5v-5q28 -6 53.5 -17.5t44.5 -31.5t30 -49.5t11 -71.5q0 -50 -16 -87t-43.5 -61t-63.5 -36t-76 -12q-51 0 -81.5 9.5t-50.5 24.5v-230h-90z"/>
<glyph glyph-name="u03B3" horiz-adv-x="467" unicode="γ" d="M184 -205v208l-171 477h93l135 -392q16 30 36.5 73t38.5 92t30 99t12 95v33h83q2 -6 2 -15v-18q0 -47 -13.5 -102.5t-37 -114t-54.5 -117.5t-66 -112v-207z"/>
<glyph glyph-name="u03B4" horiz-adv-x="540" unicode="δ" d="M278 392q-28 -7 -54.5 -22.5t-47.5 -38t-33.5 -53t-12.5 -67.5q0 -73 38.5 -112t97.5 -39q27 0 53 9.5t46.5 28.5t33 48t12.5 68q0 25 -4 48.5t-18 45.5t-40 43t-71 41zM459 561q-18 10 -39 19t-43.5 15.5t-44.5 10t-41 3.5q-42 0 -67.5 -11t-25.5 -37q0 -16 9 -28 t29 -25.5t51.5 -31t75.5 -43.5q40 -24 66.5 -47t42.5 -48t22.5 -52t6.5 -58q0 -52 -17 -96t-48 -75.5t-74.5 -49.5t-97.5 -18q-51 0 -92.5 17t-71 45.5t-45 66.5t-15.5 80q0 55 15 93t39.5 64.5t55.5 44t64 30.5q-31 20 -51 36.5t-31.5 32t-16 31.5t-4.5 35q0 48 41 80.5 t116 32.5q56 0 112 -11.5t94 -36.5z"/>
<glyph glyph-name="u03B5" horiz-adv-x="440" unicode="ε" d="M159 258q-48 11 -72 37.5t-24 61.5q0 63 50 98t134 35q41 0 78 -5.5t72 -20.5l-13 -69q-21 10 -56 16.5t-66 6.5q-49 0 -80 -15.5t-31 -54.5q0 -29 32 -47t85 -18h77v-70h-92q-25 0 -47.5 -2.5t-39 -10t-26 -21.5t-9.5 -36q0 -21 11.5 -36.5t31 -25t44.5 -14t52 -4.5 q40 0 71 4.5t60 17.5l13 -67q-12 -9 -33.5 -14.5t-46 -9t-49 -4.5t-42.5 -1q-36 0 -72.5 7.5t-66 25t-47.5 45.5t-18 69q0 45 33 77.5t87 40.5v4z"/>
<glyph glyph-name="u03B6" horiz-adv-x="450" unicode="ζ" d="M198 11q-35 12 -64 28.5t-50 40.5t-33 57t-12 78q0 58 19 107.5t53.5 94.5t82 88.5t104.5 90.5h-230v70h336v-68q-51 -42 -100.5 -86t-88.5 -88t-63 -88t-24 -87q0 -41 9.5 -70t26 -50t39.5 -34t49 -22q45 -15 79 -27.5t57 -27.5t34.5 -33.5t11.5 -44.5q0 -45 -26.5 -83 t-98.5 -70l-50 47q45 15 70 36.5t25 53.5q0 19 -17.5 33t-42 23.5t-51.5 17t-45 13.5z"/>
<glyph glyph-name="u03B7" horiz-adv-x="554" unicode="η" d="M75 0v480h86v-70q27 38 64.5 59t88.5 21q90 0 130 -58t40 -161v-477h-90v475q0 73 -25 110.5t-85 37.5q-40 0 -70.5 -21t-48.5 -44v-352h-90z"/>
<glyph glyph-name="u03B8" horiz-adv-x="530" unicode="θ" d="M267 612q-36 0 -61 -18t-41 -50t-24 -75.5t-10 -94.5h272q-2 51 -9.5 94.5t-23.5 75.5t-41 50t-62 18zM267 60q36 0 61.5 18t41.5 50.5t23.5 77t9.5 98.5h-273q2 -54 11 -98.5t26 -77t42 -50.5t58 -18zM493 333q0 -69 -12 -131t-39 -109.5t-70 -75t-105 -27.5 q-63 0 -106.5 27t-70 73.5t-38.5 109t-12 133.5q0 73 12 137t38.5 111t70 74t106.5 27t106 -27t70 -74t38.5 -111t11.5 -137z"/>
<glyph glyph-name="u03B9" horiz-adv-x="275" unicode="ι" d="M165 124q0 -29 11.5 -44.5t39.5 -15.5q22 0 45 6l4 -67q-35 -11 -73 -11q-63 0 -90 32t-27 96v360h90v-356z"/>
<glyph glyph-name="u03BA" horiz-adv-x="492" unicode="κ" d="M75 0v480h90v-227l192 227h104l-208 -227l225 -253h-109l-204 238v-238h-90z"/>
<glyph glyph-name="u03BB" horiz-adv-x="472" unicode="λ" d="M236 361l-138 -361h-91l186 463q-16 49 -31.5 78t-33 44.5t-38.5 20.5t-48 5l8 68q39 0 69.5 -6.5t56.5 -27t49.5 -59t48.5 -103.5l183 -483h-93z"/>
<glyph glyph-name="u03BC" horiz-adv-x="605" unicode="μ" d="M75 480h90v-250q0 -36 5.5 -67t18 -53t32.5 -34.5t49 -12.5q38 0 67.5 19t52.5 46v352h90v-350q0 -33 11 -53t51 -20h18v-54q-13 -5 -26 -7t-30 -2q-45 0 -71 22t-36 57q-27 -37 -63.5 -60t-85.5 -23q-40 0 -70 22t-43 54q12 -39 21 -80t9 -88v-104h-90v686z"/>
<glyph glyph-name="u03BD" horiz-adv-x="473" unicode="ν" d="M446 480q-2 -65 -17.5 -128.5t-39 -124t-52 -118t-55.5 -109.5h-94l-173 480h97l134 -390q50 84 81 183.5t37 206.5h82z"/>
<glyph glyph-name="u03BE" horiz-adv-x="453" unicode="ξ" d="M279 606q-58 0 -85.5 -28.5t-27.5 -70.5q0 -27 11.5 -47.5t31.5 -35t46.5 -22t56.5 -7.5h48v-70h-89q-27 0 -52.5 -7.5t-45.5 -22.5t-32 -38t-12 -55q0 -52 30 -80t92 -49q45 -15 79 -28t57 -27.5t34.5 -33t11.5 -44.5q0 -45 -26.5 -83t-98.5 -70l-50 47q45 15 70 36.5 t25 53.5q0 19 -17.5 33t-42 24t-51 17t-45.5 13q-33 10 -61.5 25t-50.5 37t-34.5 51t-12.5 67q0 39 12.5 67.5t33.5 49.5t49.5 35t60.5 23v5q-28 9 -49.5 21.5t-36.5 30.5t-22.5 42.5t-7.5 58.5q0 27 11.5 54.5t35.5 49.5t60.5 36t85.5 14q40 0 75 -7t60 -19l-13 -69 q-26 11 -55.5 17t-58.5 6z"/>
<glyph glyph-name="u03BF" horiz-adv-x="546" unicode="ο" d="M416 240q0 37 -9 70t-26.5 57.5t-44.5 38.5t-63 14t-63 -14t-44.5 -38.5t-26.5 -57.5t-9 -70q0 -38 9 -70.5t26.5 -57t44.5 -38.5t63 -14t63 14t44.5 38.5t26.5 57t9 70.5zM506 240q0 -51 -15.5 -96t-45.5 -79.5t-73.5 -54.5t-98.5 -20q-56 0 -99 20t-73 54.5t-45.5 79.5 t-15.5 96t15.5 96t45.5 79.5t73 54.5t99 20q55 0 98.5 -20t73.5 -54.5t45.5 -79.5t15.5 -96z"/>
<glyph glyph-name="u03C0" horiz-adv-x="654" unicode="π" d="M488 183q0 -55 14 -87t42 -32q22 0 45 6l4 -67q-35 -11 -73 -11q-63 0 -90 37t-27 114q0 20 1 51.5t2.5 67.5t4.5 74t6 72h-164v-33q0 -46 -3 -98.5t-9 -103t-14 -96t-18 -77.5h-92q12 37 21 82t15 94t8.5 100t2.5 101v31h-13q-36 0 -58 -9.5t-45 -32.5l-35 57 q19 22 52.5 39.5t92.5 17.5h465v-72h-122q-7 -79 -10 -134.5t-3 -90.5z"/>
<glyph glyph-name="u03C1" horiz-adv-x="544" unicode="ρ" d="M283 417q-36 0 -58.5 -13.5t-36 -35t-18.5 -49t-5 -55.5v-189q17 -7 39 -10t46 -3q75 0 119.5 48.5t44.5 146.5q0 33 -7.5 62t-23.5 51t-41 34.5t-59 12.5zM75 257q0 67 20.5 111.5t53 71.5t72 38.5t77.5 11.5q53 0 91.5 -18t64 -49.5t38 -74t12.5 -91.5 q0 -65 -18.5 -115t-51.5 -84t-77.5 -51t-96.5 -17q-29 0 -51.5 3.5t-43.5 9.5v-209h-90v463z"/>
<glyph glyph-name="u03C2" horiz-adv-x="453" unicode="ς" d="M276 490q40 0 75 -7t60 -19l-13 -69q-54 23 -114 23q-81 0 -119.5 -49.5t-38.5 -128.5q0 -39 7.5 -69.5t25.5 -52t48.5 -35.5t76.5 -21q76 -11 113 -37.5t37 -84.5q0 -47 -26.5 -84t-98.5 -69l-50 47q43 16 69 40t26 61q0 46 -78 55q-71 8 -117.5 29t-73.5 53.5t-38 75 t-11 92.5t15 95.5t45 80t75 54.5t105 20z"/>
<glyph glyph-name="u03C3" horiz-adv-x="576" unicode="σ" d="M273 60q63 0 99 47.5t36 138.5q0 25 -7 54t-24 53.5t-45.5 40.5t-72.5 16q-35 0 -59 -13.5t-40 -37t-23 -54.5t-7 -67q0 -39 8.5 -71.5t25.5 -56.5t44 -37t65 -13zM397 410q47 -22 74.5 -69t27.5 -119q0 -51 -17 -93.5t-48.5 -73.5t-75 -48t-95.5 -17q-47 0 -88 16.5 t-71 48t-47 77.5t-17 106q0 114 66 178t182 64h265v-70h-156z"/>
<glyph glyph-name="u03C4" horiz-adv-x="462" unicode="τ" d="M190 410h-39q-36 0 -58 -10.5t-45 -33.5l-35 57q19 22 53 39.5t93 17.5h281v-70h-160v-286q0 -29 11.5 -44.5t39.5 -15.5q22 0 45 6l4 -67q-35 -11 -73 -11q-63 0 -90 32t-27 96v290z"/>
<glyph glyph-name="u03C5" horiz-adv-x="534" unicode="υ" d="M445 480q6 -12 13 -31t13.5 -43t10.5 -52.5t4 -58.5q0 -53 -10 -107.5t-36 -98.5t-70 -71.5t-111 -27.5q-87 0 -135.5 47.5t-48.5 147.5v295h90v-311q0 -56 26 -82.5t68 -26.5q70 0 103.5 61.5t33.5 165.5q0 68 -12 118t-26 75h87z"/>
<glyph glyph-name="u03C6" horiz-adv-x="668" unicode="φ" d="M378 59q34 0 64.5 14t52.5 41t35 67t13 93q0 81 -29.5 113.5t-76.5 32.5q-32 0 -45.5 -29.5t-13.5 -74.5v-257zM40 260q0 39 7 72.5t19 61t27 49t31 37.5h96q-45 -35 -67.5 -96t-22.5 -128q0 -30 8 -63t26.5 -62t49 -48.5t74.5 -22.5v230q0 61 14.5 99.5t37.5 61t51.5 31 t55.5 8.5q53 0 88 -19.5t56 -52t29.5 -74t8.5 -84.5q0 -65 -22.5 -114t-58.5 -82.5t-80.5 -51t-89.5 -18.5v-200h-90v200q-50 1 -94.5 19t-79 51.5t-54.5 82.5t-20 113z"/>
<glyph glyph-name="u03C7" horiz-adv-x="473" unicode="χ" d="M112 480l125 -256l122 256h93l-172 -328l178 -357h-95l-131 277l-128 -277h-97l184 353l-176 332h97z"/>
<glyph glyph-name="u03C8" horiz-adv-x="715" unicode="ψ" d="M75 480h90v-232q0 -57 14 -92.5t37 -56t51 -28.5t57 -10v550h90v-550q38 2 69 15t53.5 40t34.5 69t12 101q0 76 -11.5 124.5t-22.5 69.5h89q7 -15 13.5 -36.5t11.5 -46.5t8.5 -52t3.5 -52q0 -133 -64 -212.5t-197 -86.5v-200h-90v200q-47 3 -91.5 14.5t-79.5 38.5 t-56.5 73.5t-21.5 120.5v239z"/>
<glyph glyph-name="u03D1" horiz-adv-x="551" unicode="ϑ" d="M258 612q-30 0 -48.5 -8t-28.5 -20.5t-13.5 -27.5t-3.5 -28q0 -12 4 -33t26.5 -41.5t70 -35t134.5 -14.5q-2 35 -10.5 72t-25 67t-42.5 49.5t-63 19.5zM62 321q52 -6 77.5 -38.5t38.5 -90.5q7 -30 14.5 -54.5t18.5 -41.5t26.5 -26.5t39.5 -9.5q66 0 94 66.5t28 207.5 q-97 1 -158 18t-95.5 44t-47 61.5t-12.5 70.5q0 28 8.5 56t29.5 49.5t57 35t90 13.5q55 0 95.5 -24.5t67.5 -63.5t40 -89t13 -101q19 -1 32 -3.5t23 -6t19.5 -9.5t20.5 -14l-31 -57q-9 7 -26 12t-38 6q-3 -71 -15 -133.5t-37.5 -109t-66.5 -73t-101 -26.5q-42 0 -71 14 t-48 36.5t-30.5 52t-18.5 59.5q-6 25 -11.5 42.5t-12.5 29t-15 18.5t-18 12z"/>
<glyph glyph-name="u03D2" horiz-adv-x="576" unicode="ϒ" d="M291 354q8 48 28.5 103t53.5 102t78.5 78.5t103.5 31.5l12 -75q-27 0 -55 -17.5t-54 -47t-49 -69t-39.5 -84t-26.5 -91.5t-10 -91v-194h-92v189q0 43 -10 90t-26.5 92t-39.5 85.5t-49 71t-54 48.5t-55 18l12 75q58 0 104 -31.5t79.5 -79t54.5 -102.5t29 -102h5z"/>
<glyph glyph-name="u03D6" horiz-adv-x="714" unicode="ϖ" d="M402 200q0 -39 6.5 -65.5t18 -42.5t26.5 -23t32 -7q20 0 37.5 8t31 27.5t21 52.5t7.5 84q0 24 -6 50.5t-16.5 50.5t-25 43.5t-30.5 28.5h-294q-15 -8 -29 -27t-25 -43.5t-17.5 -51.5t-6.5 -51q0 -51 8 -84t21.5 -52.5t31 -27.5t36.5 -8q17 0 32 7t26.5 23t18 42.5 t6.5 65.5v126h90v-126zM49 407v73h613v-73h-79q16 -14 32.5 -31t29.5 -41.5t21 -58.5t8 -80q0 -50 -16 -89t-42 -65t-59.5 -39.5t-67.5 -13.5q-51 0 -82 23t-48 62h-4q-17 -39 -55 -62t-83 -23q-32 0 -63.5 13t-56.5 39t-41 65t-16 90q0 41 8 75t21 60.5t28.5 45.5t30.5 30 h-79z"/>
<glyph glyph-name="u043A" horiz-adv-x="492" unicode="к" d="M75 0v480h90v-227l192 227h104l-208 -227l225 -253h-109l-204 238v-238h-90z"/>
<glyph glyph-name="endash" horiz-adv-x="519" unicode="–" d="M65 276v73h389v-73h-389z"/>
<glyph glyph-name="emdash" horiz-adv-x="769" unicode="—" d="M55 220v75h659v-75h-659z"/>
<glyph glyph-name="quoteleft" horiz-adv-x="243" unicode="‘" d="M203 677q-25 -54 -39 -107.5t-17 -115.5l-82 8q3 64 24.5 128.5t55.5 115.5z"/>
<glyph glyph-name="quotesinglbase" horiz-adv-x="248" unicode="‚" d="M40 -116q25 54 39 107.5t17 115.5l82 -8q-3 -64 -24.5 -128.5t-55.5 -115.5z"/>
<glyph glyph-name="quotedblleft" horiz-adv-x="432" unicode="“" d="M387 677q-25 -54 -39 -107.5t-17 -115.5l-82 8q3 64 24.5 128.5t55.5 115.5zM198 677q-25 -54 -39 -107.5t-17 -115.5l-82 8q3 64 24.5 128.5t55.5 115.5z"/>
<glyph glyph-name="quotedblright" horiz-adv-x="432" unicode="”" d="M55 483q25 54 39 107.5t17 115.5l82 -8q-3 -64 -24.5 -128.5t-55.5 -115.5zM244 483q25 54 39 107.5t17 115.5l82 -8q-3 -64 -24.5 -128.5t-55.5 -115.5z"/>
<glyph glyph-name="dagger" horiz-adv-x="462" unicode="†" d="M208 116l-22 289l19 105l-83 -17h-57v75h57l83 -18l-19 106v50h90v-50l-19 -106l83 18h57v-75h-57l-83 17l19 -105l-22 -289h-46z"/>
<glyph glyph-name="daggerdbl" horiz-adv-x="472" unicode="‡" d="M281 301l-19 -105l83 17h57v-75h-57l-83 18l19 -106v-50h-90v50l19 106l-83 -18h-57v75h57l83 -17l-19 105v104l19 105l-83 -17h-57v75h57l83 -18l-19 106v50h90v-50l-19 -106l83 18h57v-75h-57l-83 17l19 -105v-104z"/>
<glyph glyph-name="ellipsis" horiz-adv-x="768" unicode="…" d="M698 51q0 -24 -16 -41t-42 -17t-42 17t-16 41t16 41t42 17t42 -17t16 -41zM442 51q0 -24 -16 -41t-42 -17t-42 17t-16 41t16 41t42 17t42 -17t16 -41zM186 51q0 -24 -16 -41t-42 -17t-42 17t-16 41t16 41t42 17t42 -17t16 -41z"/>
<glyph glyph-name="perthousand" horiz-adv-x="1309" unicode="‰" d="M995 182q0 -26 5 -49.5t16 -41.5t28.5 -28.5t41.5 -10.5t41.5 10.5t28.5 28.5t16 41.5t5 49.5q0 25 -5.5 49t-16.5 42t-28 29t-41 11t-41 -11t-28 -29t-16.5 -42t-5.5 -49zM1254 182q0 -38 -11 -73t-32 -62t-52.5 -43t-72.5 -16t-72.5 16t-52.5 43t-32 62t-11 73 q0 37 11 72.5t32 62.5t52.5 43.5t72.5 16.5t72.5 -16.5t52.5 -43.5t32 -62.5t11 -72.5zM597 182q0 -26 5 -49.5t16 -41.5t28.5 -28.5t41.5 -10.5t41.5 10.5t28.5 28.5t16 41.5t5 49.5q0 25 -5.5 49t-16.5 42t-28 29t-41 11t-41 -11t-28 -29t-16.5 -42t-5.5 -49zM856 182 q0 -38 -11 -73t-32 -62t-52.5 -43t-72.5 -16t-72.5 16t-52.5 43t-32 62t-11 73q0 37 11 72.5t32 62.5t52.5 43.5t72.5 16.5t72.5 -16.5t52.5 -43.5t32 -62.5t11 -72.5zM132 483q0 -26 5 -49.5t16 -41.5t28.5 -28.5t41.5 -10.5t41.5 10.5t28.5 28.5t16 41.5t5 49.5 q0 25 -5.5 49t-16.5 42t-28 29t-41 11t-41 -11t-28 -29t-16.5 -42t-5.5 -49zM391 483q0 -38 -11 -73t-32 -62t-52.5 -43t-72.5 -16t-72.5 16t-52.5 43t-32 62t-11 73q0 37 11 72.5t32 62.5t52.5 43.5t72.5 16.5t72.5 -16.5t52.5 -43.5t32 -62.5t11 -72.5zM580 678l66 -31 l-315 -659l-65 32z"/>
<glyph glyph-name="guilsinglleft" horiz-adv-x="346" unicode="‹" d="M276 79l-59 -46l-167 208l167 208l59 -46l-131 -162z"/>
<glyph glyph-name="guilsinglright" horiz-adv-x="346" unicode="›" d="M201 241l-131 162l59 46l167 -208l-167 -208l-59 46z"/>
<glyph glyph-name="fraction" horiz-adv-x="223" unicode="⁄" d="M258 678l60 -32l-353 -658l-60 33z"/>
<glyph glyph-name="Euro" horiz-adv-x="590" unicode="€" d="M405 678q35 0 68 -5.5t57 -15.5l-11 -67q-21 8 -50.5 12.5t-55.5 4.5q-81 0 -123 -42t-58 -110h251v-61h-261q-2 -15 -2 -30v-31v-31.5t2 -29.5h261v-61h-251q16 -69 58 -110.5t123 -41.5q26 0 55.5 4.5t50.5 12.5l11 -67q-24 -10 -57 -15.5t-68 -5.5q-107 0 -172 59.5 t-88 163.5h-100v61h91q-3 28 -3 61q0 31 3 61h-91v61h100q23 103 88 163t172 60z"/>
<glyph glyph-name="trademark" horiz-adv-x="715" unicode="™" d="M390 573l-15 -220h-54l23 313h58l91 -206l91 206h58l23 -313h-54l-15 220l-73 -161h-60zM276 666v-46h-90v-267h-56v267h-90v46h236z"/>
<glyph glyph-name="arrowleft" horiz-adv-x="982" unicode="←" d="M459 624l-257 -256h685v-70h-685l257 -256l-52 -52l-342 343l342 343z"/>
<glyph glyph-name="arrowup" horiz-adv-x="743" unicode="↑" d="M335 537l-213 -214l-52 52l302 301l301 -300l-52 -52l-212 213v-537h-74v537z"/>
<glyph glyph-name="arrowright" horiz-adv-x="982" unicode="→" d="M575 676l342 -343l-342 -343l-52 52l257 256h-685v70h685l-257 256z"/>
<glyph glyph-name="arrowdown" horiz-adv-x="743" unicode="↓" d="M335 666h74v-537l212 213l52 -52l-301 -300l-302 301l52 52l213 -214v537z"/>
<glyph glyph-name="partialdiff" horiz-adv-x="574" unicode="∂" d="M143 200q0 -29 7 -54.5t21.5 -44.5t36 -30t50.5 -11q38 0 68 18.5t52 49t35.5 71.5t19.5 86q-29 33 -67.5 54.5t-80.5 21.5q-66 0 -104 -41.5t-38 -119.5zM55 203q0 54 16.5 97t46 72.5t69 45t86.5 15.5q48 0 91 -18t74 -52q-1 52 -10.5 103t-30.5 90.5t-54.5 64 t-82.5 24.5q-38 0 -69.5 -12.5t-62.5 -32.5l-28 63q75 53 166 53q68 0 117 -30.5t80.5 -81.5t46 -117t14.5 -136q0 -62 -17 -126t-51 -117t-84 -86.5t-116 -33.5q-46 0 -83 17t-63.5 46t-40.5 68t-14 84z"/>
<glyph glyph-name="product" horiz-adv-x="843" unicode="∏" d="M268 -206h-89v799h-124v73h733v-73h-124v-799h-89v799h-307v-799z"/>
<glyph glyph-name="summation" horiz-adv-x="585" unicode="∑" d="M157 -133h373v-73h-470v73l247 363l-247 363v73h470v-73h-373l246 -363z"/>
<glyph glyph-name="minus" horiz-adv-x="558" unicode="−" d="M65 289v68h428v-68h-428z"/>
<glyph glyph-name="radical" horiz-adv-x="743" unicode="√" d="M50 348l184 70l180 -438l200 802h79l-226 -882h-96l-181 423l-115 -45z"/>
<glyph glyph-name="infinity" horiz-adv-x="910" unicode="∞" d="M412 323q-30 41 -71.5 70t-92.5 29q-49 0 -78 -26t-29 -73t29 -73t78 -26q51 0 92.5 29t71.5 70zM498 323q30 -41 71.5 -70t92.5 -29q49 0 78 26t29 73t-29 73t-78 26q-51 0 -92.5 -29t-71.5 -70zM455 269q-39 -47 -94 -79.5t-121 -32.5q-40 0 -73 12t-57 34t-37 52.5 t-13 67.5t13 67.5t37 52.5t57 34t73 12q66 0 121 -32.5t94 -79.5q39 47 94 79.5t121 32.5q40 0 73 -12t57 -34t37 -52.5t13 -67.5t-13 -67.5t-37 -52.5t-57 -34t-73 -12q-66 0 -121 32.5t-94 79.5z"/>
<glyph glyph-name="approxequal" horiz-adv-x="609" unicode="≈" d="M413 167q-29 0 -56 10t-55 24t-46.5 21.5t-40.5 7.5q-27 0 -49 -11.5t-48 -34.5l-38 49q32 31 63.5 49t75.5 18q29 0 53.5 -8.5t53.5 -24.5q24 -13 45 -21.5t44 -8.5q26 0 46 11.5t43 29.5l35 -51q-28 -26 -59.5 -43t-66.5 -17zM413 346q-29 0 -56 10t-55 24t-46.5 21.5 t-40.5 7.5q-27 0 -49 -11.5t-48 -34.5l-38 49q32 31 63.5 49t75.5 18q29 0 53.5 -8.5t53.5 -24.5q24 -13 45 -21.5t44 -8.5q26 0 46 11.5t43 29.5l35 -51q-28 -26 -59.5 -43t-66.5 -17z"/>
<glyph glyph-name="notequal" horiz-adv-x="626" unicode="≠" d="M87 463h271l72 125l54 -32l-54 -93h109v-68h-148l-83 -143h231v-68h-270l-72 -125l-54 32l53 93h-109v68h149l82 143h-231v68z"/>
<glyph glyph-name="lessequal" horiz-adv-x="597" unicode="≤" d="M504 571l23 -66l-372 -143l372 -143l-23 -66l-439 176v66zM65 68h462v-68h-462v68z"/>
<glyph glyph-name="greaterequal" horiz-adv-x="597" unicode="≥" d="M532 395v-66l-439 -176l-23 66l372 143l-372 143l23 66zM532 0h-462v68h462v-68z"/>
<glyph glyph-name="lozenge" horiz-adv-x="576" unicode="◊" d="M288 72l157 261l-157 261l-157 -261zM536 333l-205 -333h-86l-205 333l205 333h86z"/>
</font>
</defs>
</svg>
