<?xml version="1.0" encoding="UTF-8" standalone="no"?>
<!DOCTYPE svg  PUBLIC '-//W3C//DTD SVG 1.1//EN'  'http://www.w3.org/Graphics/SVG/1.1/DTD/svg11.dtd'>
<svg xmlns="http://www.w3.org/2000/svg">
<defs>
<font id="Seravek-Bold" horiz-adv-x="700">
<font-face underline-position="-82" font-weight="700" descent="-200" panose-1="2 11 8 3 5 0 0 2 0 4" units-per-em="1000" unicode-range="U+0020-25CA" bbox="-100 -250 1407 866" x-height="490" underline-thickness="112" font-family="Seravek" ascent="800" cap-height="666"/>
<missing-glyph horiz-adv-x="1000"/>
<glyph glyph-name=".notdef" horiz-adv-x="1000"/>
<glyph glyph-name=".null" horiz-adv-x="0"/>
<glyph glyph-name="nonmarkingreturn" horiz-adv-x="1000"/>
<glyph glyph-name="space" horiz-adv-x="215" unicode=" "/>
<glyph glyph-name="exclam" horiz-adv-x="340" unicode="!" d="M80 82q0 36 23 63t67 27t67 -27t23 -63t-23 -63t-67 -27t-67 27t-23 63zM216 225h-91l-37 234v207h164v-207z"/>
<glyph glyph-name="quotedbl" horiz-adv-x="512" unicode='&quot;' d="M303 411l-16 255h160l-16 -255h-128zM81 411l-16 255h160l-16 -255h-128z"/>
<glyph glyph-name="numbersign" horiz-adv-x="699" unicode="#" d="M268 257h153l17 160h-153zM410 153h-153l-16 -153h-124l16 153h-93v104h104l17 160h-101v104h112l16 145h124l-16 -145h153l16 145h124l-16 -145h91v-104h-102l-17 -160h93v-104h-104l-16 -153h-124z"/>
<glyph glyph-name="dollar" horiz-adv-x="511" unicode="$" d="M177 -120v123q-37 5 -70.5 14t-61.5 22l28 119q39 -17 76.5 -24.5t78.5 -7.5q33 0 60 14.5t27 48.5q0 29 -21 47t-73 42q-46 21 -78 41.5t-52.5 44t-29.5 52t-9 65.5q0 36 10.5 64.5t28.5 50t42 36t52 22.5v132h143v-124q35 -5 64 -14t53 -21l-30 -120q-26 13 -60 23 t-70 10q-35 0 -56 -13t-21 -40q0 -14 5 -23.5t16.5 -18.5t29 -18t41.5 -21q26 -13 56 -29.5t55.5 -39.5t42.5 -54.5t17 -73.5q0 -73 -41 -125.5t-110 -72.5v-131h-143z"/>
<glyph glyph-name="percent" horiz-adv-x="1010" unicode="%" d="M843 187q0 45 -15.5 71.5t-49.5 26.5t-49.5 -26.5t-15.5 -71.5t15.5 -71.5t49.5 -26.5t49.5 26.5t15.5 71.5zM970 187q0 -36 -11.5 -71.5t-35 -64t-59.5 -46t-86 -17.5t-86 17.5t-59.5 46t-35 64t-11.5 71.5t11.5 71.5t35 64t59.5 46t86 17.5t86 -17.5t59.5 -46t35 -64 t11.5 -71.5zM599 678l114 -55l-302 -635l-112 57zM297 479q0 45 -15.5 71.5t-49.5 26.5t-49.5 -26.5t-15.5 -71.5t15.5 -71.5t49.5 -26.5t49.5 26.5t15.5 71.5zM424 479q0 -36 -11.5 -71.5t-35 -64t-59.5 -46t-86 -17.5t-86 17.5t-59.5 46t-35 64t-11.5 71.5t11.5 71.5 t35 64t59.5 46t86 17.5t86 -17.5t59.5 -46t35 -64t11.5 -71.5z"/>
<glyph glyph-name="ampersand" horiz-adv-x="745" unicode="&amp;" d="M217 506q0 -25 14 -47t39 -44q33 26 53.5 48t20.5 51q0 24 -17.5 38t-44.5 14q-29 0 -47 -15.5t-18 -44.5zM280 107q66 0 122 47q-33 23 -70.5 51t-69.5 54q-27 -21 -44.5 -41t-17.5 -46q0 -29 19 -47t61 -18zM659 -12q-85 50 -152 94q-60 -54 -120 -74t-123 -20 q-51 0 -92 11.5t-70.5 33t-45.5 53.5t-16 74q0 29 10 53t27.5 45t40.5 40t49 38q-43 38 -69.5 77.5t-26.5 90.5q0 37 14 69t41 55.5t66.5 36.5t90.5 13q43 0 79 -11t61.5 -31t40 -48.5t14.5 -63.5q0 -29 -9.5 -54t-25.5 -47t-36.5 -41.5t-41.5 -38.5q30 -23 61.5 -46 t60.5 -43q20 29 40 65t42 78l116 -60q-23 -46 -45 -84.5t-45 -70.5l132 -83z"/>
<glyph glyph-name="quotesingle" horiz-adv-x="290" unicode="&apos;" d="M81 411l-16 255h160l-16 -255h-128z"/>
<glyph glyph-name="parenleft" horiz-adv-x="374" unicode="(" d="M70 280q0 129 40 244.5t120 221.5l109 -62q-33 -62 -53.5 -118.5t-32 -107t-15.5 -95.5t-4 -83t4 -83t15.5 -95.5t32 -107t53.5 -118.5l-109 -62q-80 106 -120 221.5t-40 244.5z"/>
<glyph glyph-name="parenright" horiz-adv-x="374" unicode=")" d="M304 280q0 -129 -40 -244.5t-120 -221.5l-109 62q33 62 53.5 118.5t32 107t15.5 95.5t4 83t-4 83t-15.5 95.5t-32 107t-53.5 118.5l109 62q80 -106 120 -221.5t40 -244.5z"/>
<glyph glyph-name="asterisk" horiz-adv-x="412" unicode="*" d="M171 595v111h70v-111l96 56l35 -61l-96 -55l96 -55l-35 -61l-96 55v-110h-70v110l-96 -55l-35 61l95 55l-95 55l35 61z"/>
<glyph glyph-name="plus" horiz-adv-x="596" unicode="+" d="M366 264v-190h-136v190h-170v118h170v190h136v-190h170v-118h-170z"/>
<glyph glyph-name="comma" horiz-adv-x="301" unicode="," d="M32 -105q13 32 22 60.5t15 57.5t9.5 61t5.5 71l157 -12q-2 -41 -9 -78t-19.5 -72t-32.5 -70t-47 -71z"/>
<glyph glyph-name="hyphen" horiz-adv-x="374" unicode="-" d="M50 195v128h274v-128h-274z"/>
<glyph glyph-name="period" horiz-adv-x="286" unicode="." d="M53 82q0 36 23 63t67 27t67 -27t23 -63t-23 -63t-67 -27t-67 27t-23 63z"/>
<glyph glyph-name="slash" horiz-adv-x="457" unicode="/" d="M286 714l141 -48l-252 -766l-140 53z"/>
<glyph glyph-name="zero" horiz-adv-x="622" unicode="0" d="M420 333q0 106 -24.5 161.5t-84.5 55.5t-84.5 -55.5t-24.5 -161.5t24.5 -161.5t84.5 -55.5t84.5 55.5t24.5 161.5zM582 333q0 -77 -17 -140.5t-51 -109t-85 -70.5t-118 -25q-68 0 -118.5 25t-84.5 70.5t-51 109t-17 140.5t17 140.5t51 109t84.5 70.5t118.5 25 q67 0 118 -25t85 -70.5t51 -109t17 -140.5z"/>
<glyph glyph-name="one" horiz-adv-x="394" unicode="1" d="M162 0v493l-121 -42l-36 126l226 89h93v-666h-162z"/>
<glyph glyph-name="two" horiz-adv-x="511" unicode="2" d="M55 625q87 53 188 53q46 0 86 -13.5t69.5 -39t46.5 -63.5t17 -86q0 -39 -10 -73t-27.5 -64.5t-40.5 -58t-48 -53.5q-27 -28 -55.5 -53.5t-51.5 -45.5h237v-128h-424l-24 92q27 28 48 49.5t39.5 40.5t35.5 37t36 39q21 23 43 47.5t39.5 50.5t29 52t11.5 52q0 40 -24 64 t-67 24q-31 0 -58 -9t-56 -26z"/>
<glyph glyph-name="three" horiz-adv-x="493" unicode="3" d="M451 184q0 -46 -19 -82t-51.5 -61.5t-76.5 -39t-94 -13.5t-97.5 10.5t-84.5 26.5l26 117q29 -13 62.5 -21.5t72.5 -8.5q51 0 76 21.5t25 58.5q0 44 -37 62.5t-95 18.5h-65v126h38q72 0 108.5 23.5t36.5 63.5q0 31 -21.5 49.5t-63.5 18.5q-26 0 -58.5 -7.5t-58.5 -21.5 l-27 112q42 21 85.5 31t95.5 10q46 0 85 -11.5t66.5 -33t43 -52t15.5 -67.5q0 -54 -31.5 -98t-88.5 -70q27 -9 51 -23t42 -34t29 -46t11 -59z"/>
<glyph glyph-name="four" horiz-adv-x="572" unicode="4" d="M306 528l-139 -247h139v247zM462 159v-159h-156v159h-260l-22 117l247 390h191v-385h88v-122h-88z"/>
<glyph glyph-name="five" horiz-adv-x="515" unicode="5" d="M475 207q0 -52 -20.5 -92.5t-55.5 -68.5t-83 -43t-103 -15q-46 0 -92.5 9t-77.5 22l21 120q32 -12 67.5 -19.5t70.5 -7.5q55 0 86 22t31 64q0 24 -11 40.5t-29.5 26.5t-43 14t-51.5 4h-104v383h359v-128h-208v-131h16q47 0 88.5 -13t72.5 -38.5t49 -62.5t18 -86z"/>
<glyph glyph-name="six" horiz-adv-x="551" unicode="6" d="M369 197q0 37 -21.5 59t-59.5 22q-28 0 -51.5 -11t-37.5 -25q0 -25 4.5 -49t14 -42.5t26.5 -30t43 -11.5q36 0 59 24.5t23 63.5zM439 557q-33 -15 -69.5 -32t-69.5 -41t-59 -56t-39 -75q22 22 55 34t68 12q40 0 75 -13t61.5 -38t41.5 -61.5t15 -82.5q0 -45 -17.5 -84.5 t-48 -69t-72 -46t-89.5 -16.5q-65 0 -112.5 23.5t-78.5 61.5t-45.5 86t-14.5 97q0 153 92.5 259.5t257.5 162.5z"/>
<glyph glyph-name="seven" horiz-adv-x="477" unicode="7" d="M452 540l-250 -540h-160l256 538h-268v128h400z"/>
<glyph glyph-name="eight" horiz-adv-x="550" unicode="8" d="M209 507q0 -11 2.5 -20.5t10 -19.5t20.5 -21t34 -26q29 21 47 41.5t18 45.5q0 29 -19 43.5t-47 14.5q-29 0 -47.5 -16t-18.5 -42zM356 171q0 15 -4.5 27t-15 23.5t-27 24t-40.5 29.5q-35 -26 -55 -48t-20 -56q0 -33 21.5 -51t59.5 -18q36 0 58.5 20t22.5 49zM275 678 q47 0 86.5 -11.5t67.5 -32.5t43.5 -51.5t15.5 -69.5q0 -26 -9.5 -49t-24.5 -42.5t-34.5 -36.5t-40.5 -32q24 -16 47 -34.5t41 -40.5t28.5 -48.5t10.5 -59.5q0 -38 -18 -71.5t-49 -58t-73 -38.5t-91 -14q-109 0 -170 49t-61 131q0 30 11 55t28.5 46.5t40 39.5t46.5 35 q-24 17 -43.5 34.5t-34 36.5t-22.5 41t-8 48q0 38 15 70t42.5 55t67 36t88.5 13z"/>
<glyph glyph-name="nine" horiz-adv-x="555" unicode="9" d="M184 469q0 -37 21.5 -59t59.5 -22q28 0 51.5 11t37.5 25q0 25 -4.5 49t-14 42.5t-26.5 30t-43 11.5q-36 0 -59 -24.5t-23 -63.5zM114 109q33 15 69.5 32t69.5 41t59 55.5t39 75.5q-25 -23 -58 -34.5t-65 -11.5q-40 0 -75 13t-61.5 38t-41.5 61.5t-15 82.5q0 53 18.5 93.5 t50 67.5t73.5 41t89 14q65 0 112 -23.5t77 -61.5t44 -86t14 -97q0 -153 -92.5 -259.5t-257.5 -162.5z"/>
<glyph glyph-name="colon" horiz-adv-x="286" unicode=":" d="M53 362q0 36 23 63t67 27t67 -27t23 -63t-23 -63t-67 -27t-67 27t-23 63zM53 82q0 36 23 63t67 27t67 -27t23 -63t-23 -63t-67 -27t-67 27t-23 63z"/>
<glyph glyph-name="semicolon" horiz-adv-x="299" unicode=";" d="M66 362q0 36 23 63t67 27t67 -27t23 -63t-23 -63t-67 -27t-67 27t-23 63zM28 -105q13 32 22 60.5t15 57.5t9.5 61t5.5 71l157 -12q-2 -41 -9 -78t-19.5 -72t-32.5 -70t-47 -71z"/>
<glyph glyph-name="less" horiz-adv-x="581" unicode="&lt;" d="M482 582l49 -111l-337 -148l337 -148l-49 -111l-427 195v128z"/>
<glyph glyph-name="equal" horiz-adv-x="606" unicode="=" d="M70 148v118h466v-118h-466zM70 380v118h466v-118h-466z"/>
<glyph glyph-name="greater" horiz-adv-x="581" unicode="&gt;" d="M526 387v-128l-427 -195l-49 111l337 148l-337 148l49 111z"/>
<glyph glyph-name="question" horiz-adv-x="485" unicode="?" d="M445 498q0 -45 -17.5 -81.5t-49.5 -68.5t-77.5 -63t-102.5 -66l-73 114q34 23 63 42.5t50.5 37.5t34 36.5t12.5 39.5q0 30 -19.5 44t-50.5 14q-36 0 -67 -11.5t-62 -28.5l-46 114q45 29 91 43t107 14q43 0 81 -11.5t66 -34t44 -56t16 -78.5zM116 82q0 36 23 63t67 27 t67 -27t23 -63t-23 -63t-67 -27t-67 27t-23 63z"/>
<glyph glyph-name="at" horiz-adv-x="853" unicode="@" d="M454 317q-20 0 -34.5 -8.5t-25 -23t-15.5 -33t-5 -37.5q0 -17 6.5 -29t22.5 -12t31 12.5t27 29.5l17 97q-11 4 -24 4zM457 403q42 0 79 -13t65 -32l-26 -148q-1 -5 -1.5 -10t-0.5 -9q0 -41 39 -41q19 0 35.5 11.5t29 32t19.5 48.5t7 61q0 50 -18.5 88.5t-51 64.5 t-77.5 39t-99 13q-72 0 -127.5 -24t-94 -64.5t-58 -94.5t-19.5 -115q0 -58 15.5 -105t48.5 -80t83.5 -51t119.5 -18q72 0 135 14.5t120 40.5l25 -77q-69 -33 -141.5 -48t-141.5 -15q-89 0 -157 26t-115 71t-71 106t-24 130q0 82 29.5 153t83.5 123.5t129.5 82.5t167.5 30 q77 0 139.5 -22t106.5 -60t68 -90.5t24 -112.5q0 -48 -14 -91t-40.5 -75.5t-64.5 -51.5t-87 -19q-55 0 -85.5 25.5t-38.5 59.5q-20 -34 -48.5 -52.5t-59.5 -18.5q-51 0 -77 33.5t-26 81.5q0 42 13 78.5t37.5 64.5t61 44t83.5 16z"/>
<glyph glyph-name="A" d="M264 259h171l-85 281zM477 129h-255l-41 -129h-169l248 666h180l248 -666h-169z" unicode="A"/>
<glyph glyph-name="B" horiz-adv-x="589" unicode="B" d="M273 401q43 0 70 19.5t27 55.5q0 32 -23.5 49.5t-65.5 17.5h-56v-142h48zM394 201q0 38 -30.5 57.5t-84.5 19.5h-54v-155h58q60 0 85.5 23t25.5 55zM556 188q0 -45 -20 -80t-57.5 -59t-90 -36.5t-116.5 -12.5h-207v666h239q54 0 96.5 -12t71.5 -33t44.5 -49t15.5 -61 q0 -62 -34.5 -102t-100.5 -60q34 -6 63 -19t50.5 -33t33.5 -47t12 -62z"/>
<glyph glyph-name="C" horiz-adv-x="627" unicode="C" d="M392 678q52 0 104.5 -10t90.5 -29l-24 -121q-30 12 -68.5 20.5t-76.5 8.5q-102 0 -161 -53t-59 -161t59 -161t161 -53q38 0 76.5 8.5t68.5 20.5l24 -121q-38 -19 -90.5 -29t-104.5 -10q-88 0 -155 26t-112 72t-68 109t-23 138t23 138t68 109t112 72t155 26z"/>
<glyph glyph-name="D" horiz-adv-x="693" unicode="D" d="M278 130q50 0 91 14t70.5 40t45.5 63.5t16 85.5t-16 85.5t-45.5 63.5t-70.5 40t-91 14h-49v-406h49zM65 666h203q88 0 161.5 -25t125.5 -69t81 -105.5t29 -133.5t-29 -133.5t-81 -105.5t-125.5 -69t-161.5 -25h-203v666z"/>
<glyph glyph-name="E" horiz-adv-x="531" unicode="E" d="M65 666h415v-130h-251v-134h239v-130h-239v-142h254v-130h-418v666z"/>
<glyph glyph-name="F" horiz-adv-x="514" unicode="F" d="M65 0v666h419v-130h-255v-151h243v-130h-243v-255h-164z"/>
<glyph glyph-name="G" horiz-adv-x="694" unicode="G" d="M400 678q130 0 218 -41l-22 -124q-86 34 -180 34q-50 0 -90 -13t-68.5 -40.5t-44 -70t-15.5 -101.5q0 -104 54.5 -157t160.5 -53q23 0 44 3.5t35 8.5v186h147v-274q-43 -21 -109.5 -34.5t-138.5 -13.5q-84 0 -150 24.5t-112 68.5t-70.5 105.5t-24.5 136.5 q0 80 24.5 145.5t71.5 112t115 72t155 25.5z"/>
<glyph glyph-name="H" horiz-adv-x="702" unicode="H" d="M473 0v271h-244v-271h-164v666h164v-261h244v261h164v-666h-164z"/>
<glyph glyph-name="I" horiz-adv-x="304" unicode="I" d="M234 0h-164v666h164v-666z"/>
<glyph glyph-name="J" horiz-adv-x="299" unicode="J" d="M234 159q0 -45 -6 -87.5t-21.5 -84t-42.5 -82t-69 -81.5l-113 89q42 50 65 102t23 117v534h164v-507z"/>
<glyph glyph-name="K" horiz-adv-x="640" unicode="K" d="M65 0v666h164v-319l210 319h185l-225 -329l241 -337h-197l-214 326v-326h-164z"/>
<glyph glyph-name="L" horiz-adv-x="492" unicode="L" d="M229 666v-536h245v-130h-409v666h164z"/>
<glyph glyph-name="M" horiz-adv-x="864" unicode="M" d="M511 106h-158l-130 267l-20 -373h-161l50 666h148l192 -407l192 407h148l50 -666h-161l-20 373z"/>
<glyph glyph-name="N" horiz-adv-x="721" unicode="N" d="M498 0l-275 397v-397h-158v666h158l275 -397v397h158v-666h-158z"/>
<glyph glyph-name="O" horiz-adv-x="748" unicode="O" d="M374 118q43 0 76 16t55.5 44.5t33.5 68t11 86.5t-11 86.5t-33.5 68t-55.5 44.5t-76 16q-44 0 -76.5 -16t-55 -44.5t-33.5 -68t-11 -86.5t11 -86.5t33.5 -68t55 -44.5t76.5 -16zM714 333q0 -71 -23 -133.5t-66.5 -109.5t-106.5 -74.5t-144 -27.5t-144.5 27.5t-107 74.5 t-66 109.5t-22.5 133.5t22.5 133.5t66 109.5t107 74.5t144.5 27.5t144 -27.5t106.5 -74.5t66.5 -109.5t23 -133.5z"/>
<glyph glyph-name="P" horiz-adv-x="559" unicode="P" d="M389 448q0 92 -131 92h-29v-189h27q65 0 99 26t34 71zM547 449q0 -53 -23 -95t-63.5 -70.5t-95.5 -43.5t-119 -15h-17v-225h-164v666h192q63 0 116.5 -13t92 -39.5t60 -67.5t21.5 -97z"/>
<glyph glyph-name="Q" horiz-adv-x="748" unicode="Q" d="M374 118q43 0 76 16t55.5 44.5t33.5 68t11 86.5t-11 86.5t-33.5 68t-55.5 44.5t-76 16q-44 0 -76.5 -16t-55 -44.5t-33.5 -68t-11 -86.5t11 -86.5t33.5 -68t55 -44.5t76.5 -16zM393 -10q-4 -1 -8 -1.5t-11 -0.5q-81 0 -144.5 27.5t-107 74.5t-66 109.5t-22.5 133.5 t22.5 133.5t66 109.5t107 74.5t144.5 27.5t144 -27.5t106.5 -74.5t66.5 -109.5t23 -133.5q0 -92 -37.5 -168.5t-108.5 -122.5l160 -106l-77 -117z"/>
<glyph glyph-name="R" horiz-adv-x="639" unicode="R" d="M409 452q0 45 -35 66.5t-98 21.5h-47v-187h40q66 0 103 26t37 73zM567 455q0 -67 -37.5 -117t-104.5 -76l219 -262h-202l-183 231h-30v-231h-164v666h212q62 0 115 -13t92 -39t61 -65.5t22 -93.5z"/>
<glyph glyph-name="S" horiz-adv-x="530" unicode="S" d="M502 199q0 -44 -17.5 -82.5t-50.5 -67t-80 -45t-107 -16.5q-55 0 -110 12t-102 35l33 125q35 -17 79 -29.5t95 -12.5q42 0 69 15.5t27 50.5q0 25 -23.5 45.5t-85.5 43.5q-98 37 -143 84.5t-45 121.5q0 97 63.5 148t175.5 51q57 0 109 -12.5t88 -32.5l-28 -123 q-35 17 -76.5 27.5t-85.5 10.5q-37 0 -59.5 -12.5t-22.5 -42.5q0 -14 4 -24t14.5 -19t29.5 -18t48 -21q42 -17 79 -36t64 -44t42.5 -57t15.5 -75z"/>
<glyph glyph-name="T" horiz-adv-x="550" unicode="T" d="M536 666v-130h-179v-536h-164v536h-179v130h522z"/>
<glyph glyph-name="U" horiz-adv-x="690" unicode="U" d="M463 666h164v-426q0 -118 -74.5 -185t-207.5 -67t-207.5 67t-74.5 185v426h164v-431q0 -57 30 -87t88 -30t88 30t30 87v431z"/>
<glyph glyph-name="V" horiz-adv-x="634" unicode="V" d="M409 0h-184l-225 666h172l145 -507l145 507h172z"/>
<glyph glyph-name="W" horiz-adv-x="998" unicode="W" d="M714 204l103 462h168l-184 -666h-167l-135 500l-135 -500h-167l-184 666h168l103 -462l124 462h182z"/>
<glyph glyph-name="X" horiz-adv-x="654" unicode="X" d="M411 335l225 -335h-175l-134 213l-134 -213h-175l225 335l-221 331h174l131 -208l131 208h174z"/>
<glyph glyph-name="Y" horiz-adv-x="592" unicode="Y" d="M378 242v-242h-164v242l-219 424h175l126 -280l126 280h175z"/>
<glyph glyph-name="Z" horiz-adv-x="570" unicode="Z" d="M56 666h466v-130l-292 -406h302v-130h-484v130l292 406h-284v130z"/>
<glyph glyph-name="bracketleft" horiz-adv-x="395" unicode="[" d="M85 -176v912h265v-120h-105v-672h105v-120h-265z"/>
<glyph glyph-name="backslash" horiz-adv-x="457" unicode="\" d="M422 -47l-140 -53l-252 766l141 48z"/>
<glyph glyph-name="bracketright" horiz-adv-x="395" unicode="]" d="M45 -176v120h105v672h-105v120h265v-912h-265z"/>
<glyph glyph-name="asciicircum" horiz-adv-x="534" unicode="^" d="M489 352l-124 -46l-98 241l-98 -241l-124 46l144 314h156z"/>
<glyph glyph-name="underscore" horiz-adv-x="456" unicode="_" d="M-1 -250v112h458v-112h-458z"/>
<glyph glyph-name="grave" horiz-adv-x="445" unicode="`" d="M216 559l-116 169h169l76 -169h-129z"/>
<glyph glyph-name="a" horiz-adv-x="535" unicode="a" d="M241 95q23 0 43.5 6t37.5 16v73q-24 -2 -43 -4.5t-37 -4.5q-49 -6 -49 -46q0 -18 12.5 -29t35.5 -11zM328 48q-23 -23 -62.5 -40.5t-86.5 -17.5q-33 0 -59 11t-43.5 30t-27 44.5t-9.5 54.5q0 68 42.5 102.5t120.5 40.5q29 2 61.5 3t57.5 2v16q0 80 -89 80q-35 0 -67.5 -8 t-59.5 -22l-29 111q35 20 82.5 32.5t103.5 12.5q103 0 161 -53.5t58 -160.5v-286h-154v48z"/>
<glyph glyph-name="b" horiz-adv-x="580" unicode="b" d="M297 378q-45 0 -79 -27v-232q11 -5 26 -8t31 -3q31 0 54 11t37 30t21 44t7 54q0 60 -23.5 95.5t-73.5 35.5zM58 706h160v-254q21 21 50.5 34.5t74.5 13.5q48 0 87 -18.5t66.5 -52t42.5 -79.5t15 -101q0 -53 -17.5 -100.5t-52.5 -82.5t-88 -55.5t-124 -20.5 q-60 0 -114.5 13t-99.5 36v667z"/>
<glyph glyph-name="c" horiz-adv-x="454" unicode="c" d="M291 500q38 0 74.5 -8t63.5 -22l-16 -114q-19 8 -45.5 14t-53.5 6q-64 0 -96 -35t-32 -96t32 -96t96 -35q27 0 53.5 6t45.5 14l16 -114q-27 -14 -63.5 -22t-74.5 -8q-62 0 -111.5 18.5t-83.5 52t-52 80.5t-18 104t18 104t52 80.5t83.5 52t111.5 18.5z"/>
<glyph glyph-name="d" horiz-adv-x="584" unicode="d" d="M282 113q51 0 82 34v225q-22 8 -57 8q-60 0 -89.5 -37t-29.5 -101q0 -57 22.5 -93t71.5 -36zM524 0h-153v62q-23 -33 -59.5 -52.5t-87.5 -19.5q-41 0 -77 17.5t-62.5 50t-41.5 78.5t-15 103q0 64 20.5 113t55 82t80.5 49.5t98 16.5q26 0 46 -3.5t36 -8.5v218h160v-706z "/>
<glyph glyph-name="e" horiz-adv-x="516" unicode="e" d="M272 398q-38 0 -58.5 -24.5t-20.5 -67.5h142q2 8 2 17q0 32 -17 53.5t-48 21.5zM277 500q96 0 152 -56.5t56 -156.5q0 -38 -9 -81h-284q2 -45 30.5 -72.5t87.5 -27.5q36 0 75.5 6.5t68.5 19.5l20 -103q-38 -19 -85.5 -29t-98.5 -10q-64 0 -113 18.5t-82 51.5t-50 79 t-17 102q0 60 17.5 108t50 81.5t78.5 51.5t103 18z"/>
<glyph glyph-name="f" horiz-adv-x="372" unicode="f" d="M91 0v368h-76v122h76v14q0 109 57 160.5t151 51.5q24 0 49.5 -3.5t47.5 -12.5l-12 -114q-24 7 -52 7q-38 0 -59.5 -18t-21.5 -64v-21h112v-122h-112v-368h-160z"/>
<glyph glyph-name="g" horiz-adv-x="528" unicode="g" d="M243 264q35 0 53 18.5t18 50.5t-18 50.5t-53 18.5t-53 -18.5t-18 -50.5t18 -50.5t53 -18.5zM196 -2q-12 -9 -25 -22t-13 -34q0 -28 23.5 -41t65.5 -13q22 0 43.5 4.5t38.5 13t27 20t10 26.5q0 18 -12.5 26t-39.5 10zM516 490v-102h-72l-1 1q11 -30 11 -58 q0 -34 -13.5 -64t-40 -52.5t-66 -35.5t-91.5 -13h-6q-4 -7 -6.5 -13.5t-2.5 -14.5q0 -14 10.5 -20.5t26.5 -7.5l86 -5q74 -5 118.5 -38.5t44.5 -99.5q0 -46 -24.5 -80.5t-65 -57t-91.5 -34t-104 -11.5q-42 0 -81.5 6t-70.5 20.5t-50 38.5t-19 59q0 23 10 40.5t27 30.5t39 22 t45 14q-44 22 -44 67q0 19 7.5 34t18.5 26.5t24.5 20t25.5 13.5q-64 17 -96.5 58.5t-32.5 96.5q0 36 13.5 66.5t40 53.5t66 36t91.5 13q22 0 41.5 -2.5t36.5 -7.5h195z"/>
<glyph glyph-name="h" horiz-adv-x="583" unicode="h" d="M60 0v706h160v-274q22 35 57 51.5t74 16.5q49 0 83 -20.5t55.5 -54.5t31 -78.5t9.5 -93.5v-253h-160v256q0 61 -19 89.5t-58 28.5q-25 0 -43.5 -11t-29.5 -27v-336h-160z"/>
<glyph glyph-name="i" horiz-adv-x="280" unicode="i" d="M50 633q0 38 25 64t65 26t65 -26t25 -64t-25 -64t-65 -26t-65 26t-25 64zM60 0v490h160v-490h-160z"/>
<glyph glyph-name="j" horiz-adv-x="281" unicode="j" d="M52 633q0 38 25 64t65 26t65 -26t25 -64t-25 -64t-65 -26t-65 26t-25 64zM222 126q0 -50 -6.5 -95t-23 -87.5t-45 -82t-73.5 -77.5l-105 88q22 25 39.5 50.5t29.5 52.5t18 58t6 67v390h160v-364z"/>
<glyph glyph-name="k" horiz-adv-x="563" unicode="k" d="M60 0v706h160v-445l147 229h173l-158 -241l179 -249h-183l-158 237v-237h-160z"/>
<glyph glyph-name="l" horiz-adv-x="301" unicode="l" d="M213 150q0 -19 8 -29.5t31 -10.5q14 0 34 3l5 -110q-20 -6 -45.5 -9.5t-52.5 -3.5q-40 0 -67 12t-43 32t-23 45.5t-7 52.5v574h160v-556z"/>
<glyph glyph-name="m" horiz-adv-x="879" unicode="m" d="M596 374q-26 0 -46 -12t-34 -28q4 -17 5.5 -39t1.5 -42v-253h-160v256q0 61 -15.5 89.5t-54.5 28.5q-25 0 -43.5 -11t-29.5 -27v-336h-160v490h154v-64q23 40 60.5 57t76.5 17q48 0 79.5 -19.5t59.5 -63.5q52 83 163 83q48 0 81 -20.5t53.5 -54.5t29.5 -78.5t9 -93.5 v-253h-160v256q0 61 -15.5 89.5t-54.5 28.5z"/>
<glyph glyph-name="n" horiz-adv-x="583" unicode="n" d="M60 0v490h154v-64q23 40 59.5 57t77.5 17q49 0 83 -20.5t55.5 -54.5t31 -78.5t9.5 -93.5v-253h-160v256q0 61 -19 89.5t-58 28.5q-25 0 -43.5 -11t-29.5 -27v-336h-160z"/>
<glyph glyph-name="o" horiz-adv-x="574" unicode="o" d="M388 245q0 26 -5 50.5t-16.5 44t-31 31t-48.5 11.5t-48.5 -11.5t-31 -31t-16.5 -44t-5 -50.5t5 -50.5t16.5 -44t31 -31t48.5 -11.5t48.5 11.5t31 31t16.5 44t5 50.5zM548 245q0 -54 -17 -100.5t-50 -81t-82 -54t-112 -19.5t-112 19.5t-82 54t-50 81t-17 100.5t17 100.5 t50 81t82 54t112 19.5t112 -19.5t82 -54t50 -81t17 -100.5z"/>
<glyph glyph-name="p" horiz-adv-x="584" unicode="p" d="M302 377q-27 0 -47 -8.5t-35 -25.5v-227q11 -4 25 -6t32 -2q63 0 91 38.5t28 103.5q0 54 -22.5 90.5t-71.5 36.5zM60 490h153v-58q48 68 147 68q41 0 77 -17.5t62.5 -50t41.5 -78.5t15 -103q0 -65 -20.5 -113.5t-55 -81.5t-80.5 -49.5t-98 -16.5q-26 0 -46 3.5t-36 8.5 v-208h-160v696z"/>
<glyph glyph-name="q" horiz-adv-x="584" unicode="q" d="M285 112q46 0 79 26v232q-23 11 -56 11q-61 0 -90.5 -38.5t-29.5 -101.5q0 -60 23.5 -94.5t73.5 -34.5zM524 -206h-160v243q-22 -22 -53 -34.5t-72 -12.5q-50 0 -89.5 18.5t-66.5 51.5t-41 79t-14 101q0 59 18 107t53.5 82t88.5 52.5t122 18.5q64 0 115 -12t99 -36v-658z "/>
<glyph glyph-name="r" horiz-adv-x="379" unicode="r" d="M373 352h-19q-95 0 -134 -48v-304h-160v490h155v-82q14 40 43 63t76 23q14 0 23.5 -1.5t19.5 -4.5z"/>
<glyph glyph-name="s" horiz-adv-x="435" unicode="s" d="M409 160q0 -41 -15.5 -73t-44 -53.5t-67.5 -32.5t-86 -11q-40 0 -84 7.5t-80 22.5l22 111q31 -13 68.5 -19.5t65.5 -6.5q29 0 50.5 8.5t21.5 28.5q0 18 -19 25.5t-57 21.5q-31 11 -58 24.5t-46.5 32t-30.5 42.5t-11 56q0 80 54 118t141 38q46 0 84 -8.5t73 -28.5 l-22 -105q-27 12 -57 19.5t-63 7.5q-29 0 -44.5 -5.5t-15.5 -22.5t18.5 -24.5t47.5 -18.5q22 -8 49 -19.5t50.5 -29.5t39.5 -43.5t16 -61.5z"/>
<glyph glyph-name="t" horiz-adv-x="404" unicode="t" d="M8 490h75v128h160v-128h141v-122h-141v-192q0 -29 12.5 -45.5t45.5 -16.5q18 0 36.5 2.5t35.5 7.5l11 -111q-24 -11 -59 -17t-70 -6q-47 0 -79.5 14.5t-53 39t-30 58t-9.5 71.5v195h-75v122z"/>
<glyph glyph-name="u" horiz-adv-x="579" unicode="u" d="M519 490v-490h-154v64q-28 -42 -63 -58t-74 -16q-49 0 -82.5 20.5t-54 54.5t-29.5 78.5t-9 93.5v253h160v-256q0 -61 17 -89.5t56 -28.5q25 0 43.5 11t29.5 27v336h160z"/>
<glyph glyph-name="v" horiz-adv-x="508" unicode="v" d="M169 0l-170 490h161l94 -344l94 344h161l-170 -490h-170z"/>
<glyph glyph-name="w" horiz-adv-x="804" unicode="w" d="M510 0l-108 313l-108 -313h-150l-139 490h153l69 -295l100 295h150l100 -295l69 295h153l-139 -490h-150z"/>
<glyph glyph-name="x" horiz-adv-x="531" unicode="x" d="M5 0l175 248l-169 242h164l90 -135l91 135h164l-170 -242l176 -248h-166l-95 141l-94 -141h-166z"/>
<glyph glyph-name="y" horiz-adv-x="506" unicode="y" d="M113 -206l64 194l-177 502h166l90 -349l89 349h161l-232 -696h-161z"/>
<glyph glyph-name="z" horiz-adv-x="470" unicode="z" d="M44 0v110l199 268h-197v112h375v-111l-198 -267h215v-112h-394z"/>
<glyph glyph-name="braceleft" horiz-adv-x="450" unicode="{" d="M295 34q0 -50 20 -70t59 -20h36v-120h-64q-60 0 -100 13.5t-65 39.5t-35.5 65.5t-10.5 90.5v100q0 24 -4 42.5t-14.5 31t-30.5 18.5t-51 6v98q31 0 51 6t30.5 18.5t14.5 31t4 42.5v100q0 51 10.5 90.5t35.5 65.5t65 39.5t100 13.5h64v-120h-36q-39 0 -59 -20t-20 -70v-78 q0 -33 -4.5 -59t-16.5 -46.5t-32.5 -36t-53.5 -26.5q33 -11 53.5 -26.5t32.5 -36t16.5 -46.5t4.5 -59v-78z"/>
<glyph glyph-name="bar" horiz-adv-x="323" unicode="|" d="M95 -250v1000h133v-1000h-133z"/>
<glyph glyph-name="braceright" horiz-adv-x="450" unicode="}" d="M155 112q0 33 4.5 59t16.5 46.5t32.5 36t53.5 26.5q-33 11 -53.5 26.5t-32.5 36t-16.5 46.5t-4.5 59v78q0 50 -20 70t-59 20h-36v120h64q60 0 100 -13.5t65 -39.5t35.5 -65.5t10.5 -90.5v-100q0 -24 4 -42.5t14.5 -31t30 -18.5t51.5 -6v-98q-32 0 -51.5 -6t-30 -18.5 t-14.5 -31t-4 -42.5v-100q0 -51 -10.5 -90.5t-35.5 -65.5t-65 -39.5t-100 -13.5h-64v120h36q39 0 59 20t20 70v78z"/>
<glyph glyph-name="asciitilde" horiz-adv-x="607" unicode="~" d="M567 394q-31 -87 -67 -127.5t-94 -40.5q-29 0 -55 12.5t-50 24.5t-41.5 21.5t-34.5 9.5q-27 0 -40 -19.5t-25 -48.5l-115 45q14 48 30 80.5t35.5 53t43.5 29t55 8.5q29 0 52.5 -9.5t52.5 -25.5q22 -12 41 -22.5t39 -10.5q26 0 37 18t24 50z"/>
<glyph glyph-name="uni00A0" horiz-adv-x="200" unicode=" "/>
<glyph glyph-name="exclamdown" horiz-adv-x="340" unicode="¡" d="M80 410q0 36 23 63t67 27t67 -27t23 -63t-23 -63t-67 -27t-67 27t-23 63zM252 33v-207h-164v207l37 234h91z"/>
<glyph glyph-name="cent" horiz-adv-x="511" unicode="¢" d="M224 -28v127q-82 21 -128 81.5t-46 152.5q0 91 46 151.5t128 82.5v128h139v-121q26 -5 52 -12t46 -18l-22 -113q-23 10 -51.5 15.5t-59.5 5.5q-55 0 -86.5 -29.5t-31.5 -89.5t31.5 -89.5t86.5 -29.5q31 0 59.5 5.5t51.5 15.5l22 -113q-20 -11 -46 -18.5t-52 -11.5v-120 h-139z"/>
<glyph glyph-name="sterling" horiz-adv-x="553" unicode="£" d="M453 245h-165q-11 -34 -29.5 -64t-46.5 -55h278v-126h-414l-30 110q29 33 50.5 65t32.5 70h-84v126h99v71q0 61 16.5 105.5t46 73.5t71 43t91.5 14q45 0 82 -8.5t67 -23.5l-24 -115q-20 9 -46 15t-55 6q-49 0 -69 -26.5t-20 -86.5v-68h149v-126z"/>
<glyph glyph-name="currency" horiz-adv-x="652" unicode="¤" d="M418 333q0 47 -25 75.5t-67 28.5t-67 -28.5t-25 -75.5t25 -75.5t67 -28.5t67 28.5t25 75.5zM517 447q34 -51 34 -114t-34 -114l80 -80l-97 -92l-90 89q-19 -7 -40 -10t-44 -3q-47 0 -85 13l-89 -89l-97 92l80 80q-34 51 -34 114t34 114l-80 80l97 92l89 -90q40 14 85 14 t84 -14l90 90l97 -92z"/>
<glyph glyph-name="yen" horiz-adv-x="588" unicode="¥" d="M374 122v-122h-160v122h-145v111h145v9l-26 61h-119v111h72l-106 252h167l92 -280l92 280h167l-106 -252h72v-111h-119l-26 -61v-9h145v-111h-145z"/>
<glyph glyph-name="brokenbar" horiz-adv-x="323" unicode="¦" d="M95 -250v397h133v-397h-133zM228 353h-133v397h133v-397z"/>
<glyph glyph-name="section" horiz-adv-x="652" unicode="§" d="M214 550q-11 -20 -17 -37t-6 -44q0 -52 30 -97t86 -96q26 -24 54 -51t51 -58t38 -65.5t15 -73.5q10 20 14.5 36.5t4.5 41.5q0 31 -8.5 58t-24 50.5t-37.5 45.5t-48 44q-69 58 -111.5 111.5t-42.5 111.5q0 6 0.5 12t1.5 11zM373 716q38 0 78 -6t73 -20l-16 -108 q-24 9 -52 14.5t-52 5.5q-33 0 -52 -10.5t-19 -36.5q0 -13 6.5 -25.5t19 -27t32.5 -32t47 -40.5q31 -27 62 -55t56 -61t40.5 -73t15.5 -90q0 -58 -19.5 -111.5t-59 -95t-100 -66t-141.5 -24.5q-37 0 -77.5 7t-78.5 18l18 109q29 -8 58 -13.5t61 -5.5q33 0 52 11.5t19 36.5 q0 12 -6 23.5t-18 25t-31 30t-44 40.5q-54 51 -91.5 91.5t-60.5 77t-33 73t-10 78.5q0 58 23 106t65 82.5t101.5 53t133.5 18.5z"/>
<glyph glyph-name="dieresis" horiz-adv-x="550" unicode="¨" d="M300 642q0 30 20 52.5t55 22.5t55 -22.5t20 -52.5q0 -31 -20 -53t-55 -22t-55 22t-20 53zM100 642q0 30 20 52.5t55 22.5t55 -22.5t20 -52.5q0 -31 -20 -53t-55 -22t-55 22t-20 53z"/>
<glyph glyph-name="copyright" horiz-adv-x="810" unicode="©" d="M429 529q28 0 56.5 -5.5t50.5 -15.5l-13 -80q-38 12 -79 12q-51 0 -81 -26.5t-30 -80.5t30 -80.5t81 -26.5q41 0 79 12l13 -80q-22 -10 -50.5 -15.5t-56.5 -5.5q-50 0 -87.5 15t-63.5 41.5t-39 62t-13 77.5t13 77.5t39 62t63.5 41.5t87.5 15zM703 333q0 59 -21 113 t-59.5 95t-93.5 65.5t-124 24.5t-124 -24.5t-93.5 -65.5t-59.5 -95t-21 -113t21 -113t59.5 -95t93.5 -65.5t124 -24.5t124 24.5t93.5 65.5t59.5 95t21 113zM55 333q0 71 25.5 134t72 110t111 74t141.5 27t141.5 -27t111 -74t72 -110t25.5 -134t-25.5 -134t-72 -110t-111 -74 t-141.5 -27t-141.5 27t-111 74t-72 110t-25.5 134z"/>
<glyph glyph-name="ordfeminine" horiz-adv-x="490" unicode="ª" d="M273 450q-11 -1 -23 -2t-23 -3q-16 -2 -22.5 -9.5t-6.5 -18.5q0 -13 9 -20.5t23 -7.5q23 0 43 13v48zM278 351q-14 -14 -41 -27.5t-60 -13.5q-48 0 -77 26.5t-29 76.5q0 48 30.5 70.5t82.5 27.5q21 2 44.5 3t44.5 2v9q0 26 -15 37.5t-42 11.5q-28 0 -53 -6.5t-45 -16.5 l-23 93q62 32 148 32q87 0 125.5 -44.5t38.5 -117.5v-196h-129v33zM60 255h370v-113h-370v113z"/>
<glyph glyph-name="guillemotleft" horiz-adv-x="647" unicode="«" d="M592 107l-104 -81l-181 215l181 215l104 -81l-115 -134zM320 107l-104 -81l-181 215l181 215l104 -81l-115 -134z"/>
<glyph glyph-name="logicalnot" horiz-adv-x="596" unicode="¬" d="M536 74h-136v190h-340v118h476v-308z"/>
<glyph glyph-name="registered" horiz-adv-x="550" unicode="®" d="M308 498q0 23 -30 23h-22v-50h14q17 0 27.5 6.5t10.5 20.5zM369 503q0 -22 -12.5 -37.5t-32.5 -24.5l66 -85h-73l-56 75h-5v-75h-61v211h93q35 0 58 -16.5t23 -47.5zM89 455q0 -39 13.5 -73t38.5 -59t59.5 -39t75.5 -14t75 14t58.5 39t38 59t13.5 73t-13.5 73t-38 59 t-58.5 39t-75 14t-75.5 -14t-59.5 -39t-38.5 -59t-13.5 -73zM45 455q0 45 16.5 85t46.5 71t72.5 49t95.5 18t95.5 -18t72 -49t45.5 -71t16 -85t-16 -85t-45.5 -71t-72 -49t-95.5 -18t-95.5 18t-72.5 49t-46.5 71t-16.5 85z"/>
<glyph glyph-name="macron" horiz-adv-x="515" unicode="¯" d="M100 700h315v-121h-315v121z"/>
<glyph glyph-name="degree" horiz-adv-x="398" unicode="°" d="M145 544q0 -29 15 -44t39 -15t39 15t15 44t-15 44t-39 15t-39 -15t-15 -44zM55 544q0 28 10.5 52.5t30 42.5t45.5 28.5t58 10.5q31 0 57.5 -10.5t46 -28.5t30 -42.5t10.5 -52.5q0 -29 -10.5 -53.5t-30 -42.5t-46 -28t-57.5 -10q-32 0 -58 10t-45.5 28t-30 42.5 t-10.5 53.5z"/>
<glyph glyph-name="plusminus" horiz-adv-x="596" unicode="±" d="M60 0v116h476v-116h-476zM366 321v-147h-136v147h-170v118h170v153h136v-153h170v-118h-170z"/>
<glyph glyph-name="twosuperior" horiz-adv-x="373" unicode="²" d="M33 795q62 39 146 39q72 0 115.5 -34t43.5 -95q0 -51 -23.5 -89t-66.5 -70q-9 -7 -14.5 -11t-13.5 -9h125v-106h-300l-23 80q29 24 56.5 46t57.5 48q27 23 46.5 44.5t19.5 47.5q0 20 -13.5 31t-39.5 11q-23 0 -45 -7.5t-41 -18.5z"/>
<glyph glyph-name="threesuperior" horiz-adv-x="366" unicode="³" d="M336 533q0 -29 -13.5 -52t-37 -38.5t-56.5 -24t-72 -8.5q-33 0 -68.5 8t-60.5 19l21 89q20 -8 44 -13t49 -5q26 0 43 8t17 28t-16.5 27t-38.5 7h-75v93h58q31 0 46 9.5t15 26.5q0 15 -12.5 22t-32.5 7q-25 0 -46 -5t-41 -13l-20 89q33 16 68 21.5t68 5.5q66 0 108 -27 t42 -79q0 -31 -18.5 -56.5t-55.5 -39.5q33 -10 59 -33t26 -66z"/>
<glyph glyph-name="acute" horiz-adv-x="448" unicode="´" d="M100 559l73 169h175l-116 -169h-132z"/>
<glyph glyph-name="mu" horiz-adv-x="611" unicode="µ" d="M60 490h160v-256q0 -61 17 -89.5t56 -28.5q25 0 42.5 11t30.5 28v335h160v-346q0 -23 8.5 -33t31.5 -10h15v-94q-18 -7 -39 -11t-47 -4q-54 0 -81.5 22t-38.5 60q-21 -37 -57 -60.5t-83 -23.5q-26 0 -47.5 6t-39.5 17q34 -23 53 -64.5t19 -87.5v-67h-160v696z"/>
<glyph glyph-name="paragraph" horiz-adv-x="607" unicode="¶" d="M422 -140v704h-98v-426q-53 0 -103.5 18t-89.5 52t-62.5 83t-23.5 111t23.5 111t62.5 83t89.5 52t103.5 18h218v-806h-120z"/>
<glyph glyph-name="periodcentered" horiz-adv-x="286" unicode="·" d="M53 244q0 36 23 63t67 27t67 -27t23 -63t-23 -63t-67 -27t-67 27t-23 63z"/>
<glyph glyph-name="cedilla" horiz-adv-x="393" unicode="¸" d="M293 -113q0 -25 -14.5 -43.5t-39.5 -31t-57.5 -19.5t-69.5 -9l-12 74q23 2 43 8.5t20 21.5q0 8 -5.5 13.5t-14.5 8.5t-19.5 5t-20.5 3l28 82h80l-11 -43q18 0 34.5 -4t29.5 -12.5t21 -21.5t8 -32z"/>
<glyph glyph-name="onesuperior" horiz-adv-x="322" unicode="¹" d="M131 420v270l-86 -28l-30 103l159 59h93v-404h-136z"/>
<glyph glyph-name="ordmasculine" horiz-adv-x="504" unicode="º" d="M322 493q0 41 -17.5 63.5t-52.5 22.5t-52.5 -22.5t-17.5 -63.5t17.5 -63.5t52.5 -22.5t52.5 22.5t17.5 63.5zM454 493q0 -38 -13 -71.5t-38.5 -58.5t-63.5 -39t-87 -14q-50 0 -87.5 14t-63 39t-38.5 58.5t-13 71.5t13 71.5t38.5 58t63 39t87.5 14.5q49 0 87 -14.5 t63.5 -39t38.5 -58t13 -71.5zM67 255h370v-113h-370v113z"/>
<glyph glyph-name="guillemotright" horiz-adv-x="647" unicode="»" d="M170 241l-115 134l104 81l181 -215l-181 -215l-104 81zM442 241l-115 134l104 81l181 -215l-181 -215l-104 81z"/>
<glyph glyph-name="onequarter" horiz-adv-x="916" unicode="¼" d="M156 262v270l-86 -28l-30 103l159 59h93v-404h-136zM695 296l-88 -113h88v113zM821 89v-89h-126v89h-176l-23 87l183 228h142v-221h60v-94h-60zM566 678l102 -54l-340 -636l-102 55z"/>
<glyph glyph-name="onehalf" horiz-adv-x="959" unicode="½" d="M592 375q62 39 146 39q72 0 115.5 -34t43.5 -95q0 -51 -23.5 -89t-66.5 -70q-9 -7 -14.5 -11t-13.5 -9h125v-106h-300l-23 80q29 24 56.5 46t57.5 48q27 23 46.5 44.5t19.5 47.5q0 20 -13.5 31t-39.5 11q-23 0 -45 -7.5t-41 -18.5zM156 262v270l-86 -28l-30 103l159 59 h93v-404h-136zM566 678l102 -54l-340 -636l-102 55z"/>
<glyph glyph-name="threequarters" horiz-adv-x="942" unicode="¾" d="M363 375q0 -29 -13.5 -52t-37 -38.5t-56.5 -24t-72 -8.5q-33 0 -68.5 8t-60.5 19l21 89q20 -8 44 -13t49 -5q26 0 43 8t17 28t-16.5 27t-38.5 7h-75v93h58q31 0 46 9.5t15 26.5q0 15 -12.5 22t-32.5 7q-25 0 -46 -5t-41 -13l-20 89q33 16 68 21.5t68 5.5q66 0 108 -27 t42 -79q0 -31 -18.5 -56.5t-55.5 -39.5q33 -10 59 -33t26 -66zM721 296l-88 -113h88v113zM847 89v-89h-126v89h-176l-23 87l183 228h142v-221h60v-94h-60zM591 678l102 -54l-340 -636l-102 55z"/>
<glyph glyph-name="questiondown" horiz-adv-x="480" unicode="¿" d="M40 -6q0 45 17.5 81.5t49.5 68.5t77.5 63t102.5 66l73 -114q-34 -23 -63 -42.5t-50.5 -37.5t-34 -36.5t-12.5 -39.5q0 -30 19.5 -44t50.5 -14q36 0 67 11.5t62 28.5l46 -114q-45 -29 -91 -43t-107 -14q-44 0 -81.5 11t-65.5 33.5t-44 56.5t-16 79zM369 410q0 -36 -23 -63 t-67 -27t-67 27t-23 63t23 63t67 27t67 -27t23 -63z"/>
<glyph glyph-name="Agrave" d="M281 724l-130 124h183l75 -124h-128zM264 259h171l-85 281zM477 129h-255l-41 -129h-169l248 666h180l248 -666h-169z" unicode="À"/>
<glyph glyph-name="Aacute" d="M284 724l75 124h183l-130 -124h-128zM264 259h171l-85 281zM477 129h-255l-41 -129h-169l248 666h180l248 -666h-169z" unicode="Á"/>
<glyph glyph-name="Acircumflex" d="M522 724h-135l-37 52l-37 -52h-135l93 124h158zM264 259h171l-85 281zM477 129h-255l-41 -129h-169l248 666h180l248 -666h-169z" unicode="Â"/>
<glyph glyph-name="Atilde" d="M440 714q-24 0 -42.5 4.5t-43.5 14.5q-20 8 -34 13.5t-27 5.5q-18 0 -27 -11t-17 -27l-95 42q17 58 45.5 83t74.5 25q24 0 44.5 -4.5t45.5 -15.5q20 -8 35 -13.5t28 -5.5q17 0 26.5 12t18.5 29l86 -48q-23 -51 -50 -77.5t-68 -26.5zM264 259h171l-85 281zM477 129h-255 l-41 -129h-169l248 666h180l248 -666h-169z" unicode="Ã"/>
<glyph glyph-name="Adieresis" d="M382 790q0 30 20.5 50.5t54.5 20.5t54.5 -20.5t20.5 -50.5q0 -31 -20.5 -51t-54.5 -20t-54.5 20t-20.5 51zM167 790q0 30 20.5 50.5t54.5 20.5t54.5 -20.5t20.5 -50.5q0 -31 -20.5 -51t-54.5 -20t-54.5 20t-20.5 51zM264 259h171l-85 281zM477 129h-255l-41 -129h-169 l248 666h180l248 -666h-169z" unicode="Ä"/>
<glyph glyph-name="Aring" d="M310 722q0 -17 11 -28t29 -11t29 11t11 28t-11 28.5t-29 11.5t-29 -11.5t-11 -28.5zM264 259h171l-85 281zM459 721q0 -14 -5.5 -29t-13.5 -26l248 -666h-169l-42 129h-255l-41 -129h-169l248 665q-19 25 -19 56q0 19 7 36.5t20.5 31t34 22t47.5 8.5t47.5 -8.5t34 -22 t20.5 -31t7 -36.5z" unicode="Å"/>
<glyph glyph-name="AE" horiz-adv-x="894" unicode="Æ" d="M294 259h148l-27 237zM843 536h-288l18 -134h258v-130h-242l19 -142h238v-130h-371l-17 129h-238l-72 -129h-168l390 666h473v-130z"/>
<glyph glyph-name="Ccedilla" horiz-adv-x="627" unicode="Ç" d="M498 -113q0 -25 -14.5 -43.5t-39.5 -31t-57.5 -19.5t-69.5 -9l-12 74q23 2 43 8.5t20 21.5q0 8 -5.5 13.5t-14.5 8.5t-19.5 5t-20.5 3l25 74q-74 8 -130 37t-93.5 73.5t-56.5 103.5t-19 127q0 75 23 138t68 109t112 72t155 26q52 0 104.5 -10t90.5 -29l-24 -121 q-30 12 -68.5 20.5t-76.5 8.5q-102 0 -161 -53t-59 -161t59 -161t161 -53q38 0 76.5 8.5t68.5 20.5l24 -121q-35 -17 -80.5 -26.5t-93.5 -11.5l-8 -32q18 0 34.5 -4t29.5 -12.5t21 -21.5t8 -32z"/>
<glyph glyph-name="Egrave" horiz-adv-x="531" unicode="È" d="M229 724l-130 124h183l75 -124h-128zM65 666h415v-130h-251v-134h239v-130h-239v-142h254v-130h-418v666z"/>
<glyph glyph-name="Eacute" horiz-adv-x="531" unicode="É" d="M181 724l75 124h183l-130 -124h-128zM65 666h415v-130h-251v-134h239v-130h-239v-142h254v-130h-418v666z"/>
<glyph glyph-name="Ecircumflex" horiz-adv-x="531" unicode="Ê" d="M449 724h-135l-37 52l-37 -52h-135l93 124h158zM65 666h415v-130h-251v-134h239v-130h-239v-142h254v-130h-418v666z"/>
<glyph glyph-name="Edieresis" horiz-adv-x="531" unicode="Ë" d="M309 790q0 30 20.5 50.5t54.5 20.5t54.5 -20.5t20.5 -50.5q0 -31 -20.5 -51t-54.5 -20t-54.5 20t-20.5 51zM94 790q0 30 20.5 50.5t54.5 20.5t54.5 -20.5t20.5 -50.5q0 -31 -20.5 -51t-54.5 -20t-54.5 20t-20.5 51zM65 666h415v-130h-251v-134h239v-130h-239v-142h254 v-130h-418v666z"/>
<glyph glyph-name="Igrave" horiz-adv-x="304" unicode="Ì" d="M91 724l-130 124h183l75 -124h-128zM234 0h-164v666h164v-666z"/>
<glyph glyph-name="Iacute" horiz-adv-x="304" unicode="Í" d="M83 724l75 124h183l-130 -124h-128zM234 0h-164v666h164v-666z"/>
<glyph glyph-name="Icircumflex" horiz-adv-x="304" unicode="Î" d="M324 724h-135l-37 52l-37 -52h-135l93 124h158zM234 0h-164v666h164v-666z"/>
<glyph glyph-name="Idieresis" horiz-adv-x="304" unicode="Ï" d="M185 790q0 30 20.5 50.5t54.5 20.5t54.5 -20.5t20.5 -50.5q0 -31 -20.5 -51t-54.5 -20t-54.5 20t-20.5 51zM-30 790q0 30 20.5 50.5t54.5 20.5t54.5 -20.5t20.5 -50.5q0 -31 -20.5 -51t-54.5 -20t-54.5 20t-20.5 51zM234 0h-164v666h164v-666z"/>
<glyph glyph-name="Eth" horiz-adv-x="732" unicode="Ð" d="M317 130q50 0 91 14t70.5 40t45.5 63.5t16 85.5t-16 85.5t-45.5 63.5t-70.5 40t-91 14h-49v-138h156v-130h-156v-138h49zM30 398h74v268h203q88 0 161.5 -25t125.5 -69t81 -105.5t29 -133.5t-29 -133.5t-81 -105.5t-125.5 -69t-161.5 -25h-203v268h-74v130z"/>
<glyph glyph-name="Ntilde" horiz-adv-x="721" unicode="Ñ" d="M439 714q-24 0 -42.5 4.5t-43.5 14.5q-20 8 -34 13.5t-27 5.5q-18 0 -27 -11t-17 -27l-95 42q17 58 45.5 83t74.5 25q24 0 44.5 -4.5t45.5 -15.5q20 -8 35 -13.5t28 -5.5q17 0 26.5 12t18.5 29l86 -48q-23 -51 -50 -77.5t-68 -26.5zM498 0l-275 397v-397h-158v666h158 l275 -397v397h158v-666h-158z"/>
<glyph glyph-name="Ograve" horiz-adv-x="748" unicode="Ò" d="M312 724l-130 124h183l75 -124h-128zM374 118q43 0 76 16t55.5 44.5t33.5 68t11 86.5t-11 86.5t-33.5 68t-55.5 44.5t-76 16q-44 0 -76.5 -16t-55 -44.5t-33.5 -68t-11 -86.5t11 -86.5t33.5 -68t55 -44.5t76.5 -16zM714 333q0 -71 -23 -133.5t-66.5 -109.5t-106.5 -74.5 t-144 -27.5t-144.5 27.5t-107 74.5t-66 109.5t-22.5 133.5t22.5 133.5t66 109.5t107 74.5t144.5 27.5t144 -27.5t106.5 -74.5t66.5 -109.5t23 -133.5z"/>
<glyph glyph-name="Oacute" horiz-adv-x="748" unicode="Ó" d="M304 724l75 124h183l-130 -124h-128zM374 118q43 0 76 16t55.5 44.5t33.5 68t11 86.5t-11 86.5t-33.5 68t-55.5 44.5t-76 16q-44 0 -76.5 -16t-55 -44.5t-33.5 -68t-11 -86.5t11 -86.5t33.5 -68t55 -44.5t76.5 -16zM714 333q0 -71 -23 -133.5t-66.5 -109.5t-106.5 -74.5 t-144 -27.5t-144.5 27.5t-107 74.5t-66 109.5t-22.5 133.5t22.5 133.5t66 109.5t107 74.5t144.5 27.5t144 -27.5t106.5 -74.5t66.5 -109.5t23 -133.5z"/>
<glyph glyph-name="Ocircumflex" horiz-adv-x="748" unicode="Ô" d="M546 724h-135l-37 52l-37 -52h-135l93 124h158zM374 118q43 0 76 16t55.5 44.5t33.5 68t11 86.5t-11 86.5t-33.5 68t-55.5 44.5t-76 16q-44 0 -76.5 -16t-55 -44.5t-33.5 -68t-11 -86.5t11 -86.5t33.5 -68t55 -44.5t76.5 -16zM714 333q0 -71 -23 -133.5t-66.5 -109.5 t-106.5 -74.5t-144 -27.5t-144.5 27.5t-107 74.5t-66 109.5t-22.5 133.5t22.5 133.5t66 109.5t107 74.5t144.5 27.5t144 -27.5t106.5 -74.5t66.5 -109.5t23 -133.5z"/>
<glyph glyph-name="Otilde" horiz-adv-x="748" unicode="Õ" d="M458 714q-24 0 -42.5 4.5t-43.5 14.5q-20 8 -34 13.5t-27 5.5q-18 0 -27 -11t-17 -27l-95 42q17 58 45.5 83t74.5 25q24 0 44.5 -4.5t45.5 -15.5q20 -8 35 -13.5t28 -5.5q17 0 26.5 12t18.5 29l86 -48q-23 -51 -50 -77.5t-68 -26.5zM374 118q43 0 76 16t55.5 44.5 t33.5 68t11 86.5t-11 86.5t-33.5 68t-55.5 44.5t-76 16q-44 0 -76.5 -16t-55 -44.5t-33.5 -68t-11 -86.5t11 -86.5t33.5 -68t55 -44.5t76.5 -16zM714 333q0 -71 -23 -133.5t-66.5 -109.5t-106.5 -74.5t-144 -27.5t-144.5 27.5t-107 74.5t-66 109.5t-22.5 133.5t22.5 133.5 t66 109.5t107 74.5t144.5 27.5t144 -27.5t106.5 -74.5t66.5 -109.5t23 -133.5z"/>
<glyph glyph-name="Odieresis" horiz-adv-x="748" unicode="Ö" d="M406 790q0 30 20.5 50.5t54.5 20.5t54.5 -20.5t20.5 -50.5q0 -31 -20.5 -51t-54.5 -20t-54.5 20t-20.5 51zM191 790q0 30 20.5 50.5t54.5 20.5t54.5 -20.5t20.5 -50.5q0 -31 -20.5 -51t-54.5 -20t-54.5 20t-20.5 51zM374 118q43 0 76 16t55.5 44.5t33.5 68t11 86.5 t-11 86.5t-33.5 68t-55.5 44.5t-76 16q-44 0 -76.5 -16t-55 -44.5t-33.5 -68t-11 -86.5t11 -86.5t33.5 -68t55 -44.5t76.5 -16zM714 333q0 -71 -23 -133.5t-66.5 -109.5t-106.5 -74.5t-144 -27.5t-144.5 27.5t-107 74.5t-66 109.5t-22.5 133.5t22.5 133.5t66 109.5t107 74.5 t144.5 27.5t144 -27.5t106.5 -74.5t66.5 -109.5t23 -133.5z"/>
<glyph glyph-name="multiply" horiz-adv-x="614" unicode="×" d="M307 412l153 153l89 -89l-153 -153l153 -153l-89 -89l-153 153l-153 -153l-89 89l153 153l-153 153l89 89z"/>
<glyph glyph-name="Oslash" horiz-adv-x="752" unicode="Ø" d="M376 118q43 0 76 16t55.5 44.5t33.5 68t11 86.5q0 60 -18 105l-245 -299q36 -21 87 -21zM200 333q0 -58 17 -106l246 299q-38 22 -87 22q-44 0 -76.5 -16t-55 -44.5t-33.5 -68t-11 -86.5zM114 102q-38 46 -58 105t-20 126q0 71 22.5 133.5t66 109.5t107 74.5t144.5 27.5 q51 0 95 -11.5t81 -31.5l78 95l86 -71l-78 -95q38 -47 58 -106t20 -125q0 -71 -23 -133.5t-66.5 -109.5t-106.5 -74.5t-144 -27.5q-51 0 -95 11.5t-81 31.5l-78 -95l-86 71z"/>
<glyph glyph-name="Ugrave" horiz-adv-x="690" unicode="Ù" d="M305 724l-130 124h183l75 -124h-128zM463 666h164v-426q0 -118 -74.5 -185t-207.5 -67t-207.5 67t-74.5 185v426h164v-431q0 -57 30 -87t88 -30t88 30t30 87v431z"/>
<glyph glyph-name="Uacute" horiz-adv-x="690" unicode="Ú" d="M257 724l75 124h183l-130 -124h-128zM463 666h164v-426q0 -118 -74.5 -185t-207.5 -67t-207.5 67t-74.5 185v426h164v-431q0 -57 30 -87t88 -30t88 30t30 87v431z"/>
<glyph glyph-name="Ucircumflex" horiz-adv-x="690" unicode="Û" d="M517 724h-135l-37 52l-37 -52h-135l93 124h158zM463 666h164v-426q0 -118 -74.5 -185t-207.5 -67t-207.5 67t-74.5 185v426h164v-431q0 -57 30 -87t88 -30t88 30t30 87v431z"/>
<glyph glyph-name="Udieresis" horiz-adv-x="690" unicode="Ü" d="M377 790q0 30 20.5 50.5t54.5 20.5t54.5 -20.5t20.5 -50.5q0 -31 -20.5 -51t-54.5 -20t-54.5 20t-20.5 51zM162 790q0 30 20.5 50.5t54.5 20.5t54.5 -20.5t20.5 -50.5q0 -31 -20.5 -51t-54.5 -20t-54.5 20t-20.5 51zM463 666h164v-426q0 -118 -74.5 -185t-207.5 -67 t-207.5 67t-74.5 185v426h164v-431q0 -57 30 -87t88 -30t88 30t30 87v431z"/>
<glyph glyph-name="Yacute" horiz-adv-x="592" unicode="Ý" d="M222 724l75 124h183l-130 -124h-128zM378 242v-242h-164v242l-219 424h175l126 -280l126 280h175z"/>
<glyph glyph-name="Thorn" horiz-adv-x="563" unicode="Þ" d="M389 332q0 92 -131 92h-29v-189h27q65 0 99 26t34 71zM547 333q0 -53 -23 -95t-63.5 -70.5t-95.5 -43.5t-119 -15h-17v-109h-164v666h164v-116h28q63 0 116.5 -13t92 -39.5t60 -67.5t21.5 -97z"/>
<glyph glyph-name="germandbls" horiz-adv-x="634" unicode="ß" d="M60 0v471q0 64 20 110.5t55.5 76.5t83 44t101.5 14q48 0 88 -12.5t68 -34.5t43.5 -53t15.5 -67q0 -39 -15.5 -66t-35.5 -53q-17 -22 -31 -36.5t-14 -32.5q0 -17 14.5 -26t45.5 -27q21 -12 41.5 -26t37 -32.5t26.5 -42.5t10 -57q0 -34 -14 -63.5t-39.5 -51t-61 -33.5 t-78.5 -12q-32 0 -67 6t-64 17l20 109q23 -9 48 -13t42 -4q27 0 42.5 10.5t15.5 29.5q0 22 -20 34t-55 30q-59 30 -81.5 64.5t-22.5 78.5q0 56 51 110q18 19 32 37t14 39q0 26 -18 40.5t-47 14.5q-91 0 -91 -113v-480h-160z"/>
<glyph glyph-name="agrave" horiz-adv-x="535" unicode="à" d="M217 559l-116 169h169l76 -169h-129zM241 95q23 0 43.5 6t37.5 16v73q-24 -2 -43 -4.5t-37 -4.5q-49 -6 -49 -46q0 -18 12.5 -29t35.5 -11zM328 48q-23 -23 -62.5 -40.5t-86.5 -17.5q-33 0 -59 11t-43.5 30t-27 44.5t-9.5 54.5q0 68 42.5 102.5t120.5 40.5q29 2 61.5 3 t57.5 2v16q0 80 -89 80q-35 0 -67.5 -8t-59.5 -22l-29 111q35 20 82.5 32.5t103.5 12.5q103 0 161 -53.5t58 -160.5v-286h-154v48z"/>
<glyph glyph-name="aacute" horiz-adv-x="535" unicode="á" d="M189 559l73 169h175l-116 -169h-132zM241 95q23 0 43.5 6t37.5 16v73q-24 -2 -43 -4.5t-37 -4.5q-49 -6 -49 -46q0 -18 12.5 -29t35.5 -11zM328 48q-23 -23 -62.5 -40.5t-86.5 -17.5q-33 0 -59 11t-43.5 30t-27 44.5t-9.5 54.5q0 68 42.5 102.5t120.5 40.5q29 2 61.5 3 t57.5 2v16q0 80 -89 80q-35 0 -67.5 -8t-59.5 -22l-29 111q35 20 82.5 32.5t103.5 12.5q103 0 161 -53.5t58 -160.5v-286h-154v48z"/>
<glyph glyph-name="acircumflex" horiz-adv-x="535" unicode="â" d="M457 559h-132l-48 82l-48 -82h-132l109 169h142zM241 95q23 0 43.5 6t37.5 16v73q-24 -2 -43 -4.5t-37 -4.5q-49 -6 -49 -46q0 -18 12.5 -29t35.5 -11zM328 48q-23 -23 -62.5 -40.5t-86.5 -17.5q-33 0 -59 11t-43.5 30t-27 44.5t-9.5 54.5q0 68 42.5 102.5t120.5 40.5 q29 2 61.5 3t57.5 2v16q0 80 -89 80q-35 0 -67.5 -8t-59.5 -22l-29 111q35 20 82.5 32.5t103.5 12.5q103 0 161 -53.5t58 -160.5v-286h-154v48z"/>
<glyph glyph-name="atilde" horiz-adv-x="535" unicode="ã" d="M356 562q-22 0 -40.5 6.5t-39.5 16.5q-19 8 -33 14.5t-26 6.5q-17 0 -26 -12.5t-19 -32.5l-89 43q12 33 24.5 55t27.5 36t34 20t43 6t43 -7t39 -18q19 -10 31.5 -14.5t23.5 -4.5q18 0 27.5 11.5t20.5 33.5l86 -44q-14 -30 -27.5 -52t-28 -36t-32 -21t-39.5 -7zM241 95 q23 0 43.5 6t37.5 16v73q-24 -2 -43 -4.5t-37 -4.5q-49 -6 -49 -46q0 -18 12.5 -29t35.5 -11zM328 48q-23 -23 -62.5 -40.5t-86.5 -17.5q-33 0 -59 11t-43.5 30t-27 44.5t-9.5 54.5q0 68 42.5 102.5t120.5 40.5q29 2 61.5 3t57.5 2v16q0 80 -89 80q-35 0 -67.5 -8t-59.5 -22 l-29 111q35 20 82.5 32.5t103.5 12.5q103 0 161 -53.5t58 -160.5v-286h-154v48z"/>
<glyph glyph-name="adieresis" horiz-adv-x="535" unicode="ä" d="M306 642q0 30 20 52.5t55 22.5t55 -22.5t20 -52.5q0 -31 -20 -53t-55 -22t-55 22t-20 53zM106 642q0 30 20 52.5t55 22.5t55 -22.5t20 -52.5q0 -31 -20 -53t-55 -22t-55 22t-20 53zM241 95q23 0 43.5 6t37.5 16v73q-24 -2 -43 -4.5t-37 -4.5q-49 -6 -49 -46 q0 -18 12.5 -29t35.5 -11zM328 48q-23 -23 -62.5 -40.5t-86.5 -17.5q-33 0 -59 11t-43.5 30t-27 44.5t-9.5 54.5q0 68 42.5 102.5t120.5 40.5q29 2 61.5 3t57.5 2v16q0 80 -89 80q-35 0 -67.5 -8t-59.5 -22l-29 111q35 20 82.5 32.5t103.5 12.5q103 0 161 -53.5t58 -160.5 v-286h-154v48z"/>
<glyph glyph-name="aring" horiz-adv-x="535" unicode="å" d="M240 650q0 -17 10 -26.5t26 -9.5t26 9.5t10 26.5t-10 26.5t-26 9.5t-26 -9.5t-10 -26.5zM381 650q0 -18 -7 -34.5t-20 -30t-33 -21.5t-45 -8q-26 0 -45.5 8t-32.5 21.5t-20 30t-7 34.5t7 35t20 30.5t32.5 21.5t45.5 8q25 0 45 -8t33 -21.5t20 -30.5t7 -35zM241 95 q23 0 43.5 6t37.5 16v73q-24 -2 -43 -4.5t-37 -4.5q-49 -6 -49 -46q0 -18 12.5 -29t35.5 -11zM328 48q-23 -23 -62.5 -40.5t-86.5 -17.5q-33 0 -59 11t-43.5 30t-27 44.5t-9.5 54.5q0 68 42.5 102.5t120.5 40.5q29 2 61.5 3t57.5 2v16q0 80 -89 80q-35 0 -67.5 -8t-59.5 -22 l-29 111q35 20 82.5 32.5t103.5 12.5q103 0 161 -53.5t58 -160.5v-286h-154v48z"/>
<glyph glyph-name="ae" horiz-adv-x="813" unicode="æ" d="M344 128q-7 17 -11 31t-7 31l-84 -15q-24 -5 -36.5 -13t-12.5 -27q0 -18 13 -28t35 -10q26 0 51.5 7t51.5 24zM565 396q-37 0 -57 -24t-21 -66h141q2 8 2 18q0 32 -16.5 52t-48.5 20zM574 500q99 0 149.5 -57.5t50.5 -155.5q0 -19 -2.5 -41.5t-6.5 -39.5h-279 q1 -47 29 -73.5t88 -26.5q35 0 69 9t72 26l26 -107q-40 -21 -88 -32.5t-100 -11.5q-64 0 -111.5 18.5t-80.5 52.5q-38 -32 -85.5 -51.5t-107.5 -19.5q-39 0 -68.5 11t-49 30t-29.5 44.5t-10 54.5q0 68 42.5 101.5t120.5 41.5q35 4 63.5 6t55.5 4v9q0 38 -19.5 60t-69.5 22 q-64 0 -129 -29l-31 114q39 20 82.5 30.5t97.5 10.5q48 0 87 -15.5t68 -50.5q32 32 72.5 49t93.5 17z"/>
<glyph glyph-name="ccedilla" horiz-adv-x="454" unicode="ç" d="M392 -113q0 -25 -14.5 -43.5t-39.5 -31t-57.5 -19.5t-69.5 -9l-12 74q23 2 43 8.5t20 21.5q0 8 -5.5 13.5t-14.5 8.5t-19.5 5t-20.5 3l26 77q-48 9 -85.5 30.5t-63.5 53.5t-39.5 74t-13.5 92q0 57 18 104t52 80.5t83.5 52t111.5 18.5q38 0 74.5 -8t63.5 -22l-16 -114 q-19 8 -45.5 14t-53.5 6q-64 0 -96 -35t-32 -96t32 -96t96 -35q27 0 53.5 6t45.5 14l16 -114q-24 -12 -56 -19.5t-66 -9.5l-8 -34q18 0 34.5 -4t29.5 -12.5t21 -21.5t8 -32z"/>
<glyph glyph-name="egrave" horiz-adv-x="516" unicode="è" d="M206 559l-116 169h169l76 -169h-129zM272 398q-38 0 -58.5 -24.5t-20.5 -67.5h142q2 8 2 17q0 32 -17 53.5t-48 21.5zM277 500q96 0 152 -56.5t56 -156.5q0 -38 -9 -81h-284q2 -45 30.5 -72.5t87.5 -27.5q36 0 75.5 6.5t68.5 19.5l20 -103q-38 -19 -85.5 -29t-98.5 -10 q-64 0 -113 18.5t-82 51.5t-50 79t-17 102q0 60 17.5 108t50 81.5t78.5 51.5t103 18z"/>
<glyph glyph-name="eacute" horiz-adv-x="516" unicode="é" d="M189 559l73 169h175l-116 -169h-132zM272 398q-38 0 -58.5 -24.5t-20.5 -67.5h142q2 8 2 17q0 32 -17 53.5t-48 21.5zM277 500q96 0 152 -56.5t56 -156.5q0 -38 -9 -81h-284q2 -45 30.5 -72.5t87.5 -27.5q36 0 75.5 6.5t68.5 19.5l20 -103q-38 -19 -85.5 -29t-98.5 -10 q-64 0 -113 18.5t-82 51.5t-50 79t-17 102q0 60 17.5 108t50 81.5t78.5 51.5t103 18z"/>
<glyph glyph-name="ecircumflex" horiz-adv-x="516" unicode="ê" d="M452 559h-132l-48 82l-48 -82h-132l109 169h142zM272 398q-38 0 -58.5 -24.5t-20.5 -67.5h142q2 8 2 17q0 32 -17 53.5t-48 21.5zM277 500q96 0 152 -56.5t56 -156.5q0 -38 -9 -81h-284q2 -45 30.5 -72.5t87.5 -27.5q36 0 75.5 6.5t68.5 19.5l20 -103q-38 -19 -85.5 -29 t-98.5 -10q-64 0 -113 18.5t-82 51.5t-50 79t-17 102q0 60 17.5 108t50 81.5t78.5 51.5t103 18z"/>
<glyph glyph-name="edieresis" horiz-adv-x="516" unicode="ë" d="M298 642q0 30 20 52.5t55 22.5t55 -22.5t20 -52.5q0 -31 -20 -53t-55 -22t-55 22t-20 53zM98 642q0 30 20 52.5t55 22.5t55 -22.5t20 -52.5q0 -31 -20 -53t-55 -22t-55 22t-20 53zM272 398q-38 0 -58.5 -24.5t-20.5 -67.5h142q2 8 2 17q0 32 -17 53.5t-48 21.5zM277 500 q96 0 152 -56.5t56 -156.5q0 -38 -9 -81h-284q2 -45 30.5 -72.5t87.5 -27.5q36 0 75.5 6.5t68.5 19.5l20 -103q-38 -19 -85.5 -29t-98.5 -10q-64 0 -113 18.5t-82 51.5t-50 79t-17 102q0 60 17.5 108t50 81.5t78.5 51.5t103 18z"/>
<glyph glyph-name="igrave" horiz-adv-x="280" unicode="ì" d="M76 559l-116 169h169l76 -169h-129zM60 0v490h160v-490h-160z"/>
<glyph glyph-name="iacute" horiz-adv-x="280" unicode="í" d="M75 559l73 169h175l-116 -169h-132zM60 0v490h160v-490h-160z"/>
<glyph glyph-name="icircumflex" horiz-adv-x="280" unicode="î" d="M320 559h-132l-48 82l-48 -82h-132l109 169h142zM60 0v490h160v-490h-160z"/>
<glyph glyph-name="idieresis" horiz-adv-x="280" unicode="ï" d="M165 642q0 30 20 52.5t55 22.5t55 -22.5t20 -52.5q0 -31 -20 -53t-55 -22t-55 22t-20 53zM-35 642q0 30 20 52.5t55 22.5t55 -22.5t20 -52.5q0 -31 -20 -53t-55 -22t-55 22t-20 53zM60 0v490h160v-490h-160z"/>
<glyph glyph-name="eth" horiz-adv-x="572" unicode="ð" d="M186 228q0 -49 25 -82.5t70 -33.5q30 0 50 14t31.5 36.5t16.5 50t5 55.5v53q-18 8 -38.5 14t-48.5 6q-51 0 -81 -27t-30 -86zM160 532l45 38q-27 9 -54.5 14t-58.5 9l30 123q50 -6 99.5 -17.5t96.5 -32.5l72 62l42 -47l-55 -47q81 -57 124 -138t43 -193 q0 -63 -16.5 -119.5t-49.5 -99.5t-83 -68.5t-117 -25.5q-63 0 -110 19.5t-78 52.5t-46.5 77.5t-15.5 94.5q0 57 18 99.5t49 71t70.5 42.5t83.5 14q38 0 68.5 -6.5t60.5 -23.5q-17 39 -45 64.5t-64 45.5l-66 -56z"/>
<glyph glyph-name="ntilde" horiz-adv-x="583" unicode="ñ" d="M373 562q-22 0 -40.5 6.5t-39.5 16.5q-19 8 -33 14.5t-26 6.5q-17 0 -26 -12.5t-19 -32.5l-89 43q12 33 24.5 55t27.5 36t34 20t43 6t43 -7t39 -18q19 -10 31.5 -14.5t23.5 -4.5q18 0 27.5 11.5t20.5 33.5l86 -44q-14 -30 -27.5 -52t-28 -36t-32 -21t-39.5 -7zM60 0v490 h154v-64q23 40 59.5 57t77.5 17q49 0 83 -20.5t55.5 -54.5t31 -78.5t9.5 -93.5v-253h-160v256q0 61 -19 89.5t-58 28.5q-25 0 -43.5 -11t-29.5 -27v-336h-160z"/>
<glyph glyph-name="ograve" horiz-adv-x="574" unicode="ò" d="M227 559l-116 169h169l76 -169h-129zM388 245q0 26 -5 50.5t-16.5 44t-31 31t-48.5 11.5t-48.5 -11.5t-31 -31t-16.5 -44t-5 -50.5t5 -50.5t16.5 -44t31 -31t48.5 -11.5t48.5 11.5t31 31t16.5 44t5 50.5zM548 245q0 -54 -17 -100.5t-50 -81t-82 -54t-112 -19.5t-112 19.5 t-82 54t-50 81t-17 100.5t17 100.5t50 81t82 54t112 19.5t112 -19.5t82 -54t50 -81t17 -100.5z"/>
<glyph glyph-name="oacute" horiz-adv-x="574" unicode="ó" d="M214 559l73 169h175l-116 -169h-132zM388 245q0 26 -5 50.5t-16.5 44t-31 31t-48.5 11.5t-48.5 -11.5t-31 -31t-16.5 -44t-5 -50.5t5 -50.5t16.5 -44t31 -31t48.5 -11.5t48.5 11.5t31 31t16.5 44t5 50.5zM548 245q0 -54 -17 -100.5t-50 -81t-82 -54t-112 -19.5t-112 19.5 t-82 54t-50 81t-17 100.5t17 100.5t50 81t82 54t112 19.5t112 -19.5t82 -54t50 -81t17 -100.5z"/>
<glyph glyph-name="ocircumflex" horiz-adv-x="574" unicode="ô" d="M467 559h-132l-48 82l-48 -82h-132l109 169h142zM388 245q0 26 -5 50.5t-16.5 44t-31 31t-48.5 11.5t-48.5 -11.5t-31 -31t-16.5 -44t-5 -50.5t5 -50.5t16.5 -44t31 -31t48.5 -11.5t48.5 11.5t31 31t16.5 44t5 50.5zM548 245q0 -54 -17 -100.5t-50 -81t-82 -54 t-112 -19.5t-112 19.5t-82 54t-50 81t-17 100.5t17 100.5t50 81t82 54t112 19.5t112 -19.5t82 -54t50 -81t17 -100.5z"/>
<glyph glyph-name="otilde" horiz-adv-x="574" unicode="õ" d="M371 562q-22 0 -40.5 6.5t-39.5 16.5q-19 8 -33 14.5t-26 6.5q-17 0 -26 -12.5t-19 -32.5l-89 43q12 33 24.5 55t27.5 36t34 20t43 6t43 -7t39 -18q19 -10 31.5 -14.5t23.5 -4.5q18 0 27.5 11.5t20.5 33.5l86 -44q-14 -30 -27.5 -52t-28 -36t-32 -21t-39.5 -7zM388 245 q0 26 -5 50.5t-16.5 44t-31 31t-48.5 11.5t-48.5 -11.5t-31 -31t-16.5 -44t-5 -50.5t5 -50.5t16.5 -44t31 -31t48.5 -11.5t48.5 11.5t31 31t16.5 44t5 50.5zM548 245q0 -54 -17 -100.5t-50 -81t-82 -54t-112 -19.5t-112 19.5t-82 54t-50 81t-17 100.5t17 100.5t50 81t82 54 t112 19.5t112 -19.5t82 -54t50 -81t17 -100.5z"/>
<glyph glyph-name="odieresis" horiz-adv-x="574" unicode="ö" d="M312 642q0 30 20 52.5t55 22.5t55 -22.5t20 -52.5q0 -31 -20 -53t-55 -22t-55 22t-20 53zM112 642q0 30 20 52.5t55 22.5t55 -22.5t20 -52.5q0 -31 -20 -53t-55 -22t-55 22t-20 53zM388 245q0 26 -5 50.5t-16.5 44t-31 31t-48.5 11.5t-48.5 -11.5t-31 -31t-16.5 -44 t-5 -50.5t5 -50.5t16.5 -44t31 -31t48.5 -11.5t48.5 11.5t31 31t16.5 44t5 50.5zM548 245q0 -54 -17 -100.5t-50 -81t-82 -54t-112 -19.5t-112 19.5t-82 54t-50 81t-17 100.5t17 100.5t50 81t82 54t112 19.5t112 -19.5t82 -54t50 -81t17 -100.5z"/>
<glyph glyph-name="divide" horiz-adv-x="596" unicode="÷" d="M381 519q0 -36 -24 -58.5t-59 -22.5t-59 22.5t-24 58.5t24 59.5t59 23.5t59 -23.5t24 -59.5zM381 125q0 -36 -24 -58.5t-59 -22.5t-59 22.5t-24 58.5t24 59.5t59 23.5t59 -23.5t24 -59.5zM60 264v118h476v-118h-476z"/>
<glyph glyph-name="oslash" horiz-adv-x="580" unicode="ø" d="M391 245q0 16 -1.5 32t-6.5 30l-150 -182q23 -17 57 -17q29 0 48.5 11.5t31 31t16.5 44t5 50.5zM189 245q0 -17 1.5 -32.5t6.5 -30.5l150 183q-23 17 -57 17q-29 0 -48.5 -11.5t-31 -31t-16.5 -44t-5 -50.5zM98 62q-35 35 -52 81.5t-17 101.5q0 54 17 100.5t50 81t82 54 t112 19.5q42 0 77 -8.5t64 -24.5l70 85l50 -41l-69 -83q69 -71 69 -183q0 -54 -17 -100.5t-50 -81t-82 -54t-112 -19.5q-83 0 -141 32l-69 -84l-51 40z"/>
<glyph glyph-name="ugrave" horiz-adv-x="579" unicode="ù" d="M247 559l-116 169h169l76 -169h-129zM519 490v-490h-154v64q-28 -42 -63 -58t-74 -16q-49 0 -82.5 20.5t-54 54.5t-29.5 78.5t-9 93.5v253h160v-256q0 -61 17 -89.5t56 -28.5q25 0 43.5 11t29.5 27v336h160z"/>
<glyph glyph-name="uacute" horiz-adv-x="579" unicode="ú" d="M207 559l73 169h175l-116 -169h-132zM519 490v-490h-154v64q-28 -42 -63 -58t-74 -16q-49 0 -82.5 20.5t-54 54.5t-29.5 78.5t-9 93.5v253h160v-256q0 -61 17 -89.5t56 -28.5q25 0 43.5 11t29.5 27v336h160z"/>
<glyph glyph-name="ucircumflex" horiz-adv-x="579" unicode="û" d="M473 559h-132l-48 82l-48 -82h-132l109 169h142zM519 490v-490h-154v64q-28 -42 -63 -58t-74 -16q-49 0 -82.5 20.5t-54 54.5t-29.5 78.5t-9 93.5v253h160v-256q0 -61 17 -89.5t56 -28.5q25 0 43.5 11t29.5 27v336h160z"/>
<glyph glyph-name="udieresis" horiz-adv-x="579" unicode="ü" d="M319 642q0 30 20 52.5t55 22.5t55 -22.5t20 -52.5q0 -31 -20 -53t-55 -22t-55 22t-20 53zM119 642q0 30 20 52.5t55 22.5t55 -22.5t20 -52.5q0 -31 -20 -53t-55 -22t-55 22t-20 53zM519 490v-490h-154v64q-28 -42 -63 -58t-74 -16q-49 0 -82.5 20.5t-54 54.5t-29.5 78.5 t-9 93.5v253h160v-256q0 -61 17 -89.5t56 -28.5q25 0 43.5 11t29.5 27v336h160z"/>
<glyph glyph-name="yacute" horiz-adv-x="506" unicode="ý" d="M177 559l73 169h175l-116 -169h-132zM113 -206l64 194l-177 502h166l90 -349l89 349h161l-232 -696h-161z"/>
<glyph glyph-name="thorn" horiz-adv-x="584" unicode="þ" d="M302 377q-27 0 -47 -8.5t-35 -25.5v-227q11 -4 25 -6t32 -2q63 0 91 38.5t28 103.5q0 54 -22.5 90.5t-71.5 36.5zM60 706h160v-269q19 27 56.5 45t83.5 18q41 0 77 -17.5t62.5 -50t41.5 -78.5t15 -103q0 -65 -20.5 -113.5t-55 -81.5t-80.5 -49.5t-98 -16.5q-26 0 -46 3.5 t-36 8.5v-208h-160v912z"/>
<glyph glyph-name="OE" horiz-adv-x="973" unicode="Œ" d="M397 548q-94 0 -146.5 -58t-52.5 -157t52.5 -157t146.5 -58q33 0 62.5 4t50.5 9v403q-56 14 -113 14zM510 0q-31 -5 -63 -8.5t-60 -3.5q-86 0 -151.5 27.5t-110.5 74.5t-68 109.5t-23 133.5t23 133.5t68 109.5t110.5 74.5t151.5 27.5q57 0 123 -12h415v-130h-251v-134 h239v-130h-239v-142h254v-130h-418z"/>
<glyph glyph-name="oe" horiz-adv-x="866" unicode="œ" d="M623 398q-38 0 -58 -25.5t-21 -66.5h143q1 8 1 15q0 29 -14.5 53t-50.5 24zM387 245q0 62 -26 99.5t-74 37.5t-74 -36.5t-26 -100.5t26 -100.5t74 -36.5t74 37.5t26 99.5zM629 500q96 0 150.5 -57.5t54.5 -155.5q0 -21 -2 -40t-7 -41h-281q1 -44 29.5 -72t87.5 -28 q39 0 72 6.5t67 21.5l24 -106q-38 -18 -83.5 -28t-100.5 -10q-58 0 -103 17.5t-77 49.5q-30 -31 -75 -49t-98 -18q-64 0 -112.5 19.5t-81.5 54t-49.5 81t-16.5 100.5t17.5 100.5t51 81t82 54t109.5 19.5q52 0 92 -14.5t80 -50.5q36 35 76.5 50t93.5 15z"/>
<glyph glyph-name="Scaron" horiz-adv-x="530" unicode="Š" d="M337 724h-158l-93 124h135l37 -52l37 52h135zM502 199q0 -44 -17.5 -82.5t-50.5 -67t-80 -45t-107 -16.5q-55 0 -110 12t-102 35l33 125q35 -17 79 -29.5t95 -12.5q42 0 69 15.5t27 50.5q0 25 -23.5 45.5t-85.5 43.5q-98 37 -143 84.5t-45 121.5q0 97 63.5 148t175.5 51 q57 0 109 -12.5t88 -32.5l-28 -123q-35 17 -76.5 27.5t-85.5 10.5q-37 0 -59.5 -12.5t-22.5 -42.5q0 -14 4 -24t14.5 -19t29.5 -18t48 -21q42 -17 79 -36t64 -44t42.5 -57t15.5 -75z"/>
<glyph glyph-name="scaron" horiz-adv-x="435" unicode="š" d="M287 559h-142l-109 169h132l48 -82l48 82h132zM409 160q0 -41 -15.5 -73t-44 -53.5t-67.5 -32.5t-86 -11q-40 0 -84 7.5t-80 22.5l22 111q31 -13 68.5 -19.5t65.5 -6.5q29 0 50.5 8.5t21.5 28.5q0 18 -19 25.5t-57 21.5q-31 11 -58 24.5t-46.5 32t-30.5 42.5t-11 56 q0 80 54 118t141 38q46 0 84 -8.5t73 -28.5l-22 -105q-27 12 -57 19.5t-63 7.5q-29 0 -44.5 -5.5t-15.5 -22.5t18.5 -24.5t47.5 -18.5q22 -8 49 -19.5t50.5 -29.5t39.5 -43.5t16 -61.5z"/>
<glyph glyph-name="Ydieresis" horiz-adv-x="592" unicode="Ÿ" d="M328 790q0 30 20.5 50.5t54.5 20.5t54.5 -20.5t20.5 -50.5q0 -31 -20.5 -51t-54.5 -20t-54.5 20t-20.5 51zM113 790q0 30 20.5 50.5t54.5 20.5t54.5 -20.5t20.5 -50.5q0 -31 -20.5 -51t-54.5 -20t-54.5 20t-20.5 51zM378 242v-242h-164v242l-219 424h175l126 -280 l126 280h175z"/>
<glyph glyph-name="circumflex" horiz-adv-x="560" unicode="ˆ" d="M460 559h-132l-48 82l-48 -82h-132l109 169h142z"/>
<glyph glyph-name="tilde" horiz-adv-x="600" unicode="˜" d="M373 562q-22 0 -40.5 6.5t-39.5 16.5q-19 8 -33 14.5t-26 6.5q-17 0 -26 -12.5t-19 -32.5l-89 43q12 33 24.5 55t27.5 36t34 20t43 6t43 -7t39 -18q19 -10 31.5 -14.5t23.5 -4.5q18 0 27.5 11.5t20.5 33.5l86 -44q-14 -30 -27.5 -52t-28 -36t-32 -21t-39.5 -7z"/>
<glyph glyph-name="u0391" d="M264 259h171l-85 281zM477 129h-255l-41 -129h-169l248 666h180l248 -666h-169z" unicode="Α"/>
<glyph glyph-name="u0392" horiz-adv-x="589" unicode="Β" d="M273 401q43 0 70 19.5t27 55.5q0 32 -23.5 49.5t-65.5 17.5h-56v-142h48zM394 201q0 38 -30.5 57.5t-84.5 19.5h-54v-155h58q60 0 85.5 23t25.5 55zM556 188q0 -45 -20 -80t-57.5 -59t-90 -36.5t-116.5 -12.5h-207v666h239q54 0 96.5 -12t71.5 -33t44.5 -49t15.5 -61 q0 -62 -34.5 -102t-100.5 -60q34 -6 63 -19t50.5 -33t33.5 -47t12 -62z"/>
<glyph glyph-name="u0393" horiz-adv-x="505" unicode="Γ" d="M229 0h-164v666h410v-130h-246v-536z"/>
<glyph glyph-name="u0394" d="M350 540l-147 -411h278zM12 0l248 666h180l248 -666h-676z" unicode="Δ"/>
<glyph glyph-name="u0395" horiz-adv-x="531" unicode="Ε" d="M65 666h415v-130h-251v-134h239v-130h-239v-142h254v-130h-418v666z"/>
<glyph glyph-name="u0396" horiz-adv-x="570" unicode="Ζ" d="M56 666h466v-130l-292 -406h302v-130h-484v130l292 406h-284v130z"/>
<glyph glyph-name="u0397" horiz-adv-x="702" unicode="Η" d="M473 0v271h-244v-271h-164v666h164v-261h244v261h164v-666h-164z"/>
<glyph glyph-name="u0398" horiz-adv-x="748" unicode="Θ" d="M247 273v128h254v-128h-254zM374 118q43 0 76 16t55.5 44.5t33.5 68t11 86.5t-11 86.5t-33.5 68t-55.5 44.5t-76 16q-44 0 -76.5 -16t-55 -44.5t-33.5 -68t-11 -86.5t11 -86.5t33.5 -68t55 -44.5t76.5 -16zM714 333q0 -71 -23 -133.5t-66.5 -109.5t-106.5 -74.5 t-144 -27.5t-144.5 27.5t-107 74.5t-66 109.5t-22.5 133.5q0 70 22.5 133t66 110t107 74.5t144.5 27.5t144 -27.5t106.5 -74.5t66.5 -110t23 -133z"/>
<glyph glyph-name="u0399" horiz-adv-x="304" unicode="Ι" d="M234 0h-164v666h164v-666z"/>
<glyph glyph-name="u039A" horiz-adv-x="640" unicode="Κ" d="M65 0v666h164v-319l210 319h185l-225 -329l241 -337h-197l-214 326v-326h-164z"/>
<glyph glyph-name="u039B" horiz-adv-x="684" unicode="Λ" d="M342 540l-161 -540h-169l240 666h180l240 -666h-169z"/>
<glyph glyph-name="u039C" horiz-adv-x="864" unicode="Μ" d="M511 106h-158l-130 267l-20 -373h-161l50 666h148l192 -407l192 407h148l50 -666h-161l-20 373z"/>
<glyph glyph-name="u039D" horiz-adv-x="721" unicode="Ν" d="M498 0l-275 397v-397h-158v666h158l275 -397v397h158v-666h-158z"/>
<glyph glyph-name="u039E" horiz-adv-x="619" unicode="Ξ" d="M134 402h338v-130h-338v130zM59 666h489v-130h-488zM49 130h509v-130h-509v130z"/>
<glyph glyph-name="u039F" horiz-adv-x="748" unicode="Ο" d="M374 118q43 0 76 16t55.5 44.5t33.5 68t11 86.5t-11 86.5t-33.5 68t-55.5 44.5t-76 16q-44 0 -76.5 -16t-55 -44.5t-33.5 -68t-11 -86.5t11 -86.5t33.5 -68t55 -44.5t76.5 -16zM714 333q0 -71 -23 -133.5t-66.5 -109.5t-106.5 -74.5t-144 -27.5t-144.5 27.5t-107 74.5 t-66 109.5t-22.5 133.5t22.5 133.5t66 109.5t107 74.5t144.5 27.5t144 -27.5t106.5 -74.5t66.5 -109.5t23 -133.5z"/>
<glyph glyph-name="u03A0" horiz-adv-x="696" unicode="Π" d="M631 666v-666h-164v536h-238v-536h-164v666h566z"/>
<glyph glyph-name="u03A1" horiz-adv-x="559" unicode="Ρ" d="M389 448q0 92 -131 92h-29v-189h27q65 0 99 26t34 71zM547 449q0 -53 -23 -95t-63.5 -70.5t-95.5 -43.5t-119 -15h-17v-225h-164v666h192q63 0 116.5 -13t92 -39.5t60 -67.5t21.5 -97z"/>
<glyph glyph-name="u03A3" horiz-adv-x="557" unicode="Σ" d="M220 129h287v-129h-460v113l195 236l-187 204v113h438v-129h-255l168 -186z"/>
<glyph glyph-name="u03A4" horiz-adv-x="550" unicode="Τ" d="M536 666v-130h-179v-536h-164v536h-179v130h522z"/>
<glyph glyph-name="u03A5" horiz-adv-x="592" unicode="Υ" d="M378 242v-242h-164v242l-219 424h175l126 -280l126 280h175z"/>
<glyph glyph-name="u03A6" horiz-adv-x="906" unicode="Φ" d="M197 339q0 -37 11.5 -69t34 -56t54.5 -39t74 -17v366q-84 -3 -129 -53t-45 -132zM709 343q0 89 -46.5 133t-127.5 48v-366q38 2 70 15t55 36.5t36 57t13 76.5zM371 48q-73 0 -134.5 20.5t-106.5 58.5t-70.5 92t-25.5 122q0 63 20.5 116t62 91.5t105 61t149.5 24.5v50h164 v-50q172 -5 254.5 -83t82.5 -208q0 -61 -25.5 -114.5t-70.5 -93.5t-106.5 -63.5t-134.5 -23.5v-54h-164v54z"/>
<glyph glyph-name="u03A7" horiz-adv-x="654" unicode="Χ" d="M411 335l225 -335h-175l-134 213l-134 -213h-175l225 335l-221 331h174l131 -208l131 208h174z"/>
<glyph glyph-name="u03A8" horiz-adv-x="814" unicode="Ψ" d="M489 308q43 3 70.5 14.5t43.5 32t21.5 49t5.5 65.5v197h164v-212q0 -80 -25 -128t-67.5 -74t-97.5 -35.5t-115 -10.5v-206h-164v206q-60 1 -115 10.5t-97.5 35.5t-67.5 74t-25 128v212h164v-197q0 -37 5.5 -65.5t21.5 -49t43 -32t71 -14.5v358h164v-358z"/>
<glyph glyph-name="u03B1" horiz-adv-x="643" unicode="α" d="M186 242q0 -38 8.5 -63.5t21.5 -41.5t28 -22.5t29 -6.5q44 0 69 40.5t37 106.5q-7 27 -16 50.5t-22 41t-30 27t-40 9.5q-35 0 -60 -36t-25 -105zM568 490l-38 -231q2 -33 8.5 -62t17.5 -50t27 -33.5t37 -12.5l-12 -95q-15 -9 -29.5 -12.5t-37.5 -3.5q-42 0 -65.5 25 t-33.5 76q-38 -54 -85 -77.5t-111 -23.5q-42 0 -81.5 16t-70 48.5t-49.5 82t-19 115.5q0 62 19.5 108.5t51 77.5t71.5 46.5t82 15.5q69 0 106.5 -23t53.5 -52l5 65h153z"/>
<glyph glyph-name="u03B2" horiz-adv-x="603" unicode="β" d="M220 135q12 -16 35.5 -24.5t52.5 -8.5q48 0 67.5 27t19.5 69q0 41 -24 63.5t-66 22.5h-31v108q32 0 52.5 4.5t32.5 15t16.5 27t4.5 40.5q0 29 -7 48t-19 30.5t-27.5 16t-31.5 4.5q-33 0 -54 -21.5t-21 -64.5v-357zM60 -206v638q0 64 18.5 110.5t51.5 76.5t78 44.5 t99 14.5q113 0 169.5 -46.5t56.5 -120.5q0 -56 -26 -92.5t-74 -56.5v-5q29 -9 52 -22t38.5 -32.5t23.5 -47t8 -65.5q0 -51 -17 -88.5t-45.5 -62.5t-66 -37t-79.5 -12q-27 0 -47 3t-35 8t-25.5 11t-19.5 12v-230h-160z"/>
<glyph glyph-name="u03B3" horiz-adv-x="537" unicode="γ" d="M189 -206v209l-182 487h164l114 -361q22 31 37.5 73.5t25.5 88t15 89.5t5 77v33h137q2 -6 2 -15v-18q0 -134 -44 -248t-114 -208v-207h-160z"/>
<glyph glyph-name="u03B4" horiz-adv-x="573" unicode="δ" d="M258 345q-20 -10 -33.5 -24.5t-22 -32t-12.5 -36t-4 -36.5q0 -30 9 -51t23.5 -33.5t31.5 -18t34 -5.5q26 0 45 9t32 24t19 34t6 39q0 16 -4.5 32t-18.5 32t-39 33t-66 34zM449 510q-32 20 -66.5 33t-72.5 13q-32 0 -43 -7.5t-11 -21.5q0 -9 8 -16t26.5 -17.5t49.5 -26.5 t77 -44q30 -18 53.5 -36t40 -39.5t25.5 -49.5t9 -66q0 -59 -23 -104t-60 -75.5t-83.5 -46t-92.5 -15.5q-60 0 -108 15.5t-82 43.5t-52 66.5t-18 85.5q0 45 14 77.5t36.5 56t49.5 39t54 27.5q-48 29 -65.5 58.5t-17.5 68.5q0 30 12.5 57t37.5 47.5t62.5 32.5t86.5 12 q53 0 100.5 -9.5t94.5 -34.5z"/>
<glyph glyph-name="u03B5" horiz-adv-x="459" unicode="ε" d="M147 252q-50 11 -71.5 41t-21.5 66q0 39 17.5 66t47 43.5t67.5 24t80 7.5q41 0 76.5 -5.5t77.5 -16.5l-23 -112q-21 10 -54 16t-60 6q-39 0 -63 -11.5t-24 -36.5q0 -23 20 -30.5t52 -7.5h77v-101h-57q-47 0 -62 -13t-15 -37q0 -41 82 -41q13 0 29 2t32.5 5t32 7.5 t26.5 10.5l16 -115q-12 -6 -33.5 -12t-47 -10t-52 -6.5t-47.5 -2.5q-101 0 -155.5 35t-54.5 101q0 48 28 77t80 46v4z"/>
<glyph glyph-name="u03B6" horiz-adv-x="450" unicode="ζ" d="M193 4q-40 16 -70.5 35.5t-51.5 43.5t-32 54.5t-11 70.5q0 61 23.5 111t59 90.5t77 72.5t78.5 58h-227v126h392v-124q-47 -35 -91 -70.5t-78 -72t-54.5 -74t-20.5 -76.5q0 -29 7.5 -49.5t22.5 -36.5t37.5 -29t52.5 -28q36 -18 61 -32.5t41 -30.5t23 -35.5t7 -47.5 q0 -26 -8 -52t-27 -49t-49 -42.5t-73 -32.5l-48 87q42 13 56 29t14 33q0 12 -6.5 20t-20 15.5t-34.5 15.5t-50 20z"/>
<glyph glyph-name="u03B7" horiz-adv-x="583" unicode="η" d="M60 0v490h154v-64q23 40 59 57t78 17q49 0 83 -18.5t55.5 -49.5t31 -70.5t9.5 -82.5v-484h-160v461q0 65 -19 91.5t-58 26.5q-25 0 -43.5 -11t-29.5 -27v-336h-160z"/>
<glyph glyph-name="u03B8" horiz-adv-x="606" unicode="θ" d="M197 281q3 -80 30.5 -127t75.5 -47q52 0 77 48t30 126h-213zM303 560q-52 0 -78.5 -45.5t-27.5 -120.5h213q-8 75 -32.5 120.5t-74.5 45.5zM570 333q0 -77 -18 -140.5t-52.5 -109t-84 -70.5t-112.5 -25q-66 0 -116 25t-83 70.5t-50 109t-17 140.5t16 140.5t49 109 t83 70.5t118 25q67 0 117.5 -25t83.5 -70.5t49.5 -109t16.5 -140.5z"/>
<glyph glyph-name="u03B9" horiz-adv-x="318" unicode="ι" d="M220 150q0 -19 8 -29.5t31 -10.5q14 0 34 3l5 -110q-20 -6 -45.5 -9.5t-52.5 -3.5q-40 0 -67 12t-43 32t-23 45.5t-7 52.5v358h160v-340z"/>
<glyph glyph-name="u03BA" horiz-adv-x="563" unicode="κ" d="M60 0v490h160v-229l147 229h173l-158 -241l179 -249h-183l-158 237v-237h-160z"/>
<glyph glyph-name="u03BB" horiz-adv-x="526" unicode="λ" d="M270 329l-91 -329h-167l176 475q-13 28 -29 44t-34.5 24t-39 11t-41.5 5l19 121q43 -1 84.5 -9t79.5 -31t70 -63.5t55 -106.5l166 -470h-152z"/>
<glyph glyph-name="u03BC" horiz-adv-x="611" unicode="μ" d="M60 490h160v-256q0 -61 17 -89.5t56 -28.5q25 0 42.5 11t30.5 28v335h160v-346q0 -23 8.5 -33t31.5 -10h15v-94q-18 -7 -39 -11t-47 -4q-54 0 -81.5 22t-38.5 60q-21 -37 -57 -60.5t-83 -23.5q-26 0 -47.5 6t-39.5 17q34 -23 53 -64.5t19 -87.5v-67h-160v696z"/>
<glyph glyph-name="u03BD" horiz-adv-x="539" unicode="ν" d="M179 0l-166 490h161l110 -354q23 45 39 93t26 95t15 89.5t8 76.5h151q-25 -139 -69.5 -258.5t-104.5 -231.5h-170z"/>
<glyph glyph-name="u03BE" horiz-adv-x="465" unicode="ξ" d="M194 4q-33 10 -61.5 24t-49.5 34.5t-33 48t-12 64.5q0 64 30.5 100t95.5 61v5q-16 7 -35.5 18t-36 29.5t-28 46.5t-11.5 69q0 44 17.5 76.5t45.5 54.5t64 32.5t73 10.5q35 0 75.5 -6.5t75.5 -19.5l-14 -117q-32 11 -61.5 15t-46.5 4q-11 0 -25.5 -2.5t-28 -10.5 t-22.5 -22.5t-9 -37.5q0 -33 27 -60t86 -27h48v-113h-58q-22 0 -41 -3.5t-32.5 -13.5t-21 -26.5t-7.5 -42.5q0 -21 9.5 -34.5t25.5 -22.5t35.5 -16t39.5 -16q38 -14 63.5 -28.5t40.5 -31t21.5 -37.5t6.5 -49q0 -26 -8 -52t-27 -49t-49 -42.5t-73 -32.5l-48 87q42 13 56 29 t14 33q0 12 -4 21t-16 16.5t-34 15.5t-57 18z"/>
<glyph glyph-name="u03BF" horiz-adv-x="574" unicode="ο" d="M388 245q0 26 -5 50.5t-16.5 44t-31 31t-48.5 11.5t-48.5 -11.5t-31 -31t-16.5 -44t-5 -50.5t5 -50.5t16.5 -44t31 -31t48.5 -11.5t48.5 11.5t31 31t16.5 44t5 50.5zM548 245q0 -54 -17 -100.5t-50 -81t-82 -54t-112 -19.5t-112 19.5t-82 54t-50 81t-17 100.5t17 100.5 t50 81t82 54t112 19.5t112 -19.5t82 -54t50 -81t17 -100.5z"/>
<glyph glyph-name="u03C0" horiz-adv-x="723" unicode="π" d="M701 490v-112h-90q-3 -25 -5 -55.5t-3 -59t-1 -50.5v-31q0 -72 44 -72q7 0 18 0.5t21 2.5l5 -110q-20 -6 -48 -9.5t-55 -3.5q-40 0 -67 12.5t-43 34t-23 51.5t-7 65q0 51 3.5 107.5t7.5 117.5h-128v-32q0 -41 -2.5 -89t-7 -95.5t-11.5 -89.5t-16 -72h-160q9 29 16.5 70.5 t13 88.5t8.5 95.5t3 91.5v32q-74 0 -109 -44l-45 85q6 10 19 22.5t34.5 23t53 18t75.5 7.5h499z"/>
<glyph glyph-name="u03C1" horiz-adv-x="584" unicode="ρ" d="M295 377q-22 0 -36.5 -8t-23 -22t-12 -33.5t-3.5 -41.5v-156q11 -4 25 -6t32 -2q63 0 91 38t28 104q0 54 -23.5 90.5t-77.5 36.5zM60 238q0 63 13 107t33.5 73t47 45.5t53 24.5t51.5 10t43 2q67 0 115.5 -18.5t79.5 -52t45.5 -80.5t14.5 -103q0 -58 -20.5 -105.5t-55 -81 t-80.5 -51.5t-98 -18q-26 0 -46 3.5t-36 8.5v-208h-160v444z"/>
<glyph glyph-name="u03C2" horiz-adv-x="453" unicode="ς" d="M288 500q40 0 77.5 -8.5t62.5 -20.5l-15 -115q-26 11 -49 15.5t-49 4.5q-29 0 -52.5 -7t-40.5 -23t-26.5 -42t-9.5 -64q0 -26 9 -46.5t25 -36.5t38.5 -28.5t49.5 -22.5q38 -14 63.5 -28.5t40.5 -31t21.5 -37.5t6.5 -49q0 -26 -8 -52t-27 -49t-49 -42.5t-73 -32.5l-48 87 q42 13 56 29t14 33q0 12 -4 21t-16 16.5t-34 15.5t-57 18q-37 10 -67.5 30t-53 49.5t-35 67.5t-12.5 86q0 52 13 99.5t43.5 84t81 58t124.5 21.5z"/>
<glyph glyph-name="u03C3" horiz-adv-x="599" unicode="σ" d="M388 245q0 26 -5 50.5t-16.5 44t-31 31t-48.5 11.5t-48.5 -11.5t-31 -31t-16.5 -44t-5 -50.5t5 -50.5t16.5 -44t31 -31t48.5 -11.5t48.5 11.5t31 31t16.5 44t5 50.5zM548 223q0 -46 -17 -88t-50 -74.5t-82 -51.5t-112 -19t-112 19.5t-82 54t-50 81t-17 100.5 q0 72 24 119.5t62 75t85 39t93 11.5h291v-111h-131q15 -7 32 -19.5t32 -31.5t24.5 -45t9.5 -60z"/>
<glyph glyph-name="u03C4" horiz-adv-x="525" unicode="τ" d="M190 378h-39q-36 0 -57.5 -10.5t-39.5 -31.5l-45 85q15 29 46 49t87 20h369v-112h-160v-228q0 -14 7.5 -27t30.5 -13q14 0 34 3l5 -110q-20 -6 -45.5 -9.5t-52.5 -3.5q-40 0 -67 10.5t-43 30t-23 47.5t-7 63v237z"/>
<glyph glyph-name="u03C5" horiz-adv-x="564" unicode="υ" d="M483 490q23 -39 31.5 -87t8.5 -109q0 -53 -13 -107.5t-42 -98t-76.5 -71t-117.5 -27.5q-106 0 -160 48.5t-54 156.5v295h160v-279q0 -32 6 -52t15.5 -31t21.5 -15.5t23 -4.5q33 0 52 17.5t29 45.5t13 63.5t3 70.5q0 54 -12 104t-25 81h137z"/>
<glyph glyph-name="u03C6" horiz-adv-x="814" unicode="φ" d="M480 99q27 0 53.5 8t47 25.5t33.5 46.5t13 73q0 60 -23.5 95t-65.5 35q-29 0 -43.5 -21.5t-14.5 -69.5v-192zM26 254q0 54 11 94t26.5 68.5t33 46.5t30.5 27h154q-42 -33 -68.5 -87t-26.5 -118q0 -51 12 -84t31.5 -54t43 -31.5t47.5 -15.5v154q0 74 16 122t44.5 75.5 t67 38t84.5 10.5q70 0 118.5 -21t79 -54.5t44.5 -76.5t14 -86q0 -65 -26 -114.5t-69 -84t-98.5 -52t-114.5 -17.5v-200h-160v200q-48 0 -100 14t-95 44.5t-71 80t-28 121.5z"/>
<glyph glyph-name="u03C7" horiz-adv-x="548" unicode="χ" d="M183 480l97 -211l94 211h152l-175 -328l192 -357h-164l-113 222l-101 -222h-158l188 347l-180 338h168z"/>
<glyph glyph-name="u03C8" horiz-adv-x="822" unicode="ψ" d="M499 -206h-160v200q-47 3 -96 14.5t-90 40.5t-67 79.5t-26 131.5v230h160v-216q0 -54 10.5 -86t27.5 -48.5t38.5 -22t42.5 -6.5v500h160v-499q36 0 62 14.5t42.5 41t24.5 62.5t8 79q0 27 -3 54t-8.5 51t-12 44t-13.5 32h148q17 -32 28.5 -83t11.5 -120 q0 -59 -17.5 -111.5t-53.5 -93t-90 -64.5t-127 -24v-200z"/>
<glyph glyph-name="u03D1" horiz-adv-x="640" unicode="ϑ" d="M279 564q-21 0 -34.5 -5.5t-20.5 -14t-9.5 -18t-2.5 -18.5q0 -11 5 -24.5t21.5 -26t49 -22t88.5 -11.5q-5 71 -31 105.5t-66 34.5zM79 334q52 -6 87.5 -40t54.5 -91q8 -24 14.5 -42t15 -29.5t20 -17.5t29.5 -6q17 0 30 9.5t22 32.5t13.5 61t6.5 95q-81 2 -138 20t-93 45 t-53 60t-17 65q0 38 11 71.5t36 59t66 40.5t100 15q75 0 124.5 -25.5t79.5 -66.5t43 -92t14 -101q37 -2 54 -8t32 -17l-33 -91q-9 7 -21.5 12.5t-33.5 6.5q-4 -83 -23 -141.5t-51 -96t-77 -55t-101 -17.5q-51 0 -84 14t-54 37t-33 52t-21 59q-8 28 -23.5 44t-36.5 26z"/>
<glyph glyph-name="u03D2" horiz-adv-x="620" unicode="ϒ" d="M85 671q39 -8 74 -32.5t64 -59.5t51 -78.5t36 -89.5q11 45 33 88t51.5 78.5t65 60.5t74.5 33l83 -103q-44 -12 -84.5 -45.5t-71.5 -82t-50 -109.5t-19 -127v-204h-164v204q0 66 -18.5 127t-49.5 109.5t-72 82t-86 45.5z"/>
<glyph glyph-name="u03D6" horiz-adv-x="784" unicode="ϖ" d="M390 105q-15 -36 -32 -58.5t-37 -35t-44 -17t-53 -4.5q-38 0 -73 13.5t-61 39.5t-41.5 64t-15.5 88q0 51 15 97t47 86h-68v112h730v-112h-68q12 -15 23 -36t20 -45t14 -50.5t5 -51.5q0 -50 -15.5 -88t-42 -64t-61 -39.5t-72.5 -13.5q-29 0 -53.5 5t-44.5 17.5t-37 35 t-31 57.5h-4zM472 311v-111q0 -25 6 -41t15 -25.5t20 -13t21 -3.5q11 0 21 5t18 17t13 33t5 54q0 37 -7 73t-27 79h-330q-20 -32 -27 -73.5t-7 -78.5q0 -33 6 -54t15 -33t20.5 -17t22.5 -5q10 0 20 3.5t17.5 13t12.5 25.5t5 41v111h160z"/>
<glyph glyph-name="endash" horiz-adv-x="525" unicode="–" d="M50 259v128h425v-128h-425z"/>
<glyph glyph-name="emdash" horiz-adv-x="804" unicode="—" d="M50 195v128h704v-128h-704z"/>
<glyph glyph-name="quoteleft" horiz-adv-x="288" unicode="‘" d="M258 649q-32 -63 -46.5 -123t-18.5 -127l-153 15q1 87 32 160t80 132z"/>
<glyph glyph-name="quotesinglbase" horiz-adv-x="296" unicode="‚" d="M33 -105q32 63 46.5 123t18.5 127l153 -15q-1 -87 -32 -160t-80 -132z"/>
<glyph glyph-name="quotedblleft" horiz-adv-x="516" unicode="“" d="M258 649q-32 -63 -46.5 -123t-18.5 -127l-153 15q1 87 32 160t80 132zM486 649q-32 -63 -46.5 -123t-18.5 -127l-153 15q1 87 32 160t80 132z"/>
<glyph glyph-name="quotedblright" horiz-adv-x="516" unicode="”" d="M268 456q32 63 46.5 123t18.5 127l153 -15q-1 -87 -32 -160t-80 -132zM40 456q32 63 46.5 123t18.5 127l153 -15q-1 -87 -32 -160t-80 -132z"/>
<glyph glyph-name="dagger" horiz-adv-x="464" unicode="†" d="M182 80l-30 302l29 92l-71 -26h-60v132h60l71 -27l-29 93v60h160v-60l-29 -93l71 27h60v-132h-60l-71 26l29 -92l-30 -302h-100z"/>
<glyph glyph-name="daggerdbl" horiz-adv-x="464" unicode="‡" d="M181 474l-71 -26h-60v132h60l71 -27l-29 93v60h160v-60l-29 -93l71 27h60v-132h-60l-71 26l29 -92v-58l-29 -92l71 26h60v-132h-60l-71 27l29 -93v-60h-160v60l29 93l-71 -27h-60v132h60l71 -26l-29 92v58z"/>
<glyph glyph-name="ellipsis" horiz-adv-x="858" unicode="…" d="M625 82q0 36 23 63t67 27t67 -27t23 -63t-23 -63t-67 -27t-67 27t-23 63zM339 82q0 36 23 63t67 27t67 -27t23 -63t-23 -63t-67 -27t-67 27t-23 63zM53 82q0 36 23 63t67 27t67 -27t23 -63t-23 -63t-67 -27t-67 27t-23 63z"/>
<glyph glyph-name="perthousand" horiz-adv-x="1447" unicode="‰" d="M1280 187q0 45 -15.5 71.5t-49.5 26.5t-49.5 -26.5t-15.5 -71.5t15.5 -71.5t49.5 -26.5t49.5 26.5t15.5 71.5zM1407 187q0 -36 -11.5 -71.5t-35 -64t-59.5 -46t-86 -17.5t-86 17.5t-59.5 46t-35 64t-11.5 71.5t11.5 71.5t35 64t59.5 46t86 17.5t86 -17.5t59.5 -46t35 -64 t11.5 -71.5zM843 187q0 45 -15.5 71.5t-49.5 26.5t-49.5 -26.5t-15.5 -71.5t15.5 -71.5t49.5 -26.5t49.5 26.5t15.5 71.5zM970 187q0 -36 -11.5 -71.5t-35 -64t-59.5 -46t-86 -17.5t-86 17.5t-59.5 46t-35 64t-11.5 71.5t11.5 71.5t35 64t59.5 46t86 17.5t86 -17.5t59.5 -46 t35 -64t11.5 -71.5zM599 678l114 -55l-302 -635l-112 57zM297 479q0 45 -15.5 71.5t-49.5 26.5t-49.5 -26.5t-15.5 -71.5t15.5 -71.5t49.5 -26.5t49.5 26.5t15.5 71.5zM424 479q0 -36 -11.5 -71.5t-35 -64t-59.5 -46t-86 -17.5t-86 17.5t-59.5 46t-35 64t-11.5 71.5 t11.5 71.5t35 64t59.5 46t86 17.5t86 -17.5t59.5 -46t35 -64t11.5 -71.5z"/>
<glyph glyph-name="guilsinglleft" horiz-adv-x="375" unicode="‹" d="M320 107l-104 -81l-181 215l181 215l104 -81l-115 -134z"/>
<glyph glyph-name="guilsinglright" horiz-adv-x="375" unicode="›" d="M170 241l-115 134l104 81l181 -215l-181 -215l-104 81z"/>
<glyph glyph-name="fraction" horiz-adv-x="242" unicode="⁄" d="M240 678l102 -54l-340 -636l-102 55z"/>
<glyph glyph-name="Euro" horiz-adv-x="572" unicode="€" d="M392 678q36 0 73.5 -6t66.5 -19l-15 -113q-20 7 -44.5 10.5t-49.5 3.5q-60 0 -93.5 -22.5t-48.5 -70.5h198v-96h-212v-64h212v-96h-198q15 -48 48.5 -70.5t93.5 -22.5q25 0 49.5 3.5t44.5 10.5l15 -113q-29 -13 -66.5 -19t-73.5 -6q-106 0 -176.5 54.5t-96.5 162.5h-89 v96h76q-1 8 -1 16v16v16t1 16h-76v96h89q26 108 96.5 162.5t176.5 54.5z"/>
<glyph glyph-name="trademark" horiz-adv-x="731" unicode="™" d="M589 666h81l26 -324h-86l-12 159l-47 -113h-90l-47 113l-12 -159h-86l26 324h81l83 -181zM283 666v-73h-84v-251h-90v251h-84v73h258z"/>
<glyph glyph-name="arrowleft" horiz-adv-x="973" unicode="←" d="M393 -10l-343 343l343 343l92 -92l-187 -187h595v-128h-595l187 -187z"/>
<glyph glyph-name="arrowup" horiz-adv-x="736" unicode="↑" d="M55 363l313 313l313 -313l-92 -92l-154 154v-425h-134v425l-154 -154z"/>
<glyph glyph-name="arrowright" horiz-adv-x="973" unicode="→" d="M80 397h595l-187 187l92 92l343 -343l-343 -343l-92 92l187 187h-595v128z"/>
<glyph glyph-name="arrowdown" horiz-adv-x="736" unicode="↓" d="M147 395l154 -154v425h134v-425l154 154l92 -92l-313 -313l-313 313z"/>
<glyph glyph-name="partialdiff" horiz-adv-x="589" unicode="∂" d="M197 212q0 -42 19.5 -71.5t59.5 -29.5q28 0 48 15.5t33.5 38.5t21 51t10.5 53q-17 17 -43.5 31t-57.5 14q-44 0 -67.5 -27t-23.5 -75zM258 441q76 0 139 -51q-5 94 -39 145.5t-108 51.5q-38 0 -69 -12.5t-55 -29.5l-46 109q48 33 95 47.5t101 14.5q67 0 119 -27 t87.5 -74.5t53.5 -111.5t18 -138q0 -70 -18 -137.5t-55 -121t-92 -86t-128 -32.5q-51 0 -92 17t-69.5 47t-44 71.5t-15.5 89.5q0 107 58 167.5t160 60.5z"/>
<glyph glyph-name="product" horiz-adv-x="848" unicode="∏" d="M320 -206h-160v746h-120v126h768v-126h-120v-746h-160v746h-208v-746z"/>
<glyph glyph-name="summation" horiz-adv-x="568" unicode="∑" d="M222 -80h306v-126h-488v126l223 310l-223 310v126h488v-126h-306l222 -310z"/>
<glyph glyph-name="minus" horiz-adv-x="576" unicode="−" d="M50 264v118h476v-118h-476z"/>
<glyph glyph-name="radical" horiz-adv-x="798" unicode="√" d="M35 335l236 94l148 -357l183 710h161l-240 -882h-183l-156 351l-99 -44z"/>
<glyph glyph-name="infinity" horiz-adv-x="952" unicode="∞" d="M404 323q-21 26 -53.5 47t-74.5 21q-36 0 -58 -18t-22 -50t22 -50t58 -18q42 0 74.5 21t53.5 47zM548 323q21 -26 53.5 -47t74.5 -21q36 0 58 18t22 50t-22 50t-58 18q-42 0 -74.5 -21t-53.5 -47zM476 423q42 41 99.5 68t126.5 27q44 0 81.5 -13.5t65 -39t43 -61.5 t15.5 -81t-15.5 -81t-43 -61.5t-65 -39t-81.5 -13.5q-69 0 -126.5 27t-99.5 68q-42 -41 -99.5 -68t-126.5 -27q-44 0 -81.5 13.5t-65 39t-43 61.5t-15.5 81t15.5 81t43 61.5t65 39t81.5 13.5q69 0 126.5 -27t99.5 -68z"/>
<glyph glyph-name="approxequal" horiz-adv-x="649" unicode="≈" d="M438 118q-26 0 -55.5 9.5t-60.5 24.5q-26 13 -48 21.5t-43 8.5q-30 0 -51 -13t-48 -36l-67 84q35 40 76.5 65.5t100.5 25.5q34 0 60.5 -10t55.5 -25q26 -14 45 -21.5t40 -7.5q26 0 47 10.5t44 27.5l60 -89q-34 -36 -72.5 -55.5t-83.5 -19.5zM438 338q-26 0 -55.5 9.5 t-60.5 24.5q-26 13 -48 21.5t-43 8.5q-30 0 -51 -13t-48 -36l-67 84q35 40 76.5 65.5t100.5 25.5q34 0 60.5 -10t55.5 -25q26 -14 45 -21.5t40 -7.5q26 0 47 10.5t44 27.5l60 -89q-34 -36 -72.5 -55.5t-83.5 -19.5z"/>
<glyph glyph-name="notequal" horiz-adv-x="610" unicode="≠" d="M445 498h93v-118h-146l-51 -114h197v-118h-250l-62 -138l-102 46l41 92h-93v118h146l52 114h-198v118h251l62 138l102 -46z"/>
<glyph glyph-name="lessequal" horiz-adv-x="581" unicode="≤" d="M484 582l37 -114l-306 -95l306 -95l-37 -114l-429 146v126zM50 0v116h476v-116h-476z"/>
<glyph glyph-name="greaterequal" horiz-adv-x="581" unicode="≥" d="M526 436v-126l-429 -146l-37 114l306 95l-306 95l37 114zM55 0v116h476v-116h-476z"/>
<glyph glyph-name="lozenge" horiz-adv-x="618" unicode="◊" d="M309 137l121 196l-121 196l-121 -196zM598 333l-211 -333h-156l-211 333l211 333h156z"/>
</font>
</defs>
</svg>
