<?xml version="1.0" encoding="UTF-8" standalone="no"?>
<!DOCTYPE svg  PUBLIC '-//W3C//DTD SVG 1.1//EN'  'http://www.w3.org/Graphics/SVG/1.1/DTD/svg11.dtd'>
<svg xmlns="http://www.w3.org/2000/svg">
<defs>
<font id="Seravek-Italic" horiz-adv-x="653">
<font-face slope="-10" underline-position="-178" font-weight="400" descent="-200" panose-1="2 11 5 3 5 0 0 9 0 4" units-per-em="1000" unicode-range="U+0020-25CA" bbox="-190 -250 1217 853" x-height="480" underline-thickness="48" font-family="Seravek" ascent="800" font-style="italic" cap-height="666"/>
<missing-glyph horiz-adv-x="1000"/>
<glyph glyph-name=".notdef" horiz-adv-x="1000"/>
<glyph glyph-name=".null" horiz-adv-x="0"/>
<glyph glyph-name="nonmarkingreturn" horiz-adv-x="1000"/>
<glyph glyph-name="space" horiz-adv-x="210" unicode=" "/>
<glyph glyph-name="exclam" horiz-adv-x="280" unicode="!" d="M49 44q0 29 18 46.5t47 17.5q23 0 37 -14.5t14 -35.5q0 -26 -17.5 -45.5t-48.5 -19.5q-23 0 -36.5 15t-13.5 36zM151 180h-49l29 285l35 201h92l-35 -201z"/>
<glyph glyph-name="quotedbl" horiz-adv-x="416" unicode='&quot;' d="M296 429l32 237h88l-51 -237h-69zM110 429l32 237h88l-51 -237h-69z"/>
<glyph glyph-name="numbersign" horiz-adv-x="656" unicode="#" d="M228 237h182l56 200h-181zM393 177h-182l-50 -177h-70l50 177h-110l11 60h116l57 200h-118l11 60h124l47 169h70l-47 -169h181l48 169h70l-48 -169h105l-11 -60h-111l-57 -200h110l-11 -60h-115l-50 -177h-70z"/>
<glyph glyph-name="dollar" horiz-adv-x="440" unicode="$" d="M123 -115l21 119q-32 5 -66 17t-56 23l21 67q32 -17 68 -28.5t73 -11.5q55 0 88 24.5t33 75.5q0 40 -27 75t-69 72q-53 46 -84 88.5t-31 93.5q0 37 12.5 66.5t34 50t50.5 32.5t61 14l21 118h79l-21 -119q58 -9 106 -37l-22 -67q-29 17 -61.5 27t-70.5 10q-45 0 -73 -22 t-28 -67q0 -17 5 -31.5t15 -28.5t25 -28.5t34 -32.5q23 -21 46.5 -43t42.5 -47t31 -53.5t12 -62.5q0 -36 -12.5 -66.5t-35 -53.5t-54 -37.5t-68.5 -19.5l-20 -117h-80z"/>
<glyph glyph-name="percent" horiz-adv-x="887" unicode="%" d="M228 348q28 0 50 16.5t37 42t22.5 56t7.5 57.5q0 42 -19 70.5t-58 28.5q-29 0 -50.5 -16t-36 -41.5t-22 -56t-7.5 -58.5q0 -41 17.5 -70t58.5 -29zM417 523q0 -39 -13 -80.5t-37.5 -75.5t-61 -56t-84.5 -22q-34 0 -60.5 13t-44.5 35t-27 50.5t-9 59.5q0 43 13.5 84.5 t38.5 74t61.5 52.5t82.5 20q33 0 59.5 -12t44.5 -32.5t27.5 -49t9.5 -61.5zM644 47q28 0 50 16.5t37 42t22.5 56t7.5 57.5q0 42 -19 70.5t-58 28.5q-29 0 -50.5 -16t-36 -41.5t-22 -56t-7.5 -58.5q0 -41 17.5 -70t58.5 -29zM833 222q0 -39 -13 -80.5t-37.5 -75.5t-61 -56 t-84.5 -22q-34 0 -60.5 13t-44.5 35t-27 50.5t-9 59.5q0 43 13.5 84.5t38.5 74t61.5 52.5t82.5 20q33 0 59.5 -12t44.5 -32.5t27.5 -49t9.5 -61.5zM639 678l57 -38l-427 -652l-56 38z"/>
<glyph glyph-name="ampersand" horiz-adv-x="706" unicode="&amp;" d="M208 505q0 -38 11.5 -68.5t33.5 -59.5q24 15 48 33t43 38.5t31 43t12 48.5q0 30 -19 51.5t-56 21.5q-48 0 -76 -28t-28 -80zM221 54q56 0 99 22t86 64q-42 31 -87 68t-84 79q-25 -17 -46.5 -33t-37 -33t-24.5 -36t-9 -42q0 -42 27.5 -65.5t75.5 -23.5zM32 137 q0 33 12.5 60.5t34.5 51.5t50.5 45.5t61.5 42.5q-27 35 -45 76.5t-18 89.5q0 40 14 72.5t38.5 55.5t59 35t76.5 12q34 0 61.5 -10.5t47 -28.5t30.5 -42.5t11 -52.5q0 -37 -15.5 -67.5t-40.5 -56.5t-55 -48t-59 -42q37 -39 74.5 -70t83.5 -65q29 39 54 83t52 102l63 -30 q-26 -57 -54.5 -106t-59.5 -89q37 -27 77.5 -54t82.5 -52l-39 -61q-43 26 -86 54.5t-84 57.5q-54 -55 -115 -83.5t-129 -28.5q-42 0 -76 11t-58 31t-37 47.5t-13 59.5z"/>
<glyph glyph-name="quotesingle" horiz-adv-x="230" unicode="&apos;" d="M110 429l32 237h88l-51 -237h-69z"/>
<glyph glyph-name="parenleft" horiz-adv-x="340" unicode="(" d="M66 147q0 88 16 168t47 153.5t74.5 142.5t99.5 135l62 -49q-52 -69 -91.5 -132.5t-66 -128t-40 -135t-13.5 -152.5q0 -70 16 -145.5t47 -157.5l-75 -32q-38 88 -57 168.5t-19 164.5z"/>
<glyph glyph-name="parenright" horiz-adv-x="341" unicode=")" d="M283 413q0 -87 -16 -166t-46.5 -152.5t-74.5 -143t-100 -137.5l-63 49q100 130 156 263t56 285q0 70 -16 146t-45 158l73 31q38 -88 57 -168.5t19 -164.5z"/>
<glyph glyph-name="asterisk" horiz-adv-x="404" unicode="*" d="M235 584l21 122l44 -7l-20 -115l118 62l18 -39l-122 -62l99 -62l-24 -38l-102 65l-21 -120l-44 7l20 111l-113 -60l-19 40l121 60l-104 64l24 39z"/>
<glyph glyph-name="plus" horiz-adv-x="594" unicode="+" d="M356 289v-204h-78v204h-192v68h192v204h78v-204h192v-68h-192z"/>
<glyph glyph-name="comma" horiz-adv-x="242" unicode="," d="M-32 -114q40 55 61.5 106.5t31.5 114.5l83 -11q-10 -70 -38.5 -130t-83.5 -118z"/>
<glyph glyph-name="hyphen" horiz-adv-x="352" unicode="-" d="M58 222l12 71h244l-12 -71h-244z"/>
<glyph glyph-name="period" horiz-adv-x="251" unicode="." d="M32 44q0 29 18 46.5t47 17.5q23 0 37 -14.5t14 -35.5q0 -26 -17.5 -45.5t-48.5 -19.5q-23 0 -36.5 15t-13.5 36z"/>
<glyph glyph-name="slash" horiz-adv-x="425" unicode="/" d="M379 700l68 -34l-386 -766l-67 35z"/>
<glyph glyph-name="zero" horiz-adv-x="580" unicode="0" d="M256 59q49 0 87.5 36t65 91.5t40.5 122.5t14 129q0 33 -6.5 64t-21 54t-37 37t-53.5 14q-35 0 -63.5 -17.5t-50.5 -47t-38.5 -68t-27 -80.5t-15.5 -84t-5 -78t5.5 -67.5t18.5 -55t34.5 -37t52.5 -13.5zM551 439q0 -42 -7.5 -92t-23.5 -100t-40 -97t-57.5 -83t-76 -57.5 t-95.5 -21.5q-51 0 -87.5 20t-60.5 53.5t-35 77.5t-11 92t7.5 100t23 101.5t39.5 94t57 78.5t75 53.5t95 19.5q48 0 85 -17t61.5 -48.5t37.5 -75.5t13 -98z"/>
<glyph glyph-name="one" horiz-adv-x="357" unicode="1" d="M138 0l100 567l-151 -57l-22 72l215 84h64l-117 -666h-89z"/>
<glyph glyph-name="two" horiz-adv-x="449" unicode="2" d="M100 637q33 20 70.5 30.5t83.5 10.5q39 0 72 -11.5t57 -33t37.5 -53.5t13.5 -72q0 -46 -13 -86t-35.5 -76t-52 -69.5t-62.5 -66.5q-37 -36 -75.5 -70t-76.5 -68h277l-12 -72h-368l-11 56q56 51 101 95t88 88q24 25 50.5 54.5t49 62.5t37 69t14.5 74q0 48 -27.5 77.5 t-78.5 29.5q-32 0 -61.5 -10t-55.5 -24z"/>
<glyph glyph-name="three" horiz-adv-x="447" unicode="3" d="M396 173q0 -39 -15.5 -73t-43.5 -59t-67 -39t-87 -14t-93 15.5t-78 36.5l24 65q28 -17 64 -31.5t79 -14.5q63 0 96.5 31.5t33.5 82.5q0 31 -14.5 55.5t-38.5 41t-56 25.5t-67 9h-15l6 72h13q41 0 78 10t64.5 28.5t44 45t16.5 59.5q0 43 -29.5 65t-74.5 22q-30 0 -59.5 -8 t-57.5 -22l-20 65q32 19 72.5 28t80.5 9q38 0 71 -10t57 -29t37.5 -46t13.5 -61q0 -36 -13 -66.5t-36.5 -55t-55 -42.5t-68.5 -29q30 -8 55 -23t43.5 -36t29 -48t10.5 -59z"/>
<glyph glyph-name="four" horiz-adv-x="522" unicode="4" d="M374 567l-253 -306h199zM393 192l-34 -192h-85l34 192h-268l-15 66l351 408h100l-71 -405h89l-11 -69h-90z"/>
<glyph glyph-name="five" horiz-adv-x="459" unicode="5" d="M421 189q0 -44 -17 -80.5t-48 -63.5t-74 -42t-94 -15q-42 0 -88 10t-82 29l19 68q30 -14 67.5 -25t81.5 -11q70 0 108 34t38 88q0 35 -19 59.5t-51.5 40.5t-76.5 24.5t-93 11.5l61 349h309l-12 -72h-222l-38 -216q39 -5 80 -17t74.5 -34t55 -56t21.5 -82z"/>
<glyph glyph-name="six" horiz-adv-x="527" unicode="6" d="M260 57q62 0 96.5 39.5t34.5 99.5q0 54 -30 88t-85 34q-43 0 -78 -17t-61 -41q-3 -18 -3 -38q0 -30 7 -59.5t22 -53t39 -38t58 -14.5zM489 609q-135 -37 -222 -106t-118 -170q32 24 69 38t81 14q37 0 69.5 -13t56.5 -36.5t38 -57t14 -73.5q0 -45 -16.5 -84.5t-45.5 -69 t-69 -46.5t-88 -17q-50 0 -88.5 19t-65 51.5t-40.5 75.5t-14 91q0 88 32.5 163t89 132.5t133 97.5t164.5 60z"/>
<glyph glyph-name="seven" horiz-adv-x="441" unicode="7" d="M476 594l-382 -606l-67 43l361 563h-298l11 72h368z"/>
<glyph glyph-name="eight" horiz-adv-x="518" unicode="8" d="M205 516q0 -20 7 -37.5t19 -33t27 -29t31 -26.5q20 11 42 25.5t40.5 32.5t30.5 39.5t12 45.5q0 35 -27.5 56.5t-69.5 21.5q-49 0 -80.5 -23.5t-31.5 -71.5zM376 170q0 41 -29.5 73.5t-68.5 64.5q-24 -14 -50 -29t-48 -33t-36 -41.5t-14 -54.5q0 -45 31.5 -70t81.5 -25 q58 0 95.5 32t37.5 83zM323 678q36 0 68 -10t55.5 -28t37.5 -44t14 -58q0 -35 -14.5 -63t-36.5 -51t-49.5 -42t-52.5 -34q21 -16 41.5 -34.5t37 -40t27 -46.5t10.5 -54q0 -41 -17 -75t-47 -58.5t-70.5 -38t-86.5 -13.5q-43 0 -78.5 12t-61.5 33t-40.5 50t-14.5 63 q0 42 16.5 74t42.5 57t58 43.5t62 33.5q-19 14 -37 31.5t-32.5 38t-23.5 43.5t-9 48q0 40 15 70.5t42 51t64 31t80 10.5z"/>
<glyph glyph-name="nine" horiz-adv-x="513" unicode="9" d="M287 609q-62 0 -96.5 -39.5t-34.5 -99.5q0 -54 29.5 -88t85.5 -34q41 0 78 17t61 41q3 18 3 38q0 30 -7 59.5t-22 53t-39 38t-58 14.5zM58 57q138 38 223 106t117 170q-32 -24 -69 -38t-81 -14q-36 0 -68.5 13.5t-56.5 37.5t-38.5 57.5t-14.5 73.5q0 45 15 84t43 68.5 t68.5 46t92.5 16.5q49 0 88 -19t65.5 -51.5t40.5 -75.5t14 -91q0 -89 -32.5 -163.5t-89 -132t-133 -98t-164.5 -59.5z"/>
<glyph glyph-name="colon" horiz-adv-x="251" unicode=":" d="M87 357q0 29 18 46.5t47 17.5q23 0 37 -14.5t14 -35.5q0 -26 -17.5 -45.5t-48.5 -19.5q-23 0 -36.5 15t-13.5 36zM32 44q0 29 18 46.5t47 17.5q23 0 37 -14.5t14 -35.5q0 -26 -17.5 -45.5t-48.5 -19.5q-23 0 -36.5 15t-13.5 36z"/>
<glyph glyph-name="semicolon" horiz-adv-x="237" unicode=";" d="M-30 -114q40 55 61.5 106.5t31.5 114.5l83 -11q-10 -70 -38.5 -130t-83.5 -118zM87 357q0 29 18 46.5t47 17.5q23 0 37 -14.5t14 -35.5q0 -26 -17.5 -45.5t-48.5 -19.5q-23 0 -36.5 15t-13.5 36z"/>
<glyph glyph-name="less" horiz-adv-x="572" unicode="&lt;" d="M496 571l31 -64l-385 -184l385 -184l-31 -64l-431 215v66z"/>
<glyph glyph-name="equal" horiz-adv-x="602" unicode="=" d="M90 252h452v-68h-452v68zM90 463h452v-68h-452v68z"/>
<glyph glyph-name="greater" horiz-adv-x="572" unicode="&gt;" d="M527 356v-66l-431 -215l-31 64l385 184l-385 184l31 64z"/>
<glyph glyph-name="question" horiz-adv-x="414" unicode="?" d="M80 44q0 29 18 46.5t47 17.5q23 0 37 -14.5t14 -35.5q0 -26 -17.5 -45.5t-48.5 -19.5q-23 0 -36.5 15t-13.5 36zM424 526q0 -53 -24 -98t-64 -84.5t-92 -74.5t-108 -68l-41 63q52 33 96.5 63.5t76.5 61t50 63t18 69.5q0 39 -24.5 62t-65.5 23q-32 0 -62 -9.5t-62 -28.5 l-24 67q32 20 72.5 31.5t84.5 11.5q37 0 68 -10.5t53.5 -30t35 -48t12.5 -63.5z"/>
<glyph glyph-name="at" horiz-adv-x="800" unicode="@" d="M438 343q-27 0 -47 -13t-33.5 -34t-20 -47t-6.5 -52q0 -23 7.5 -39t25.5 -16q13 0 26 8.5t25.5 23t24 32.5t20.5 37l17 95q-18 5 -39 5zM442 398q29 0 58 -7.5t51 -19.5l-26 -149q-3 -15 -3 -28q0 -29 13 -46t42 -17q24 0 46 13.5t38 37.5t25.5 56t9.5 69 q0 51 -19.5 92.5t-54 70t-82 44t-104.5 15.5q-68 0 -125.5 -22.5t-99.5 -64t-66 -100.5t-24 -132q0 -130 75.5 -202.5t213.5 -72.5q69 0 127 15.5t118 43.5l18 -51q-28 -15 -61 -26.5t-68 -19.5t-70 -12t-67 -4q-84 0 -149 24.5t-109.5 68t-68 103.5t-23.5 131 q0 84 29 153.5t80 118.5t121 76t152 27q73 0 132.5 -21.5t100.5 -58.5t63.5 -87t22.5 -107q0 -48 -14 -89.5t-38.5 -72t-59 -48.5t-75.5 -18q-51 0 -78.5 28t-29.5 66q-21 -39 -52 -63.5t-66 -24.5q-22 0 -37.5 9t-25 24t-14 34.5t-4.5 40.5q0 39 11 75.5t33.5 65t56 45.5 t77.5 17z"/>
<glyph glyph-name="A" d="M205 233h247l-62 348zM465 160h-298l-85 -160h-100l372 666h92l139 -666h-91z" unicode="A"/>
<glyph glyph-name="B" horiz-adv-x="555" unicode="B" d="M258 377q36 0 69.5 9t59 26t40.5 41.5t15 56.5q0 43 -32 64.5t-85 21.5h-97l-39 -219h69zM414 198q0 28 -11 48.5t-31 34t-47.5 20t-59.5 6.5h-88l-42 -237h106q31 0 62 7t56 22t40 39.5t15 59.5zM35 0l118 666h194q42 0 76.5 -10t59 -28.5t38 -44.5t13.5 -59 q0 -37 -15 -67t-39 -52.5t-54.5 -38t-62.5 -22.5q29 -6 54.5 -18t44 -30.5t29.5 -43.5t11 -56q0 -53 -24.5 -90.5t-63.5 -61t-87 -34t-96 -10.5h-196z"/>
<glyph glyph-name="C" horiz-adv-x="589" unicode="C" d="M419 678q47 0 93 -9.5t82 -26.5l-17 -69q-36 15 -75 23.5t-80 8.5q-68 0 -120.5 -24t-88.5 -66t-54.5 -100t-18.5 -127q0 -51 14 -92.5t42 -71.5t71 -46.5t100 -16.5q36 0 72.5 5.5t70.5 17.5l9 -68q-36 -14 -78 -21t-87 -7q-71 0 -127.5 23t-95.5 63t-60 94t-21 116 q0 82 24 153.5t70.5 125t115.5 84.5t159 31z"/>
<glyph glyph-name="D" horiz-adv-x="666" unicode="D" d="M230 73q78 1 138.5 24.5t101.5 65t62.5 96.5t21.5 119q0 51 -17.5 91t-49 67.5t-75.5 42t-98 14.5h-85l-92 -520h93zM152 666h171q73 0 132 -20.5t101 -58t65 -90t23 -117.5q0 -83 -30.5 -152.5t-85.5 -120t-132.5 -79t-171.5 -28.5h-189z"/>
<glyph glyph-name="E" horiz-adv-x="506" unicode="E" d="M153 666h363l-13 -73h-273l-39 -217h261l-12 -73h-261l-41 -230h277l-13 -73h-367z"/>
<glyph glyph-name="F" horiz-adv-x="484" unicode="F" d="M35 0l118 666h365l-13 -73h-275l-41 -232h262l-12 -73h-263l-51 -288h-90z"/>
<glyph glyph-name="G" horiz-adv-x="660" unicode="G" d="M428 678q56 0 111.5 -11.5t100.5 -34.5l-20 -71q-48 21 -94 32.5t-97 11.5q-70 0 -124 -24.5t-91 -67t-56 -100t-19 -124.5q0 -111 63.5 -170.5t173.5 -59.5q30 0 60 4.5t55 12.5l36 209h83l-46 -262q-39 -17 -91 -26t-105 -9q-77 0 -136 23.5t-100 64t-62 95.5t-21 118 q0 79 24.5 150t72.5 124t119 84t163 31z"/>
<glyph glyph-name="H" horiz-adv-x="664" unicode="H" d="M449 0l53 300h-324l-53 -300h-90l117 666h90l-51 -290h324l51 290h90l-117 -666h-90z"/>
<glyph glyph-name="I" horiz-adv-x="260" unicode="I" d="M130 0h-90l117 666h90z"/>
<glyph glyph-name="J" horiz-adv-x="256" unicode="J" d="M167 181q-9 -51 -24 -97.5t-39.5 -88.5t-61 -80t-88.5 -73l-47 59q39 28 67 57.5t48 62.5t33 71t21 83l86 491h90z"/>
<glyph glyph-name="K" horiz-adv-x="574" unicode="K" d="M35 0l117 666h90l-56 -321l310 321h112l-325 -335l248 -331h-110l-238 329l-58 -329h-90z"/>
<glyph glyph-name="L" horiz-adv-x="459" unicode="L" d="M242 666l-104 -593h261l-13 -73h-351l117 666h90z"/>
<glyph glyph-name="M" horiz-adv-x="815" unicode="M" d="M434 123h-93l-122 390l-114 -513h-85l149 666h84l145 -468l301 468h91l-84 -666h-85l61 501z"/>
<glyph glyph-name="N" horiz-adv-x="694" unicode="N" d="M482 0l-266 535l-94 -535h-87l117 666h87l267 -533l94 533h87l-118 -666h-87z"/>
<glyph glyph-name="O" horiz-adv-x="724" unicode="O" d="M340 61q64 0 113 27.5t83 73.5t51.5 105.5t17.5 122.5q0 46 -13.5 85t-39 68t-62 45.5t-82.5 16.5q-65 0 -115 -29t-83.5 -75.5t-51 -106t-17.5 -120.5q0 -46 12.5 -85t37 -67.5t62 -44.5t87.5 -16zM695 394q0 -80 -25.5 -153t-72.5 -129.5t-114 -90t-150 -33.5 q-65 0 -117.5 22.5t-89 61.5t-56 90.5t-19.5 108.5q0 86 25.5 160.5t72.5 129t114 86t151 31.5q65 0 117 -22t88.5 -60t56 -90t19.5 -112z"/>
<glyph glyph-name="P" horiz-adv-x="503" unicode="P" d="M225 333q40 0 78 8t68 26t48.5 47.5t18.5 71.5q0 51 -34.5 80t-88.5 29h-85l-46 -262h41zM528 490q0 -62 -26.5 -105t-69.5 -71t-98.5 -40.5t-113.5 -12.5h-49l-46 -261h-90l117 666h172q46 0 83.5 -13t64.5 -36t41.5 -55.5t14.5 -71.5z"/>
<glyph glyph-name="Q" horiz-adv-x="724" unicode="Q" d="M340 61q64 0 113 27.5t83 73.5t51.5 105.5t17.5 122.5q0 46 -13.5 85t-39 68t-62 45.5t-82.5 16.5q-65 0 -115 -29t-83.5 -75.5t-51 -106t-17.5 -120.5q0 -46 12.5 -85t37 -67.5t62 -44.5t87.5 -16zM695 394q0 -59 -14 -114.5t-40 -103.5t-64 -87t-86 -64l159 -117 l-48 -62l-198 149q-17 -3 -35 -5t-36 -2q-65 0 -117.5 22.5t-89 61.5t-56 90.5t-19.5 108.5q0 86 25.5 160.5t72.5 129t114 86t151 31.5q65 0 117 -22t88.5 -60t56 -90t19.5 -112z"/>
<glyph glyph-name="R" horiz-adv-x="569" unicode="R" d="M230 338q43 0 82.5 8.5t69.5 26.5t47.5 46.5t17.5 68.5q0 54 -36.5 80.5t-90.5 26.5h-90l-46 -257h46zM537 495q0 -44 -16 -79t-43 -61.5t-62.5 -44.5t-74.5 -27l181 -283h-104l-166 268q-22 -2 -44.5 -2h-35.5l-47 -266h-90l117 666h184q44 0 81 -12.5t63.5 -35 t41.5 -54t15 -69.5z"/>
<glyph glyph-name="S" horiz-adv-x="475" unicode="S" d="M425 177q0 -41 -16.5 -76t-46.5 -60t-71 -39t-90 -14q-45 0 -94.5 9.5t-91.5 28.5l19 72q38 -17 78 -27t89 -10q57 0 95.5 27t38.5 81q0 43 -31.5 77.5t-80.5 71.5q-29 22 -53.5 43t-42 43t-27.5 47t-10 54q0 42 15 74.5t42 54t64 33t80 11.5q47 0 95.5 -10t80.5 -29 l-19 -73q-35 17 -75.5 28t-77.5 11q-50 0 -82.5 -21t-32.5 -71q0 -35 25 -61t70 -62q25 -20 51.5 -41.5t48.5 -47.5t36 -56.5t14 -67.5z"/>
<glyph glyph-name="T" horiz-adv-x="490" unicode="T" d="M541 666l-12 -72h-179l-105 -594h-90l105 594h-179l12 72h448z"/>
<glyph glyph-name="U" horiz-adv-x="663" unicode="U" d="M569 666h90l-76 -433q-9 -52 -30.5 -97t-56.5 -78t-83.5 -51.5t-112.5 -18.5q-51 0 -93 15.5t-72 44t-47 67.5t-17 87q0 11 1 23t3 24l73 417h90l-73 -417q-2 -12 -3 -23.5t-1 -22.5q0 -30 8.5 -56t26.5 -45t46 -30t67 -11q75 0 122.5 45.5t61.5 124.5z"/>
<glyph glyph-name="V" horiz-adv-x="559" unicode="V" d="M295 0h-98l-110 666h90l85 -561l270 561h99z"/>
<glyph glyph-name="W" horiz-adv-x="929" unicode="W" d="M652 120l236 546h96l-303 -666h-95l-67 576l-265 -576h-95l-70 666h88l50 -546l252 546h105z"/>
<glyph glyph-name="X" horiz-adv-x="612" unicode="X" d="M318 270l-223 -270h-106l290 347l-158 319h93l122 -253l208 253h106l-275 -328l170 -338h-95z"/>
<glyph glyph-name="Y" horiz-adv-x="525" unicode="Y" d="M309 249l-44 -249h-90l46 263l-146 403h94l110 -325l217 325h102z"/>
<glyph glyph-name="Z" horiz-adv-x="525" unicode="Z" d="M139 666h416l-13 -73l-419 -520h337l-11 -73h-414l-12 73l419 520h-316z"/>
<glyph glyph-name="bracketleft" horiz-adv-x="363" unicode="[" d="M24 -176l161 912h203l-12 -71h-116l-136 -770h116l-13 -71h-203z"/>
<glyph glyph-name="backslash" horiz-adv-x="425" unicode="\" d="M319 -87l-78 -13l-119 766l77 14z"/>
<glyph glyph-name="bracketright" horiz-adv-x="362" unicode="]" d="M347 736l-161 -912h-203l12 71h116l136 770h-116l13 71h203z"/>
<glyph glyph-name="asciicircum" horiz-adv-x="510" unicode="^" d="M465 348l-69 -32l-126 277l-126 -277l-69 32l155 318h80z"/>
<glyph glyph-name="underscore" horiz-adv-x="413" unicode="_" d="M-92 -250l5 48h420l-6 -48h-419z"/>
<glyph glyph-name="grave" horiz-adv-x="400" unicode="`" d="M267 555l-71 160h96l45 -160h-70z"/>
<glyph glyph-name="a" horiz-adv-x="517" unicode="a" d="M179 61q28 0 55.5 27.5t52.5 69.5t46.5 91t37.5 92l12 67q-31 14 -74 14t-77.5 -22.5t-59 -58.5t-37.5 -82.5t-13 -94.5q0 -19 2.5 -37.5t8.5 -33t17 -23.5t29 -9zM399 0h-84l30 175q-13 -30 -31 -62.5t-41.5 -59.5t-51.5 -45t-61 -18q-31 0 -54.5 14t-39.5 37t-24 54 t-8 65q0 65 18.5 124.5t54.5 105.5t88 73t118 27q45 0 90 -10.5t76 -24.5z"/>
<glyph glyph-name="b" horiz-adv-x="524" unicode="b" d="M336 420q-25 0 -48.5 -14t-46 -38t-43 -55.5t-38.5 -66.5l-30 -174q15 -7 35.5 -10t42.5 -3q51 0 88 20.5t60.5 55.5t35 81t11.5 97q0 22 -3.5 41.5t-11.5 34t-20.5 23t-31.5 8.5zM154 706h88l-61 -348q15 26 34 50t41.5 42t48 29t54.5 11q34 0 58.5 -14t41 -38 t24.5 -55.5t8 -65.5q0 -62 -16.5 -121t-51 -105t-88 -73.5t-126.5 -27.5q-47 0 -94 10.5t-81 26.5z"/>
<glyph glyph-name="c" horiz-adv-x="424" unicode="c" d="M293 490q40 0 73.5 -9t56.5 -23l-21 -66q-23 12 -50 19.5t-57 7.5q-42 0 -74.5 -18t-54.5 -49.5t-33.5 -73t-11.5 -89.5q0 -26 5.5 -49.5t18 -41t34 -28t54.5 -10.5q32 0 61 8.5t54 21.5l18 -64q-30 -17 -66 -26.5t-76 -9.5q-47 0 -83 15.5t-60 42.5t-36 63t-12 77 q0 60 17.5 115t51 96.5t82 66t109.5 24.5z"/>
<glyph glyph-name="d" horiz-adv-x="530" unicode="d" d="M186 59q26 0 51.5 17.5t49 44.5t44 61t36.5 67l28 159q-15 6 -37.5 9.5t-42.5 3.5q-48 0 -84 -22.5t-60.5 -59t-36.5 -82t-12 -90.5q0 -20 3 -39.5t10 -34.5t19.5 -24.5t31.5 -9.5zM410 0h-84l23 133q-15 -25 -34.5 -50.5t-43 -46t-51 -33.5t-57.5 -13q-34 0 -58.5 14 t-40 37.5t-23 55t-7.5 67.5q0 57 17.5 115.5t52 105t86 76t120.5 29.5q58 0 96 -17l41 233h88z"/>
<glyph glyph-name="e" horiz-adv-x="445" unicode="e" d="M284 424q-30 0 -55 -13.5t-44.5 -35t-32.5 -49t-19 -54.5q35 1 72.5 6.5t68.5 17t51 30t20 46.5q0 23 -16.5 37.5t-44.5 14.5zM295 490q59 0 96 -31.5t37 -81.5t-29.5 -82t-74.5 -51t-99 -28t-104 -12q-3 -18 -3 -37q0 -47 22 -78t78 -31q35 0 70 10.5t65 27.5l17 -62 q-35 -20 -75.5 -32t-85.5 -12q-44 0 -77 14t-54.5 39t-32.5 58.5t-11 72.5q0 60 18 117t52 101.5t82.5 71t108.5 26.5z"/>
<glyph glyph-name="f" horiz-adv-x="365" unicode="f" d="M-142 -133q16 -5 33.5 -8.5t38.5 -3.5q39 0 64.5 17t42.5 47t27.5 70t18.5 85l59 335h-105l12 71h106l5 28q19 105 68 158.5t140 53.5q64 0 109 -24l-17 -65q-21 9 -42 13.5t-46 4.5q-53 0 -82 -32.5t-43 -108.5l-5 -28h153l-12 -71h-153l-59 -336q-10 -59 -26 -111 t-42.5 -92t-66 -63t-97.5 -23q-23 0 -49 4t-45 10z"/>
<glyph glyph-name="g" horiz-adv-x="524" unicode="g" d="M178 77q26 0 51 17t49 46t46.5 67.5t42.5 81.5l21 119q-15 6 -35.5 9.5t-42.5 3.5q-46 0 -81 -23.5t-59 -60.5t-36 -84t-12 -93q0 -36 13.5 -59.5t42.5 -23.5zM411 40q-22 -125 -80.5 -190.5t-162.5 -65.5q-46 0 -87 8.5t-84 28.5l20 68q33 -16 68.5 -25.5t73.5 -9.5 q72 0 110 49t54 137l22 124q-14 -29 -33.5 -57.5t-42.5 -50.5t-50 -35.5t-57 -13.5q-35 0 -59.5 13.5t-39.5 35.5t-21.5 49.5t-6.5 56.5q0 66 19 125.5t55 104.5t88.5 71.5t120.5 26.5q49 0 91.5 -10.5t74.5 -25.5z"/>
<glyph glyph-name="h" horiz-adv-x="544" unicode="h" d="M30 0l124 706h88l-59 -338q14 24 30.5 46t37.5 39t46.5 27t56.5 10t54.5 -12.5t39.5 -35t24 -53t8 -67.5q0 -15 -1.5 -32.5t-4.5 -34.5l-45 -255h-88l44 249q6 34 6 67q0 44 -14.5 73.5t-50.5 29.5q-24 0 -46.5 -13t-43 -35t-38.5 -51t-34 -60l-46 -260h-88z"/>
<glyph glyph-name="i" horiz-adv-x="238" unicode="i" d="M126 614q0 26 16.5 44t46.5 18q23 0 36.5 -14t13.5 -34q0 -26 -17.5 -44t-46.5 -18q-23 0 -36 14t-13 34zM30 0l85 480h88l-85 -480h-88z"/>
<glyph glyph-name="j" horiz-adv-x="241" unicode="j" d="M128 614q0 26 16.5 44t46.5 18q23 0 36.5 -14t13.5 -34q0 -26 -17.5 -44t-46.5 -18q-23 0 -36 14t-13 34zM143 124q-10 -55 -26.5 -103t-45 -90.5t-70 -79t-101.5 -67.5l-41 63q89 50 134 116.5t61 155.5l64 361h88z"/>
<glyph glyph-name="k" horiz-adv-x="468" unicode="k" d="M30 0l125 706h88l-81 -456l207 230h111l-227 -244q27 -52 74.5 -112.5t112.5 -123.5h-113q-23 22 -47.5 51.5t-47 61.5t-41.5 64.5t-31 60.5l-42 -238h-88z"/>
<glyph glyph-name="l" horiz-adv-x="238" unicode="l" d="M30 0l124 706h88l-124 -706h-88z"/>
<glyph glyph-name="m" horiz-adv-x="839" unicode="m" d="M422 0h-88l44 249q6 34 6 67q0 44 -14 73.5t-50 29.5q-21 0 -42.5 -14t-41.5 -36.5t-38.5 -52.5t-34.5 -61l-45 -255h-88l85 480h85l-22 -123q14 26 31.5 50t39.5 42.5t47 29.5t54 11q53 0 83 -36.5t38 -96.5q13 22 30 46t39 43t49 31.5t59 12.5q30 0 54 -12.5t40.5 -35 t25.5 -53t9 -67.5q0 -15 -1.5 -32.5t-4.5 -34.5l-45 -255h-88l44 249q6 34 6 67q0 44 -14 73.5t-50 29.5q-21 0 -42.5 -14t-41.5 -36.5t-38.5 -52.5t-34.5 -61z"/>
<glyph glyph-name="n" horiz-adv-x="542" unicode="n" d="M30 0l85 480h85l-20 -116q14 26 31 49t38 40t47 27t58 10q31 0 54.5 -12.5t39.5 -35t24 -53t8 -67.5q0 -15 -1.5 -32.5t-4.5 -34.5l-45 -255h-88l44 249q6 34 6 67q0 44 -14.5 73.5t-50.5 29.5q-24 0 -46.5 -13t-43 -35t-38.5 -51t-34 -60l-46 -260h-88z"/>
<glyph glyph-name="o" horiz-adv-x="518" unicode="o" d="M225 58q40 0 72 20.5t53.5 53.5t33 74.5t11.5 82.5q0 27 -6.5 51.5t-19.5 42.5t-33.5 28.5t-48.5 10.5q-37 0 -67.5 -19.5t-52 -52t-33.5 -75t-12 -89.5q0 -59 25.5 -93.5t77.5 -34.5zM483 294q0 -54 -18 -108.5t-51.5 -98t-82.5 -70.5t-111 -27q-45 0 -79.5 14.5 t-58.5 40.5t-36 61.5t-12 77.5q0 59 17.5 114.5t50.5 98t81.5 68t110.5 25.5q45 0 80 -15.5t59.5 -42.5t37 -62.5t12.5 -75.5z"/>
<glyph glyph-name="p" horiz-adv-x="524" unicode="p" d="M336 421q-27 0 -51.5 -17t-47 -44.5t-42.5 -61.5t-37 -67l-28 -159q35 -13 80 -13q46 0 82 21t60.5 56t37.5 81t13 96q0 21 -3 40.5t-10.5 34.5t-20.5 24t-33 9zM115 480h84l-22 -128q15 26 32.5 50.5t40 44t50.5 31.5t62 12q31 0 55 -13.5t40.5 -36.5t25 -55t8.5 -69 q0 -57 -17 -115.5t-51.5 -105t-86 -76t-121.5 -29.5q-23 0 -49 3.5t-47 11.5l-37 -211h-88z"/>
<glyph glyph-name="q" horiz-adv-x="530" unicode="q" d="M189 60q25 0 48.5 14t46 38t43 55.5t38.5 66.5l30 173q-33 14 -79 14q-45 0 -81 -20.5t-61 -55.5t-38.5 -81t-13.5 -97q0 -22 3.5 -41.5t11.5 -34t20.5 -23t31.5 -8.5zM375 -206h-88l57 328q-15 -26 -34 -50t-41.5 -42t-48.5 -29t-54 -11q-34 0 -58.5 14t-41 38 t-24.5 55.5t-8 65.5q0 65 18.5 124t54.5 104t88.5 72t120.5 27q45 0 90.5 -10.5t83.5 -30.5z"/>
<glyph glyph-name="r" horiz-adv-x="334" unicode="r" d="M350 403q-4 1 -9 1h-9q-53 0 -94.5 -35t-71.5 -97l-48 -272h-88l85 480h86l-22 -125q23 63 60 95.5t89 32.5q8 0 17 -0.5t14 -2.5z"/>
<glyph glyph-name="s" horiz-adv-x="393" unicode="s" d="M342 136q0 -34 -14.5 -61t-39 -46t-58 -29t-70.5 -10t-77.5 8.5t-69.5 21.5l19 68q29 -14 62 -22t65 -8q19 0 36.5 3.5t30.5 12t21 21t8 30.5q0 28 -22 48.5t-57 40.5q-21 13 -41.5 27.5t-36.5 32t-26 38.5t-10 45q0 65 45.5 99t121.5 34q38 0 71.5 -9t62.5 -24l-18 -66 q-59 31 -117 31q-35 0 -56.5 -12t-21.5 -44q0 -25 19 -42.5t51 -37.5q19 -12 40.5 -26.5t39.5 -32.5t30 -40.5t12 -50.5z"/>
<glyph glyph-name="t" horiz-adv-x="379" unicode="t" d="M53 480h88l22 126h88l-22 -126h155l-13 -71h-155l-46 -261q-3 -18 -3 -30q0 -29 13 -43.5t43 -14.5q25 0 49.5 5.5t46.5 14.5l6 -64q-22 -11 -53.5 -18.5t-63.5 -7.5q-63 0 -96 32.5t-33 90.5q0 11 1 21.5t3 19.5l45 255h-88z"/>
<glyph glyph-name="u" horiz-adv-x="532" unicode="u" d="M497 480l-85 -480h-85l26 151q-14 -27 -31.5 -55.5t-40 -52t-49.5 -38.5t-59 -15q-65 0 -91.5 45.5t-26.5 122.5q0 32 6 67l45 255h88l-44 -248q-3 -17 -5 -34t-2 -34q0 -20 1.5 -38.5t7 -33t17 -23t32.5 -8.5q25 0 49.5 20t46.5 50.5t41 66.5t33 69l38 213h88z"/>
<glyph glyph-name="v" horiz-adv-x="422" unicode="v" d="M145 0q-19 137 -46 253t-64 227h87q32 -96 51.5 -193.5t33.5 -203.5q50 92 88 189t48 208h87q-7 -66 -25.5 -129.5t-44 -123.5t-57 -116.5t-65.5 -110.5h-93z"/>
<glyph glyph-name="w" horiz-adv-x="714" unicode="w" d="M467 0l-81 406q-29 -92 -70.5 -196t-97.5 -210h-91q-7 71 -15 135t-18 122.5t-21.5 113.5t-26.5 109h84q23 -93 38 -196.5t21 -193.5q22 45 42 90t38.5 92.5t36 99t35.5 108.5h97l84 -389q38 83 66 180t36 209h85q-6 -63 -19 -123t-33 -119t-46.5 -118t-57.5 -120h-86z "/>
<glyph glyph-name="x" horiz-adv-x="456" unicode="x" d="M253 228q29 -57 71.5 -111.5t98.5 -116.5h-103q-36 41 -66 83t-51 79l-125 -162h-98l182 232q-34 58 -59.5 122.5t-41.5 125.5h88q14 -53 29.5 -96t36.5 -88l137 184h97z"/>
<glyph glyph-name="y" horiz-adv-x="442" unicode="y" d="M276 27q-50 -72 -125 -136t-157 -107l-39 63q55 32 109.5 71.5t96.5 84.5q-18 127 -49.5 249.5t-73.5 227.5h87q16 -42 31 -91.5t28 -102.5t23.5 -107t18.5 -105q105 190 133 406h86q-9 -66 -26 -130t-39.5 -122.5t-49 -109.5t-54.5 -91z"/>
<glyph glyph-name="z" horiz-adv-x="433" unicode="z" d="M29 0l-12 67l295 345h-232l12 68h331l-11 -67l-295 -345h251l-11 -68h-328z"/>
<glyph glyph-name="braceleft" horiz-adv-x="405" unicode="{" d="M194 -10q-3 -17 -3 -29q0 -31 16.5 -48.5t54.5 -17.5h32l-12 -71h-34q-66 0 -106 32t-40 94q0 17 3 35l27 153q2 8 3 18t1 18q0 32 -15.5 53t-55.5 21h-22l10 64h23q48 0 72.5 26.5t32.5 75.5l24 138q9 52 25 87t39.5 56.5t54.5 31t70 9.5h48l-12 -70h-33 q-46 0 -69.5 -28t-34.5 -86l-22 -125q-11 -66 -42.5 -101t-88.5 -46q41 -12 61.5 -42t20.5 -73q0 -9 -1 -20t-3 -19z"/>
<glyph glyph-name="bar" horiz-adv-x="304" unicode="|" d="M125 -250v1000h74v-1000h-74z"/>
<glyph glyph-name="braceright" horiz-adv-x="405" unicode="}" d="M219 570q3 16 3 29q0 31 -16.5 48.5t-54.5 17.5h-32l12 71h34q66 0 106 -32t40 -94q0 -17 -3 -35l-27 -153q-2 -8 -3 -18t-1 -18q0 -32 15.5 -53t55.5 -21h22l-10 -64h-23q-48 0 -72.5 -26.5t-32.5 -75.5l-24 -138q-9 -52 -25 -87t-39.5 -56.5t-54.5 -31t-70 -9.5h-48 l12 70h33q46 0 69.5 28t34.5 86l22 125q12 69 41.5 103.5t89.5 43.5q-82 31 -82 115q0 9 1 18.5t3 19.5z"/>
<glyph glyph-name="asciitilde" horiz-adv-x="564" unicode="~" d="M525 389q-20 -63 -51 -93.5t-80 -30.5q-26 0 -54.5 13.5t-57.5 27.5q-23 11 -44.5 21.5t-41.5 10.5q-16 0 -26.5 -6t-18.5 -16.5t-14 -24t-12 -29.5l-66 28q19 66 50.5 95t86.5 29q28 0 55 -11t55 -26q26 -14 47.5 -25t41.5 -11q28 0 42 23.5t24 52.5z"/>
<glyph glyph-name="uni00A0" horiz-adv-x="210" unicode=" "/>
<glyph glyph-name="exclamdown" horiz-adv-x="280" unicode="¡" d="M226 439q0 -29 -18 -46.5t-47 -17.5q-23 0 -37 14.5t-14 35.5q0 26 17.5 45.5t48.5 19.5q23 0 36.5 -15t13.5 -36zM124 303h49l-29 -285l-35 -201h-92l35 201z"/>
<glyph glyph-name="cent" horiz-adv-x="460" unicode="¢" d="M165 -23l22 125q-62 20 -94.5 70.5t-32.5 115.5q0 49 14 96.5t41 86t66 64.5t89 34l21 121h81l-21 -121q26 -3 52.5 -11t46.5 -21l-21 -65q-28 14 -55 22t-58 8q-41 0 -72.5 -18t-52.5 -47.5t-32 -68t-11 -79.5q0 -57 27.5 -91.5t86.5 -34.5q30 0 58.5 8.5t52.5 22.5 l19 -62q-27 -17 -59.5 -26.5t-66.5 -11.5l-20 -117h-81z"/>
<glyph glyph-name="sterling" horiz-adv-x="536" unicode="£" d="M66 340h103l23 130q19 109 71.5 158.5t140.5 49.5q37 0 69.5 -7.5t57.5 -20.5l-16 -68q-23 11 -50 17.5t-54 6.5q-56 0 -87.5 -33t-45.5 -113l-21 -120h169l-11 -71h-174q-15 -63 -48.5 -118.5t-81.5 -90.5q23 12 46 18.5t55 6.5q21 0 37.5 -4t31.5 -8.5t31 -8.5t36 -4 q30 0 50.5 8t41.5 21l23 -60q-21 -16 -51 -27.5t-67 -11.5q-23 0 -42.5 4.5t-38.5 9.5t-38.5 9.5t-41.5 4.5q-41 0 -73.5 -8t-65.5 -22l-25 65q61 48 90 100.5t44 115.5h-100z"/>
<glyph glyph-name="currency" horiz-adv-x="627" unicode="¤" d="M207 333q0 -29 9 -55t26.5 -45.5t42 -31t56.5 -11.5q31 0 56 11.5t42.5 31t26.5 45.5t9 55t-9 55t-26.5 45.5t-42.5 31t-56 11.5q-32 0 -56.5 -11.5t-42 -31t-26.5 -45.5t-9 -55zM533 598l54 -51l-83 -84q23 -26 35.5 -59.5t12.5 -70.5q0 -38 -12.5 -71t-35.5 -60l83 -83 l-54 -51l-88 87q-45 -27 -104 -27t-104 27l-88 -87l-54 51l83 83q-23 27 -35.5 60t-12.5 71q0 37 12.5 70.5t35.5 59.5l-83 84l54 51l88 -88q47 28 104 28t104 -28z"/>
<glyph glyph-name="yen" horiz-adv-x="526" unicode="¥" d="M386 387h101l-11 -64h-128l-43 -73l-7 -38h158l-11 -62h-158l-26 -150h-88l26 150h-155l12 62h154l8 44l-17 67h-126l12 64h97l-71 279h91l71 -328l181 328h96z"/>
<glyph glyph-name="brokenbar" horiz-adv-x="304" unicode="¦" d="M125 -250v385h74v-385h-74zM199 365h-74v385h74v-385z"/>
<glyph glyph-name="section" horiz-adv-x="606" unicode="§" d="M299 645q-28 -13 -52.5 -31.5t-42.5 -43t-28.5 -55t-10.5 -67.5q0 -48 24 -93t63 -92q21 -26 43 -52.5t39.5 -54.5t28.5 -58t11 -63q0 -23 -8.5 -51.5t-28.5 -49.5q45 28 78.5 77.5t33.5 116.5q0 61 -29.5 110.5t-73.5 98.5q-24 27 -43.5 50.5t-33 46t-20.5 44.5t-7 47 q0 34 14.5 66t42.5 54zM420 716q30 0 61 -4t55 -14l-11 -60q-44 15 -93 15t-84 -29.5t-35 -85.5q0 -40 25.5 -74t58.5 -73q24 -29 47 -56.5t41 -57.5t28.5 -62.5t10.5 -71.5q0 -66 -27 -119.5t-72.5 -91t-106 -58t-126.5 -20.5q-32 0 -67.5 6t-64.5 16l14 60 q27 -10 55.5 -14.5t54.5 -4.5q52 0 86 24t34 82q0 41 -26.5 83.5t-65.5 87.5q-59 71 -90.5 127.5t-31.5 113.5q0 66 25.5 118t70.5 88.5t105 55.5t129 19z"/>
<glyph glyph-name="dieresis" horiz-adv-x="520" unicode="¨" d="M366 620q0 26 16 42t43 16q23 0 35 -13.5t12 -31.5q0 -24 -15.5 -41.5t-43.5 -17.5q-21 0 -34 13t-13 33zM179 620q0 26 16 42t43 16q23 0 35 -13.5t12 -31.5q0 -24 -15.5 -41.5t-43.5 -17.5q-21 0 -34 13t-13 33z"/>
<glyph glyph-name="copyright" horiz-adv-x="811" unicode="©" d="M444 529q25 0 53 -4.5t48 -13.5l-9 -53q-42 14 -84 14q-66 0 -101 -36.5t-35 -102.5t35 -102.5t101 -36.5q42 0 84 14l9 -53q-20 -9 -48 -13.5t-53 -4.5q-45 0 -81.5 15t-61.5 41t-38.5 62t-13.5 78t13.5 78t38.5 62t61.5 41t81.5 15zM116 333q0 -63 22 -119.5t62.5 -99 t97.5 -67.5t126 -25t126 25t97.5 67.5t62.5 99t22 119.5t-22 119.5t-62.5 99t-97.5 67.5t-126 25t-126 -25t-97.5 -67.5t-62.5 -99t-22 -119.5zM771 333q0 -71 -25 -133.5t-71 -109.5t-109.5 -74.5t-141.5 -27.5t-141.5 27.5t-109.5 74.5t-71 109.5t-25 133.5t25 134t71 110 t109.5 74t141.5 27t141.5 -27t109.5 -74t71 -110t25 -134z"/>
<glyph glyph-name="ordfeminine" horiz-adv-x="450" unicode="ª" d="M211 379q18 0 37 17t36 43t31.5 55.5t23.5 55.5l11 61q-11 4 -23.5 5t-24.5 1q-33 0 -58 -15t-41.5 -39t-24.5 -54.5t-8 -60.5q0 -29 9 -49t32 -20zM376 328h-69l18 109q-9 -20 -22.5 -41t-30.5 -38t-37.5 -27.5t-44.5 -10.5q-26 0 -44 10.5t-29.5 28t-17 39.5t-5.5 45 q0 47 13.5 89t39.5 74t65 51t90 19q37 0 71 -7t60 -18zM71 260h310l-11 -60h-310z"/>
<glyph glyph-name="guillemotleft" horiz-adv-x="572" unicode="«" d="M474 73l-64 -40l-135 211l203 205l51 -51l-161 -162zM243 73l-64 -40l-135 211l203 205l51 -51l-161 -162z"/>
<glyph glyph-name="logicalnot" horiz-adv-x="604" unicode="¬" d="M459 85v204h-384v68h462v-272h-78z"/>
<glyph glyph-name="registered" horiz-adv-x="556" unicode="®" d="M503 460q0 39 -13.5 73.5t-38.5 60.5t-59.5 41t-77.5 15t-78 -15t-59.5 -41t-38 -60.5t-13.5 -73.5t13.5 -73.5t38 -60.5t59.5 -41t78 -15t77.5 15t59.5 41t38.5 60.5t13.5 73.5zM92 460q0 44 16 83.5t45 69.5t70 47.5t91 17.5t91 -17.5t70 -47.5t45 -69.5t16 -83.5 t-16 -83.5t-45 -69.5t-70 -47.5t-91 -17.5t-91 17.5t-70 47.5t-45 69.5t-16 83.5zM355 511q0 15 -11.5 22t-28.5 7h-26v-63h14q24 0 38 8.5t14 25.5zM399 513q0 -23 -13.5 -39t-35.5 -24l74 -92h-55l-65 84h-15v-84h-44v217h76q32 0 55 -16.5t23 -45.5z"/>
<glyph glyph-name="macron" horiz-adv-x="500" unicode="¯" d="M187 669h270l-12 -69h-270z"/>
<glyph glyph-name="degree" horiz-adv-x="395" unicode="°" d="M311 554q0 30 -17.5 53t-53.5 23t-53.5 -23t-17.5 -53t17.5 -53t53.5 -23t53.5 23t17.5 53zM110 554q0 25 9 48t26 39.5t41 26.5t54 10t54 -10t41 -26.5t26 -39.5t9 -48q0 -26 -9 -48.5t-26 -39.5t-41 -27t-54 -10t-54 10t-41 27t-26 39.5t-9 48.5z"/>
<glyph glyph-name="plusminus" horiz-adv-x="612" unicode="±" d="M85 68h462v-68h-462v68zM355 318v-178h-78v178h-192v66h192v177h78v-177h192v-66h-192z"/>
<glyph glyph-name="twosuperior" horiz-adv-x="355" unicode="²" d="M135 794q29 16 58 23t62 7q27 0 51 -7.5t42 -22.5t28.5 -36t10.5 -48q0 -34 -14 -61.5t-34.5 -50t-43 -39t-38.5 -28.5q-17 -12 -38 -26.5t-35 -24.5h180l-10 -60h-270l-10 49q32 24 67 50.5t59 45.5q15 12 34 26.5t36.5 32t29 37.5t11.5 42q0 29 -18 44.5t-50 15.5 q-44 0 -92 -26z"/>
<glyph glyph-name="threesuperior" horiz-adv-x="352" unicode="³" d="M364 521q0 -25 -11 -45.5t-30.5 -35t-46 -22.5t-57.5 -8q-36 0 -68.5 9.5t-61.5 24.5l19 55q24 -14 52 -22t53 -8q36 0 56 15.5t20 39.5q0 32 -29.5 49t-77.5 17h-23l6 59h29q20 0 41.5 4t39.5 13t29.5 22.5t11.5 32.5q0 23 -17.5 33.5t-43.5 10.5q-45 0 -92 -23l-15 54 q52 28 119 28q52 0 88 -24t36 -70q0 -42 -30 -71t-78 -42q38 -13 59.5 -37t21.5 -59z"/>
<glyph glyph-name="acute" horiz-adv-x="404" unicode="´" d="M167 555l98 160h105l-125 -160h-78z"/>
<glyph glyph-name="mu" horiz-adv-x="541" unicode="µ" d="M506 480l-85 -480h-85l26 151q-14 -27 -31.5 -55.5t-40 -52t-49.5 -38.5t-59 -15q-40 0 -65 19.5t-39 54.5q14 -45 19 -99q2 -22 2 -43q0 -29 -4 -53l-14 -75h-87l121 686h88l-44 -248q-3 -17 -5 -34.5t-2 -33.5q0 -20 1.5 -38.5t7.5 -33t17.5 -23t31.5 -8.5 q25 0 49.5 20t46.5 50.5t41 66.5t33 69l38 213h88z"/>
<glyph glyph-name="paragraph" horiz-adv-x="570" unicode="¶" d="M480 606h-119l-75 -425q-42 1 -79.5 15.5t-65 40.5t-44 63.5t-16.5 84.5q0 62 20.5 114t58 89t90 57.5t117.5 20.5h195l-73 -416q-10 -56 -25 -108.5t-40 -102.5t-61 -97t-88 -92l-45 46q43 41 74 81t53 82.5t36 89t24 100.5z"/>
<glyph glyph-name="periodcentered" horiz-adv-x="251" unicode="·" d="M68 249q0 29 18 46.5t47 17.5q23 0 37 -14.5t14 -35.5q0 -26 -17.5 -45.5t-48.5 -19.5q-23 0 -36.5 15t-13.5 36z"/>
<glyph glyph-name="cedilla" horiz-adv-x="386" unicode="¸" d="M207 -118q0 -23 -13.5 -40t-35 -29t-50 -19t-58.5 -10l-8 50q16 3 32.5 6t29 8t20.5 12.5t8 19.5q0 9 -7.5 15.5t-18.5 11t-24.5 7t-26.5 4.5l35 82h57l-19 -49q14 -2 28 -6.5t25.5 -12.5t18.5 -20.5t7 -29.5z"/>
<glyph glyph-name="onesuperior" horiz-adv-x="271" unicode="¹" d="M159 420l56 316l-94 -28l-15 59l145 47h53l-69 -394h-76z"/>
<glyph glyph-name="ordmasculine" horiz-adv-x="446" unicode="º" d="M71 260h306l-11 -60h-306zM243 378q27 0 48 13.5t35.5 35.5t22 49t7.5 54q0 37 -20 62.5t-60 25.5q-26 0 -46 -13.5t-34 -35t-21 -48.5t-7 -54q0 -36 17 -62.5t58 -26.5zM284 676q69 0 108.5 -39.5t39.5 -101.5q0 -41 -13 -79.5t-38 -68.5t-61 -48.5t-82 -18.5 q-35 0 -62 11t-45.5 30.5t-28.5 46t-10 56.5q0 45 13.5 83.5t39 67t60.5 45t79 16.5z"/>
<glyph glyph-name="guillemotright" horiz-adv-x="572" unicode="»" d="M95 409l64 40l135 -211l-203 -205l-51 51l161 162zM326 409l64 40l135 -211l-203 -205l-51 51l161 162z"/>
<glyph glyph-name="onequarter" horiz-adv-x="753" unicode="¼" d="M138 272l56 316l-94 -28l-15 59l145 47h53l-69 -394h-76zM577 678l53 -37l-462 -653l-53 38zM615 311l-143 -155h116zM650 102l-18 -102h-72l18 102h-186l-9 47l240 245h78l-41 -238h63l-8 -54h-65z"/>
<glyph glyph-name="onehalf" horiz-adv-x="807" unicode="½" d="M515 374q29 16 58 23t62 7q27 0 51 -7.5t42 -22.5t28.5 -36t10.5 -48q0 -34 -14 -61.5t-34.5 -50t-43 -39t-38.5 -28.5q-17 -12 -38 -26.5t-35 -24.5h180l-10 -60h-270l-10 49q32 24 67 50.5t59 45.5q15 12 34 26.5t36.5 32t29 37.5t11.5 42q0 29 -18 44.5t-50 15.5 q-44 0 -92 -26zM138 272l56 316l-94 -28l-15 59l145 47h53l-69 -394h-76zM577 678l53 -37l-462 -653l-53 38z"/>
<glyph glyph-name="threequarters" horiz-adv-x="810" unicode="¾" d="M325 373q0 -25 -11 -45.5t-30.5 -35t-46 -22.5t-57.5 -8q-36 0 -68.5 9.5t-61.5 24.5l19 55q24 -14 52 -22t53 -8q36 0 56 15.5t20 39.5q0 32 -29.5 49t-77.5 17h-23l6 59h29q20 0 41.5 4t39.5 13t29.5 22.5t11.5 32.5q0 23 -17.5 33.5t-43.5 10.5q-45 0 -92 -23l-15 54 q52 28 119 28q52 0 88 -24t36 -70q0 -42 -30 -71t-78 -42q38 -13 59.5 -37t21.5 -59zM634 678l53 -37l-462 -653l-53 38zM672 311l-143 -155h116zM707 102l-18 -102h-72l18 102h-186l-9 47l240 245h78l-41 -238h63l-8 -54h-65z"/>
<glyph glyph-name="questiondown" horiz-adv-x="416" unicode="¿" d="M366 439q0 -29 -18 -46.5t-47 -17.5q-23 0 -37 14.5t-14 35.5q0 26 17.5 45.5t48.5 19.5q23 0 36.5 -15t13.5 -36zM2 -43q0 52 23.5 95.5t63 82.5t91.5 75t110 72l41 -63q-53 -33 -97 -63.5t-76 -61.5t-50 -63t-18 -69q0 -39 24.5 -62t65.5 -23q32 0 62 9.5t62 28.5 l24 -67q-32 -20 -72.5 -31.5t-84.5 -11.5q-37 0 -68 10.5t-53.5 30t-35 48t-12.5 63.5z"/>
<glyph glyph-name="Agrave" d="M360 729l-89 114h99l61 -114h-71zM205 233h247l-62 348zM465 160h-298l-85 -160h-100l372 666h92l139 -666h-91z" unicode="À"/>
<glyph glyph-name="Aacute" d="M374 729l95 114h112l-131 -114h-76zM205 233h247l-62 348zM465 160h-298l-85 -160h-100l372 666h92l139 -666h-91z" unicode="Á"/>
<glyph glyph-name="Acircumflex" d="M538 729h-79l-48 73l-71 -73h-83l112 114h90zM205 233h247l-62 348zM465 160h-298l-85 -160h-100l372 666h92l139 -666h-91z" unicode="Â"/>
<glyph glyph-name="Atilde" d="M491 739q-20 0 -41.5 8t-42.5 18t-36 16t-28 6q-21 0 -31.5 -12t-24.5 -39l-53 24q18 53 43.5 73t66.5 20q20 0 40 -6t43 -17q17 -8 36 -16t32 -8q18 0 27 11.5t21 34.5l50 -24q-20 -48 -43 -68.5t-59 -20.5zM205 233h247l-62 348zM465 160h-298l-85 -160h-100l372 666 h92l139 -666h-91z" unicode="Ã"/>
<glyph glyph-name="Adieresis" d="M449 783q0 26 16 41t42 15q21 0 33.5 -12t12.5 -32q0 -26 -16.5 -42t-42.5 -16q-21 0 -33 13t-12 33zM264 783q0 26 16 41t42 15q21 0 33.5 -12t12.5 -32q0 -26 -16.5 -42t-42.5 -16q-21 0 -33 13t-12 33zM205 233h247l-62 348zM465 160h-298l-85 -160h-100l372 666h92 l139 -666h-91z" unicode="Ä"/>
<glyph glyph-name="Aring" d="M421 761q-23 0 -37.5 -15t-14.5 -39q0 -16 9.5 -25.5t27.5 -9.5q23 0 37 16t14 39q0 16 -9.5 25t-26.5 9zM205 233h247l-62 348zM503 729q0 -28 -14.5 -50.5t-38.5 -34.5l135 -644h-91l-29 160h-298l-85 -160h-100l364 652q-22 20 -22 53q0 42 27.5 68.5t72.5 26.5 q35 0 57 -19t22 -52z" unicode="Å"/>
<glyph glyph-name="AE" horiz-adv-x="881" unicode="Æ" d="M235 233h232l19 347zM885 594h-319l-11 -218h268l-13 -72h-258l-11 -232h255l-12 -72h-329l8 161h-281l-118 -161h-104l499 666h439z"/>
<glyph glyph-name="Ccedilla" horiz-adv-x="589" unicode="Ç" d="M406 -118q0 -23 -13.5 -40t-35 -29t-50 -19t-58.5 -10l-8 50q16 3 32.5 6t29 8t20.5 12.5t8 19.5q0 9 -7.5 15.5t-18.5 11t-24.5 7t-26.5 4.5l32 76q-56 10 -99.5 36t-74 64.5t-46.5 87t-16 102.5q0 82 24 153.5t70.5 125t115.5 84.5t159 31q47 0 93 -9.5t82 -26.5 l-17 -69q-36 15 -75 23.5t-80 8.5q-68 0 -120.5 -24t-88.5 -66t-54.5 -100t-18.5 -127q0 -51 14 -92.5t42 -71.5t71 -46.5t100 -16.5q36 0 72.5 5.5t70.5 17.5l9 -68q-36 -14 -78 -21t-87 -7h-13l-14 -37q14 -2 28 -6.5t25.5 -12.5t18.5 -20.5t7 -29.5z"/>
<glyph glyph-name="Egrave" horiz-adv-x="506" unicode="È" d="M317 729l-89 114h99l61 -114h-71zM153 666h363l-13 -73h-273l-39 -217h261l-12 -73h-261l-41 -230h277l-13 -73h-367z"/>
<glyph glyph-name="Eacute" horiz-adv-x="506" unicode="É" d="M274 729l95 114h112l-131 -114h-76zM153 666h363l-13 -73h-273l-39 -217h261l-12 -73h-261l-41 -230h277l-13 -73h-367z"/>
<glyph glyph-name="Ecircumflex" horiz-adv-x="506" unicode="Ê" d="M482 729h-79l-48 73l-71 -73h-83l112 114h90zM153 666h363l-13 -73h-273l-39 -217h261l-12 -73h-261l-41 -230h277l-13 -73h-367z"/>
<glyph glyph-name="Edieresis" horiz-adv-x="506" unicode="Ë" d="M395 783q0 26 16 41t42 15q21 0 33.5 -12t12.5 -32q0 -26 -16.5 -42t-42.5 -16q-21 0 -33 13t-12 33zM210 783q0 26 16 41t42 15q21 0 33.5 -12t12.5 -32q0 -26 -16.5 -42t-42.5 -16q-21 0 -33 13t-12 33zM153 666h363l-13 -73h-273l-39 -217h261l-12 -73h-261l-41 -230 h277l-13 -73h-367z"/>
<glyph glyph-name="Igrave" horiz-adv-x="260" unicode="Ì" d="M168 729l-89 114h99l61 -114h-71zM130 0h-90l117 666h90z"/>
<glyph glyph-name="Iacute" horiz-adv-x="260" unicode="Í" d="M174 729l95 114h112l-131 -114h-76zM130 0h-90l117 666h90z"/>
<glyph glyph-name="Icircumflex" horiz-adv-x="260" unicode="Î" d="M351 729h-79l-48 73l-71 -73h-83l112 114h90zM130 0h-90l117 666h90z"/>
<glyph glyph-name="Idieresis" horiz-adv-x="260" unicode="Ï" d="M263 783q0 26 16 41t42 15q21 0 33.5 -12t12.5 -32q0 -26 -16.5 -42t-42.5 -16q-21 0 -33 13t-12 33zM78 783q0 26 16 41t42 15q21 0 33.5 -12t12.5 -32q0 -26 -16.5 -42t-42.5 -16q-21 0 -33 13t-12 33zM130 0h-90l117 666h90z"/>
<glyph glyph-name="Eth" horiz-adv-x="708" unicode="Ð" d="M272 73q78 1 138.5 24.5t101.5 65t62.5 96.5t21.5 119q0 51 -17.5 91t-49 67.5t-75.5 42t-98 14.5h-85l-40 -224h182l-13 -71h-181l-40 -225h93zM67 369h75l52 297h171q73 0 132 -20.5t101 -58t65 -90t23 -117.5q0 -83 -30.5 -152.5t-85.5 -120t-132.5 -79t-171.5 -28.5 h-189l52 298h-74z"/>
<glyph glyph-name="Ntilde" horiz-adv-x="694" unicode="Ñ" d="M517 739q-20 0 -41.5 8t-42.5 18t-36 16t-28 6q-21 0 -31.5 -12t-24.5 -39l-53 24q18 53 43.5 73t66.5 20q20 0 40 -6t43 -17q17 -8 36 -16t32 -8q18 0 27 11.5t21 34.5l50 -24q-20 -48 -43 -68.5t-59 -20.5zM482 0l-266 535l-94 -535h-87l117 666h87l267 -533l94 533h87 l-118 -666h-87z"/>
<glyph glyph-name="Ograve" horiz-adv-x="724" unicode="Ò" d="M390 729l-89 114h99l61 -114h-71zM340 61q64 0 113 27.5t83 73.5t51.5 105.5t17.5 122.5q0 46 -13.5 85t-39 68t-62 45.5t-82.5 16.5q-65 0 -115 -29t-83.5 -75.5t-51 -106t-17.5 -120.5q0 -46 12.5 -85t37 -67.5t62 -44.5t87.5 -16zM695 394q0 -80 -25.5 -153 t-72.5 -129.5t-114 -90t-150 -33.5q-65 0 -117.5 22.5t-89 61.5t-56 90.5t-19.5 108.5q0 86 25.5 160.5t72.5 129t114 86t151 31.5q65 0 117 -22t88.5 -60t56 -90t19.5 -112z"/>
<glyph glyph-name="Oacute" horiz-adv-x="724" unicode="Ó" d="M380 729l95 114h112l-131 -114h-76zM340 61q64 0 113 27.5t83 73.5t51.5 105.5t17.5 122.5q0 46 -13.5 85t-39 68t-62 45.5t-82.5 16.5q-65 0 -115 -29t-83.5 -75.5t-51 -106t-17.5 -120.5q0 -46 12.5 -85t37 -67.5t62 -44.5t87.5 -16zM695 394q0 -80 -25.5 -153 t-72.5 -129.5t-114 -90t-150 -33.5q-65 0 -117.5 22.5t-89 61.5t-56 90.5t-19.5 108.5q0 86 25.5 160.5t72.5 129t114 86t151 31.5q65 0 117 -22t88.5 -60t56 -90t19.5 -112z"/>
<glyph glyph-name="Ocircumflex" horiz-adv-x="724" unicode="Ô" d="M569 729h-79l-48 73l-71 -73h-83l112 114h90zM340 61q64 0 113 27.5t83 73.5t51.5 105.5t17.5 122.5q0 46 -13.5 85t-39 68t-62 45.5t-82.5 16.5q-65 0 -115 -29t-83.5 -75.5t-51 -106t-17.5 -120.5q0 -46 12.5 -85t37 -67.5t62 -44.5t87.5 -16zM695 394 q0 -80 -25.5 -153t-72.5 -129.5t-114 -90t-150 -33.5q-65 0 -117.5 22.5t-89 61.5t-56 90.5t-19.5 108.5q0 86 25.5 160.5t72.5 129t114 86t151 31.5q65 0 117 -22t88.5 -60t56 -90t19.5 -112z"/>
<glyph glyph-name="Otilde" horiz-adv-x="724" unicode="Õ" d="M514 739q-20 0 -41.5 8t-42.5 18t-36 16t-28 6q-21 0 -31.5 -12t-24.5 -39l-53 24q18 53 43.5 73t66.5 20q20 0 40 -6t43 -17q17 -8 36 -16t32 -8q18 0 27 11.5t21 34.5l50 -24q-20 -48 -43 -68.5t-59 -20.5zM340 61q64 0 113 27.5t83 73.5t51.5 105.5t17.5 122.5 q0 46 -13.5 85t-39 68t-62 45.5t-82.5 16.5q-65 0 -115 -29t-83.5 -75.5t-51 -106t-17.5 -120.5q0 -46 12.5 -85t37 -67.5t62 -44.5t87.5 -16zM695 394q0 -80 -25.5 -153t-72.5 -129.5t-114 -90t-150 -33.5q-65 0 -117.5 22.5t-89 61.5t-56 90.5t-19.5 108.5 q0 86 25.5 160.5t72.5 129t114 86t151 31.5q65 0 117 -22t88.5 -60t56 -90t19.5 -112z"/>
<glyph glyph-name="Odieresis" horiz-adv-x="724" unicode="Ö" d="M482 783q0 26 16 41t42 15q21 0 33.5 -12t12.5 -32q0 -26 -16.5 -42t-42.5 -16q-21 0 -33 13t-12 33zM297 783q0 26 16 41t42 15q21 0 33.5 -12t12.5 -32q0 -26 -16.5 -42t-42.5 -16q-21 0 -33 13t-12 33zM340 61q64 0 113 27.5t83 73.5t51.5 105.5t17.5 122.5 q0 46 -13.5 85t-39 68t-62 45.5t-82.5 16.5q-65 0 -115 -29t-83.5 -75.5t-51 -106t-17.5 -120.5q0 -46 12.5 -85t37 -67.5t62 -44.5t87.5 -16zM695 394q0 -80 -25.5 -153t-72.5 -129.5t-114 -90t-150 -33.5q-65 0 -117.5 22.5t-89 61.5t-56 90.5t-19.5 108.5 q0 86 25.5 160.5t72.5 129t114 86t151 31.5q65 0 117 -22t88.5 -60t56 -90t19.5 -112z"/>
<glyph glyph-name="multiply" horiz-adv-x="582" unicode="×" d="M470 534l51 -51l-160 -160l160 -160l-51 -51l-160 161l-160 -161l-51 51l160 160l-160 160l51 51l160 -161z"/>
<glyph glyph-name="Oslash" horiz-adv-x="725" unicode="Ø" d="M341 61q64 0 113 27.5t83 73.5t51.5 105.5t17.5 122.5q0 79 -38 134l-341 -434q46 -29 114 -29zM142 274q0 -44 10.5 -80.5t32.5 -64.5l344 437q-24 18 -54 28.5t-66 10.5q-65 0 -115 -29t-83.5 -75.5t-51 -106t-17.5 -120.5zM135 64q-41 39 -62 92.5t-21 114.5 q0 86 25.5 160.5t72.5 129t114 86t151 31.5q49 0 90.5 -12t74.5 -35l78 99l45 -34l-80 -102q35 -38 54 -89t19 -111q0 -80 -25.5 -153t-72.5 -129.5t-114 -90t-150 -33.5q-45 0 -84 10.5t-71 30.5l-73 -93l-44 35z"/>
<glyph glyph-name="Ugrave" horiz-adv-x="663" unicode="Ù" d="M381 729l-89 114h99l61 -114h-71zM569 666h90l-76 -433q-9 -52 -30.5 -97t-56.5 -78t-83.5 -51.5t-112.5 -18.5q-51 0 -93 15.5t-72 44t-47 67.5t-17 87q0 11 1 23t3 24l73 417h90l-73 -417q-2 -12 -3 -23.5t-1 -22.5q0 -30 8.5 -56t26.5 -45t46 -30t67 -11 q75 0 122.5 45.5t61.5 124.5z"/>
<glyph glyph-name="Uacute" horiz-adv-x="663" unicode="Ú" d="M342 729l95 114h112l-131 -114h-76zM569 666h90l-76 -433q-9 -52 -30.5 -97t-56.5 -78t-83.5 -51.5t-112.5 -18.5q-51 0 -93 15.5t-72 44t-47 67.5t-17 87q0 11 1 23t3 24l73 417h90l-73 -417q-2 -12 -3 -23.5t-1 -22.5q0 -30 8.5 -56t26.5 -45t46 -30t67 -11 q75 0 122.5 45.5t61.5 124.5z"/>
<glyph glyph-name="Ucircumflex" horiz-adv-x="663" unicode="Û" d="M556 729h-79l-48 73l-71 -73h-83l112 114h90zM569 666h90l-76 -433q-9 -52 -30.5 -97t-56.5 -78t-83.5 -51.5t-112.5 -18.5q-51 0 -93 15.5t-72 44t-47 67.5t-17 87q0 11 1 23t3 24l73 417h90l-73 -417q-2 -12 -3 -23.5t-1 -22.5q0 -30 8.5 -56t26.5 -45t46 -30t67 -11 q75 0 122.5 45.5t61.5 124.5z"/>
<glyph glyph-name="Udieresis" horiz-adv-x="663" unicode="Ü" d="M467 783q0 26 16 41t42 15q21 0 33.5 -12t12.5 -32q0 -26 -16.5 -42t-42.5 -16q-21 0 -33 13t-12 33zM282 783q0 26 16 41t42 15q21 0 33.5 -12t12.5 -32q0 -26 -16.5 -42t-42.5 -16q-21 0 -33 13t-12 33zM569 666h90l-76 -433q-9 -52 -30.5 -97t-56.5 -78t-83.5 -51.5 t-112.5 -18.5q-51 0 -93 15.5t-72 44t-47 67.5t-17 87q0 11 1 23t3 24l73 417h90l-73 -417q-2 -12 -3 -23.5t-1 -22.5q0 -30 8.5 -56t26.5 -45t46 -30t67 -11q75 0 122.5 45.5t61.5 124.5z"/>
<glyph glyph-name="Yacute" horiz-adv-x="525" unicode="Ý" d="M292 729l95 114h112l-131 -114h-76zM309 249l-44 -249h-90l46 263l-146 403h94l110 -325l217 325h102z"/>
<glyph glyph-name="Thorn" horiz-adv-x="506" unicode="Þ" d="M202 202q40 0 78 8t68 26t48.5 47.5t18.5 71.5q0 51 -34.5 80t-88.5 29h-85l-46 -262h41zM505 359q0 -62 -26.5 -105t-69.5 -71t-98.5 -40.5t-113.5 -12.5h-49l-23 -130h-90l117 666h90l-23 -131h82q46 0 83.5 -12.5t64.5 -35t41.5 -55.5t14.5 -73z"/>
<glyph glyph-name="germandbls" horiz-adv-x="577" unicode="ß" d="M119 477q13 75 39 122t59.5 74t73.5 37t81 10q30 0 59 -8t51 -24.5t35.5 -41t13.5 -56.5q0 -23 -9 -43.5t-21.5 -39t-27 -34t-25.5 -27.5q-21 -23 -41 -46.5t-20 -51.5q0 -23 14 -40.5t37 -39.5q11 -11 26 -25t28 -31.5t22 -38t9 -42.5q0 -33 -14.5 -59.5t-38.5 -44.5 t-55.5 -27.5t-65.5 -9.5t-69.5 7.5t-64.5 21.5l17 65q58 -25 114 -25q15 0 31 3t29 11t21 20.5t8 32.5q0 29 -18.5 48.5t-41.5 40.5q-30 28 -51.5 59.5t-21.5 69.5q0 23 9 44t22 39.5t27.5 34t26.5 28.5q21 23 39.5 45.5t18.5 48.5q0 32 -25 48.5t-58 16.5 q-61 0 -100.5 -43.5t-54.5 -129.5l-72 -406q-11 -59 -26.5 -111t-41.5 -91t-65.5 -61.5t-97.5 -22.5q-24 0 -49.5 4.5t-44.5 11.5l13 67q16 -5 35 -8.5t40 -3.5q40 0 65.5 17t41.5 47t25.5 70t17.5 85z"/>
<glyph glyph-name="agrave" horiz-adv-x="517" unicode="à" d="M278 555l-71 160h96l45 -160h-70zM179 61q28 0 55.5 27.5t52.5 69.5t46.5 91t37.5 92l12 67q-31 14 -74 14t-77.5 -22.5t-59 -58.5t-37.5 -82.5t-13 -94.5q0 -19 2.5 -37.5t8.5 -33t17 -23.5t29 -9zM399 0h-84l30 175q-13 -30 -31 -62.5t-41.5 -59.5t-51.5 -45t-61 -18 q-31 0 -54.5 14t-39.5 37t-24 54t-8 65q0 65 18.5 124.5t54.5 105.5t88 73t118 27q45 0 90 -10.5t76 -24.5z"/>
<glyph glyph-name="aacute" horiz-adv-x="517" unicode="á" d="M271 555l98 160h105l-125 -160h-78zM179 61q28 0 55.5 27.5t52.5 69.5t46.5 91t37.5 92l12 67q-31 14 -74 14t-77.5 -22.5t-59 -58.5t-37.5 -82.5t-13 -94.5q0 -19 2.5 -37.5t8.5 -33t17 -23.5t29 -9zM399 0h-84l30 175q-13 -30 -31 -62.5t-41.5 -59.5t-51.5 -45t-61 -18 q-31 0 -54.5 14t-39.5 37t-24 54t-8 65q0 65 18.5 124.5t54.5 105.5t88 73t118 27q45 0 90 -10.5t76 -24.5z"/>
<glyph glyph-name="acircumflex" horiz-adv-x="517" unicode="â" d="M477 555h-80l-49 110l-87 -110h-83l132 160h86zM179 61q28 0 55.5 27.5t52.5 69.5t46.5 91t37.5 92l12 67q-31 14 -74 14t-77.5 -22.5t-59 -58.5t-37.5 -82.5t-13 -94.5q0 -19 2.5 -37.5t8.5 -33t17 -23.5t29 -9zM399 0h-84l30 175q-13 -30 -31 -62.5t-41.5 -59.5 t-51.5 -45t-61 -18q-31 0 -54.5 14t-39.5 37t-24 54t-8 65q0 65 18.5 124.5t54.5 105.5t88 73t118 27q45 0 90 -10.5t76 -24.5z"/>
<glyph glyph-name="atilde" horiz-adv-x="517" unicode="ã" d="M405 571q-18 0 -37 8t-39 19q-17 10 -28.5 15.5t-24.5 5.5q-20 0 -31 -13.5t-27 -39.5l-50 28q23 51 47.5 72.5t62.5 21.5q20 0 38 -8t35 -17t29.5 -16t25.5 -7q19 0 29.5 14t21.5 34l51 -28q-23 -45 -45.5 -67t-57.5 -22zM179 61q28 0 55.5 27.5t52.5 69.5t46.5 91 t37.5 92l12 67q-31 14 -74 14t-77.5 -22.5t-59 -58.5t-37.5 -82.5t-13 -94.5q0 -19 2.5 -37.5t8.5 -33t17 -23.5t29 -9zM399 0h-84l30 175q-13 -30 -31 -62.5t-41.5 -59.5t-51.5 -45t-61 -18q-31 0 -54.5 14t-39.5 37t-24 54t-8 65q0 65 18.5 124.5t54.5 105.5t88 73t118 27 q45 0 90 -10.5t76 -24.5z"/>
<glyph glyph-name="adieresis" horiz-adv-x="517" unicode="ä" d="M384 620q0 26 16 42t43 16q23 0 35 -13.5t12 -31.5q0 -24 -15.5 -41.5t-43.5 -17.5q-21 0 -34 13t-13 33zM197 620q0 26 16 42t43 16q23 0 35 -13.5t12 -31.5q0 -24 -15.5 -41.5t-43.5 -17.5q-21 0 -34 13t-13 33zM179 61q28 0 55.5 27.5t52.5 69.5t46.5 91t37.5 92 l12 67q-31 14 -74 14t-77.5 -22.5t-59 -58.5t-37.5 -82.5t-13 -94.5q0 -19 2.5 -37.5t8.5 -33t17 -23.5t29 -9zM399 0h-84l30 175q-13 -30 -31 -62.5t-41.5 -59.5t-51.5 -45t-61 -18q-31 0 -54.5 14t-39.5 37t-24 54t-8 65q0 65 18.5 124.5t54.5 105.5t88 73t118 27 q45 0 90 -10.5t76 -24.5z"/>
<glyph glyph-name="aring" horiz-adv-x="517" unicode="å" d="M352 683q-23 0 -37.5 -15t-14.5 -39q0 -16 9.5 -25.5t27.5 -9.5q23 0 37 16t14 39q0 16 -9.5 25t-26.5 9zM434 651q0 -40 -28.5 -68t-72.5 -28q-37 0 -57.5 21t-20.5 51q0 42 27.5 68.5t72.5 26.5q35 0 57 -19t22 -52zM179 61q28 0 55.5 27.5t52.5 69.5t46.5 91t37.5 92 l12 67q-31 14 -74 14t-77.5 -22.5t-59 -58.5t-37.5 -82.5t-13 -94.5q0 -19 2.5 -37.5t8.5 -33t17 -23.5t29 -9zM399 0h-84l30 175q-13 -30 -31 -62.5t-41.5 -59.5t-51.5 -45t-61 -18q-31 0 -54.5 14t-39.5 37t-24 54t-8 65q0 65 18.5 124.5t54.5 105.5t88 73t118 27 q45 0 90 -10.5t76 -24.5z"/>
<glyph glyph-name="ae" horiz-adv-x="715" unicode="æ" d="M559 424q-29 0 -55 -11.5t-46 -32t-34 -48t-20 -59.5q34 3 72 7t70 14t53 28t21 47q0 24 -16 39.5t-45 15.5zM317 121q-5 21 -6.5 38t-1.5 29q0 11 1 21q-20 -2 -47.5 -2.5t-57.5 -3.5q-20 -2 -38.5 -7.5t-32.5 -16t-22.5 -26.5t-8.5 -38q0 -28 17 -44t51 -16 q42 0 79.5 18.5t66.5 47.5zM644 33q-30 -19 -71 -31t-83 -12q-53 0 -90.5 21t-57.5 55q-34 -32 -82 -54t-107 -22q-33 0 -58 10t-42 26.5t-26 38.5t-9 46q0 43 15.5 71.5t40 46t56 25.5t63.5 11q30 3 64.5 3.5t60.5 1.5q2 11 4.5 25.5t2.5 25.5q0 53 -30 76t-78 23 q-27 0 -60 -8t-62 -22l-17 65q35 19 74 27t78 8q57 0 96 -23t57 -70q37 51 83 72t102 21q28 0 52 -8t42 -23t28 -36t10 -46q0 -52 -28 -83.5t-72 -49t-98.5 -24.5t-108.5 -8q-3 -18 -3 -34q0 -24 5 -46t17.5 -39t33 -27t52.5 -10q35 0 67.5 11t59.5 28z"/>
<glyph glyph-name="ccedilla" horiz-adv-x="424" unicode="ç" d="M289 -118q0 -23 -13.5 -40t-35 -29t-50 -19t-58.5 -10l-8 50q16 3 32.5 6t29 8t20.5 12.5t8 19.5q0 9 -7.5 15.5t-18.5 11t-24.5 7t-26.5 4.5l33 78q-69 16 -103 69t-34 123q0 60 17.5 115t51 96.5t82 66t109.5 24.5q40 0 73.5 -9t56.5 -23l-21 -66q-23 12 -50 19.5 t-57 7.5q-42 0 -74.5 -18t-54.5 -49.5t-33.5 -73t-11.5 -89.5q0 -26 5.5 -49.5t18 -41t34 -28t54.5 -10.5q32 0 61 8.5t54 21.5l18 -64q-30 -17 -66 -26.5t-75 -9.5l-15 -39q14 -2 28 -6.5t25.5 -12.5t18.5 -20.5t7 -29.5z"/>
<glyph glyph-name="egrave" horiz-adv-x="445" unicode="è" d="M246 555l-71 160h96l45 -160h-70zM284 424q-30 0 -55 -13.5t-44.5 -35t-32.5 -49t-19 -54.5q35 1 72.5 6.5t68.5 17t51 30t20 46.5q0 23 -16.5 37.5t-44.5 14.5zM295 490q59 0 96 -31.5t37 -81.5t-29.5 -82t-74.5 -51t-99 -28t-104 -12q-3 -18 -3 -37q0 -47 22 -78 t78 -31q35 0 70 10.5t65 27.5l17 -62q-35 -20 -75.5 -32t-85.5 -12q-44 0 -77 14t-54.5 39t-32.5 58.5t-11 72.5q0 60 18 117t52 101.5t82.5 71t108.5 26.5z"/>
<glyph glyph-name="eacute" horiz-adv-x="445" unicode="é" d="M252 555l98 160h105l-125 -160h-78zM284 424q-30 0 -55 -13.5t-44.5 -35t-32.5 -49t-19 -54.5q35 1 72.5 6.5t68.5 17t51 30t20 46.5q0 23 -16.5 37.5t-44.5 14.5zM295 490q59 0 96 -31.5t37 -81.5t-29.5 -82t-74.5 -51t-99 -28t-104 -12q-3 -18 -3 -37q0 -47 22 -78 t78 -31q35 0 70 10.5t65 27.5l17 -62q-35 -20 -75.5 -32t-85.5 -12q-44 0 -77 14t-54.5 39t-32.5 58.5t-11 72.5q0 60 18 117t52 101.5t82.5 71t108.5 26.5z"/>
<glyph glyph-name="ecircumflex" horiz-adv-x="445" unicode="ê" d="M446 555h-80l-49 110l-87 -110h-83l132 160h86zM284 424q-30 0 -55 -13.5t-44.5 -35t-32.5 -49t-19 -54.5q35 1 72.5 6.5t68.5 17t51 30t20 46.5q0 23 -16.5 37.5t-44.5 14.5zM295 490q59 0 96 -31.5t37 -81.5t-29.5 -82t-74.5 -51t-99 -28t-104 -12q-3 -18 -3 -37 q0 -47 22 -78t78 -31q35 0 70 10.5t65 27.5l17 -62q-35 -20 -75.5 -32t-85.5 -12q-44 0 -77 14t-54.5 39t-32.5 58.5t-11 72.5q0 60 18 117t52 101.5t82.5 71t108.5 26.5z"/>
<glyph glyph-name="edieresis" horiz-adv-x="445" unicode="ë" d="M349 620q0 26 16 42t43 16q23 0 35 -13.5t12 -31.5q0 -24 -15.5 -41.5t-43.5 -17.5q-21 0 -34 13t-13 33zM162 620q0 26 16 42t43 16q23 0 35 -13.5t12 -31.5q0 -24 -15.5 -41.5t-43.5 -17.5q-21 0 -34 13t-13 33zM284 424q-30 0 -55 -13.5t-44.5 -35t-32.5 -49 t-19 -54.5q35 1 72.5 6.5t68.5 17t51 30t20 46.5q0 23 -16.5 37.5t-44.5 14.5zM295 490q59 0 96 -31.5t37 -81.5t-29.5 -82t-74.5 -51t-99 -28t-104 -12q-3 -18 -3 -37q0 -47 22 -78t78 -31q35 0 70 10.5t65 27.5l17 -62q-35 -20 -75.5 -32t-85.5 -12q-44 0 -77 14t-54.5 39 t-32.5 58.5t-11 72.5q0 60 18 117t52 101.5t82.5 71t108.5 26.5z"/>
<glyph glyph-name="igrave" horiz-adv-x="238" unicode="ì" d="M126 555l-71 160h96l45 -160h-70zM30 0l85 480h88l-85 -480h-88z"/>
<glyph glyph-name="iacute" horiz-adv-x="238" unicode="í" d="M129 555l98 160h105l-125 -160h-78zM30 0l85 480h88l-85 -480h-88z"/>
<glyph glyph-name="icircumflex" horiz-adv-x="238" unicode="î" d="M318 555h-80l-49 110l-87 -110h-83l132 160h86zM30 0l85 480h88l-85 -480h-88z"/>
<glyph glyph-name="idieresis" horiz-adv-x="238" unicode="ï" d="M222 620q0 26 16 42t43 16q23 0 35 -13.5t12 -31.5q0 -24 -15.5 -41.5t-43.5 -17.5q-21 0 -34 13t-13 33zM35 620q0 26 16 42t43 16q23 0 35 -13.5t12 -31.5q0 -24 -15.5 -41.5t-43.5 -17.5q-21 0 -34 13t-13 33zM30 0l85 480h88l-85 -480h-88z"/>
<glyph glyph-name="eth" horiz-adv-x="530" unicode="ð" d="M118 184q0 -26 5.5 -48.5t17.5 -39.5t32.5 -27t50.5 -10q43 0 75.5 22.5t55.5 58t37 78t21 81.5l6 36q-26 23 -60 37t-76 14q-40 0 -71 -15t-52 -41.5t-31.5 -63.5t-10.5 -82zM482 676l-81 -58q49 -44 78 -104t29 -136q0 -15 -1.5 -33.5t-5.5 -37.5q-11 -64 -34.5 -121.5 t-59.5 -101t-84 -69t-108 -25.5q-44 0 -78 15.5t-57 42.5t-35 62.5t-12 75.5q0 54 16 103t47 86t76 58.5t103 21.5q90 0 152 -52q-8 55 -33 97.5t-55 66.5l-96 -67l-27 41l79 54q-29 18 -62.5 30t-71.5 20l18 71q50 -8 96 -24.5t85 -42.5l94 67z"/>
<glyph glyph-name="ntilde" horiz-adv-x="542" unicode="ñ" d="M396 571q-18 0 -37 8t-39 19q-17 10 -28.5 15.5t-24.5 5.5q-20 0 -31 -13.5t-27 -39.5l-50 28q23 51 47.5 72.5t62.5 21.5q20 0 38 -8t35 -17t29.5 -16t25.5 -7q19 0 29.5 14t21.5 34l51 -28q-23 -45 -45.5 -67t-57.5 -22zM30 0l85 480h85l-20 -116q14 26 31 49t38 40 t47 27t58 10q31 0 54.5 -12.5t39.5 -35t24 -53t8 -67.5q0 -15 -1.5 -32.5t-4.5 -34.5l-45 -255h-88l44 249q6 34 6 67q0 44 -14.5 73.5t-50.5 29.5q-24 0 -46.5 -13t-43 -35t-38.5 -51t-34 -60l-46 -260h-88z"/>
<glyph glyph-name="ograve" horiz-adv-x="518" unicode="ò" d="M255 555l-71 160h96l45 -160h-70zM225 58q40 0 72 20.5t53.5 53.5t33 74.5t11.5 82.5q0 27 -6.5 51.5t-19.5 42.5t-33.5 28.5t-48.5 10.5q-37 0 -67.5 -19.5t-52 -52t-33.5 -75t-12 -89.5q0 -59 25.5 -93.5t77.5 -34.5zM483 294q0 -54 -18 -108.5t-51.5 -98t-82.5 -70.5 t-111 -27q-45 0 -79.5 14.5t-58.5 40.5t-36 61.5t-12 77.5q0 59 17.5 114.5t50.5 98t81.5 68t110.5 25.5q45 0 80 -15.5t59.5 -42.5t37 -62.5t12.5 -75.5z"/>
<glyph glyph-name="oacute" horiz-adv-x="518" unicode="ó" d="M267 555l98 160h105l-125 -160h-78zM225 58q40 0 72 20.5t53.5 53.5t33 74.5t11.5 82.5q0 27 -6.5 51.5t-19.5 42.5t-33.5 28.5t-48.5 10.5q-37 0 -67.5 -19.5t-52 -52t-33.5 -75t-12 -89.5q0 -59 25.5 -93.5t77.5 -34.5zM483 294q0 -54 -18 -108.5t-51.5 -98 t-82.5 -70.5t-111 -27q-45 0 -79.5 14.5t-58.5 40.5t-36 61.5t-12 77.5q0 59 17.5 114.5t50.5 98t81.5 68t110.5 25.5q45 0 80 -15.5t59.5 -42.5t37 -62.5t12.5 -75.5z"/>
<glyph glyph-name="ocircumflex" horiz-adv-x="518" unicode="ô" d="M470 555h-80l-49 110l-87 -110h-83l132 160h86zM225 58q40 0 72 20.5t53.5 53.5t33 74.5t11.5 82.5q0 27 -6.5 51.5t-19.5 42.5t-33.5 28.5t-48.5 10.5q-37 0 -67.5 -19.5t-52 -52t-33.5 -75t-12 -89.5q0 -59 25.5 -93.5t77.5 -34.5zM483 294q0 -54 -18 -108.5t-51.5 -98 t-82.5 -70.5t-111 -27q-45 0 -79.5 14.5t-58.5 40.5t-36 61.5t-12 77.5q0 59 17.5 114.5t50.5 98t81.5 68t110.5 25.5q45 0 80 -15.5t59.5 -42.5t37 -62.5t12.5 -75.5z"/>
<glyph glyph-name="otilde" horiz-adv-x="518" unicode="õ" d="M385 571q-18 0 -37 8t-39 19q-17 10 -28.5 15.5t-24.5 5.5q-20 0 -31 -13.5t-27 -39.5l-50 28q23 51 47.5 72.5t62.5 21.5q20 0 38 -8t35 -17t29.5 -16t25.5 -7q19 0 29.5 14t21.5 34l51 -28q-23 -45 -45.5 -67t-57.5 -22zM225 58q40 0 72 20.5t53.5 53.5t33 74.5 t11.5 82.5q0 27 -6.5 51.5t-19.5 42.5t-33.5 28.5t-48.5 10.5q-37 0 -67.5 -19.5t-52 -52t-33.5 -75t-12 -89.5q0 -59 25.5 -93.5t77.5 -34.5zM483 294q0 -54 -18 -108.5t-51.5 -98t-82.5 -70.5t-111 -27q-45 0 -79.5 14.5t-58.5 40.5t-36 61.5t-12 77.5q0 59 17.5 114.5 t50.5 98t81.5 68t110.5 25.5q45 0 80 -15.5t59.5 -42.5t37 -62.5t12.5 -75.5z"/>
<glyph glyph-name="odieresis" horiz-adv-x="518" unicode="ö" d="M372 620q0 26 16 42t43 16q23 0 35 -13.5t12 -31.5q0 -24 -15.5 -41.5t-43.5 -17.5q-21 0 -34 13t-13 33zM185 620q0 26 16 42t43 16q23 0 35 -13.5t12 -31.5q0 -24 -15.5 -41.5t-43.5 -17.5q-21 0 -34 13t-13 33zM225 58q40 0 72 20.5t53.5 53.5t33 74.5t11.5 82.5 q0 27 -6.5 51.5t-19.5 42.5t-33.5 28.5t-48.5 10.5q-37 0 -67.5 -19.5t-52 -52t-33.5 -75t-12 -89.5q0 -59 25.5 -93.5t77.5 -34.5zM483 294q0 -54 -18 -108.5t-51.5 -98t-82.5 -70.5t-111 -27q-45 0 -79.5 14.5t-58.5 40.5t-36 61.5t-12 77.5q0 59 17.5 114.5t50.5 98 t81.5 68t110.5 25.5q45 0 80 -15.5t59.5 -42.5t37 -62.5t12.5 -75.5z"/>
<glyph glyph-name="divide" horiz-adv-x="612" unicode="÷" d="M262 136q0 23 15.5 40t41.5 17t41.5 -17t15.5 -40t-15.5 -40t-41.5 -17t-41.5 17t-15.5 40zM262 510q0 23 15.5 40t41.5 17t41.5 -17t15.5 -40t-15.5 -40t-41.5 -17t-41.5 17t-15.5 40zM88 289v68h462v-68h-462z"/>
<glyph glyph-name="oslash" horiz-adv-x="526" unicode="ø" d="M229 58q40 0 72 20.5t53.5 53.5t33 74.5t11.5 82.5q0 38 -12 68l-220 -280q25 -19 62 -19zM126 186q0 -42 12 -70l221 282q-27 24 -68 24q-37 0 -67.5 -19.5t-52 -52t-33.5 -75t-12 -89.5zM84 47q-46 52 -46 137q0 59 17.5 114.5t50.5 98t81.5 68t110.5 25.5 q32 0 59.5 -8.5t49.5 -22.5l65 83l37 -29l-68 -86q46 -54 46 -133q0 -54 -18 -108.5t-51.5 -98t-82.5 -70.5t-111 -27q-60 0 -104 27l-61 -79l-37 29z"/>
<glyph glyph-name="ugrave" horiz-adv-x="532" unicode="ù" d="M285 555l-71 160h96l45 -160h-70zM497 480l-85 -480h-85l26 151q-14 -27 -31.5 -55.5t-40 -52t-49.5 -38.5t-59 -15q-65 0 -91.5 45.5t-26.5 122.5q0 32 6 67l45 255h88l-44 -248q-3 -17 -5 -34t-2 -34q0 -20 1.5 -38.5t7 -33t17 -23t32.5 -8.5q25 0 49.5 20t46.5 50.5 t41 66.5t33 69l38 213h88z"/>
<glyph glyph-name="uacute" horiz-adv-x="532" unicode="ú" d="M259 555l98 160h105l-125 -160h-78zM497 480l-85 -480h-85l26 151q-14 -27 -31.5 -55.5t-40 -52t-49.5 -38.5t-59 -15q-65 0 -91.5 45.5t-26.5 122.5q0 32 6 67l45 255h88l-44 -248q-3 -17 -5 -34t-2 -34q0 -20 1.5 -38.5t7 -33t17 -23t32.5 -8.5q25 0 49.5 20t46.5 50.5 t41 66.5t33 69l38 213h88z"/>
<glyph glyph-name="ucircumflex" horiz-adv-x="532" unicode="û" d="M466 555h-80l-49 110l-87 -110h-83l132 160h86zM497 480l-85 -480h-85l26 151q-14 -27 -31.5 -55.5t-40 -52t-49.5 -38.5t-59 -15q-65 0 -91.5 45.5t-26.5 122.5q0 32 6 67l45 255h88l-44 -248q-3 -17 -5 -34t-2 -34q0 -20 1.5 -38.5t7 -33t17 -23t32.5 -8.5 q25 0 49.5 20t46.5 50.5t41 66.5t33 69l38 213h88z"/>
<glyph glyph-name="udieresis" horiz-adv-x="532" unicode="ü" d="M369 620q0 26 16 42t43 16q23 0 35 -13.5t12 -31.5q0 -24 -15.5 -41.5t-43.5 -17.5q-21 0 -34 13t-13 33zM182 620q0 26 16 42t43 16q23 0 35 -13.5t12 -31.5q0 -24 -15.5 -41.5t-43.5 -17.5q-21 0 -34 13t-13 33zM497 480l-85 -480h-85l26 151q-14 -27 -31.5 -55.5 t-40 -52t-49.5 -38.5t-59 -15q-65 0 -91.5 45.5t-26.5 122.5q0 32 6 67l45 255h88l-44 -248q-3 -17 -5 -34t-2 -34q0 -20 1.5 -38.5t7 -33t17 -23t32.5 -8.5q25 0 49.5 20t46.5 50.5t41 66.5t33 69l38 213h88z"/>
<glyph glyph-name="yacute" horiz-adv-x="442" unicode="ý" d="M191 555l98 160h105l-125 -160h-78zM276 27q-50 -72 -125 -136t-157 -107l-39 63q55 32 109.5 71.5t96.5 84.5q-18 127 -49.5 249.5t-73.5 227.5h87q16 -42 31 -91.5t28 -102.5t23.5 -107t18.5 -105q105 190 133 406h86q-9 -66 -26 -130t-39.5 -122.5t-49 -109.5 t-54.5 -91z"/>
<glyph glyph-name="thorn" horiz-adv-x="524" unicode="þ" d="M336 421q-27 0 -51.5 -17t-47 -44.5t-42.5 -61.5t-37 -67l-28 -159q35 -13 80 -13q46 0 82 21t60.5 56t37.5 81t13 96q0 21 -3 40.5t-10.5 34.5t-20.5 24t-33 9zM155 706h88l-62 -349q15 26 33 50t39.5 42.5t48.5 29.5t60 11q31 0 55 -13.5t40.5 -36.5t25 -55t8.5 -69 q0 -57 -17 -115.5t-51.5 -105t-86 -76t-121.5 -29.5q-23 0 -49 3.5t-47 11.5l-37 -211h-88z"/>
<glyph glyph-name="OE" horiz-adv-x="946" unicode="Œ" d="M367 61q31 0 63.5 3t57.5 8l93 523q-31 5 -70 7.5t-71 2.5q-72 0 -127.5 -23t-94 -66t-58 -103t-19.5 -133q0 -105 57 -162t169 -57zM476 0q-35 -5 -72 -8.5t-60 -3.5q-72 0 -127 23.5t-92 63t-55.5 92t-18.5 110.5q0 94 27.5 168.5t78 126.5t121 79t156.5 27 q41 0 78 -2.5t82 -9.5h363l-13 -73h-273l-39 -217h261l-12 -73h-261l-41 -230h277l-13 -73h-367z"/>
<glyph glyph-name="oe" horiz-adv-x="796" unicode="œ" d="M635 425q-30 0 -55 -13t-44.5 -34.5t-32.5 -49t-19 -55.5q36 1 73.5 6t68.5 16.5t50.5 29.5t19.5 47q0 23 -16 38t-45 15zM224 58q37 0 68.5 20.5t54.5 53.5t35.5 74.5t12.5 82.5q0 27 -6.5 51.5t-19.5 42.5t-33.5 28.5t-48.5 10.5q-37 0 -67.5 -19.5t-52 -52t-33.5 -75 t-12 -89.5q0 -27 6 -50t18.5 -40.5t31.5 -27.5t46 -10zM646 490q60 0 96.5 -31.5t36.5 -81.5t-29.5 -81.5t-74.5 -51t-99 -28t-104 -11.5q-3 -18 -3 -38q0 -51 22 -80t78 -29q35 0 70 10.5t65 27.5l17 -62q-35 -20 -75.5 -32t-85.5 -12q-33 0 -59.5 8.5t-46.5 23t-32.5 32.5 t-18.5 37q-31 -42 -79.5 -71.5t-106.5 -29.5q-44 0 -78.5 16t-57.5 43t-35 62t-12 73q0 59 17.5 114.5t50.5 98t81.5 68t110.5 25.5q56 0 97.5 -27t61.5 -78q33 49 78.5 77t114.5 28z"/>
<glyph glyph-name="Scaron" horiz-adv-x="475" unicode="Š" d="M177 843h79l50 -73l68 73h84l-112 -114h-90zM425 177q0 -41 -16.5 -76t-46.5 -60t-71 -39t-90 -14q-45 0 -94.5 9.5t-91.5 28.5l19 72q38 -17 78 -27t89 -10q57 0 95.5 27t38.5 81q0 43 -31.5 77.5t-80.5 71.5q-29 22 -53.5 43t-42 43t-27.5 47t-10 54q0 42 15 74.5 t42 54t64 33t80 11.5q47 0 95.5 -10t80.5 -29l-19 -73q-35 17 -75.5 28t-77.5 11q-50 0 -82.5 -21t-32.5 -71q0 -35 25 -61t70 -62q25 -20 51.5 -41.5t48.5 -47.5t36 -56.5t14 -67.5z"/>
<glyph glyph-name="scaron" horiz-adv-x="393" unicode="š" d="M110 715h80l49 -110l87 110h83l-132 -160h-86zM342 136q0 -34 -14.5 -61t-39 -46t-58 -29t-70.5 -10t-77.5 8.5t-69.5 21.5l19 68q29 -14 62 -22t65 -8q19 0 36.5 3.5t30.5 12t21 21t8 30.5q0 28 -22 48.5t-57 40.5q-21 13 -41.5 27.5t-36.5 32t-26 38.5t-10 45 q0 65 45.5 99t121.5 34q38 0 71.5 -9t62.5 -24l-18 -66q-59 31 -117 31q-35 0 -56.5 -12t-21.5 -44q0 -25 19 -42.5t51 -37.5q19 -12 40.5 -26.5t39.5 -32.5t30 -40.5t12 -50.5z"/>
<glyph glyph-name="Ydieresis" horiz-adv-x="525" unicode="Ÿ" d="M394 783q0 26 16 41t42 15q21 0 33.5 -12t12.5 -32q0 -26 -16.5 -42t-42.5 -16q-21 0 -33 13t-12 33zM209 783q0 26 16 41t42 15q21 0 33.5 -12t12.5 -32q0 -26 -16.5 -42t-42.5 -16q-21 0 -33 13t-12 33zM309 249l-44 -249h-90l46 263l-146 403h94l110 -325l217 325h102 z"/>
<glyph glyph-name="circumflex" horiz-adv-x="529" unicode="ˆ" d="M466 555h-80l-49 110l-87 -110h-83l132 160h86z"/>
<glyph glyph-name="tilde" horiz-adv-x="518" unicode="˜" d="M391 571q-18 0 -37 8t-39 19q-17 10 -28.5 15.5t-24.5 5.5q-20 0 -31 -13.5t-27 -39.5l-50 28q23 51 47.5 72.5t62.5 21.5q20 0 38 -8t35 -17t29.5 -16t25.5 -7q19 0 29.5 14t21.5 34l51 -28q-23 -45 -45.5 -67t-57.5 -22z"/>
<glyph glyph-name="u0391" d="M205 233h247l-62 348zM465 160h-298l-85 -160h-100l372 666h92l139 -666h-91z" unicode="Α"/>
<glyph glyph-name="u0392" horiz-adv-x="555" unicode="Β" d="M258 377q36 0 69.5 9t59 26t40.5 41.5t15 56.5q0 43 -32 64.5t-85 21.5h-97l-39 -219h69zM414 198q0 28 -11 48.5t-31 34t-47.5 20t-59.5 6.5h-88l-42 -237h106q31 0 62 7t56 22t40 39.5t15 59.5zM35 0l118 666h194q42 0 76.5 -10t59 -28.5t38 -44.5t13.5 -59 q0 -37 -15 -67t-39 -52.5t-54.5 -38t-62.5 -22.5q29 -6 54.5 -18t44 -30.5t29.5 -43.5t11 -56q0 -53 -24.5 -90.5t-63.5 -61t-87 -34t-96 -10.5h-196z"/>
<glyph glyph-name="u0393" horiz-adv-x="475" unicode="Γ" d="M125 0h-90l118 666h350l-13 -73h-260z"/>
<glyph glyph-name="u0394" d="M116 73h360l-91 503zM-18 0l372 666h92l139 -666h-603z" unicode="Δ"/>
<glyph glyph-name="u0395" horiz-adv-x="506" unicode="Ε" d="M153 666h363l-13 -73h-273l-39 -217h261l-12 -73h-261l-41 -230h277l-13 -73h-367z"/>
<glyph glyph-name="u0396" horiz-adv-x="525" unicode="Ζ" d="M139 666h416l-13 -73l-419 -520h337l-11 -73h-414l-12 73l419 520h-316z"/>
<glyph glyph-name="u0397" horiz-adv-x="664" unicode="Η" d="M449 0l53 300h-324l-53 -300h-90l117 666h90l-51 -290h324l51 290h90l-117 -666h-90z"/>
<glyph glyph-name="u0398" horiz-adv-x="724" unicode="Θ" d="M233 303l13 73h265l-13 -73h-265zM340 61q64 0 113 27.5t83 73.5t51.5 105.5t17.5 122.5q0 46 -13.5 85t-39 68t-62 45.5t-82.5 16.5q-65 0 -115 -29t-83.5 -75.5t-51 -106t-17.5 -120.5q0 -46 12.5 -85t37 -67.5t62 -44.5t87.5 -16zM695 394q0 -80 -25.5 -153 t-72.5 -129.5t-114 -90t-150 -33.5q-65 0 -117.5 22.5t-89 61.5t-56 90.5t-19.5 108.5q0 86 25.5 160.5t72.5 129t114 86t151 31.5q65 0 117 -22t88.5 -60t56 -90t19.5 -112z"/>
<glyph glyph-name="u0399" horiz-adv-x="260" unicode="Ι" d="M130 0h-90l117 666h90z"/>
<glyph glyph-name="u039A" horiz-adv-x="574" unicode="Κ" d="M35 0l117 666h90l-56 -321l310 321h112l-325 -335l248 -331h-110l-238 329l-58 -329h-90z"/>
<glyph glyph-name="u039B" horiz-adv-x="648" unicode="Λ" d="M386 581l-301 -581h-97l366 666h92l134 -666h-91z"/>
<glyph glyph-name="u039C" horiz-adv-x="815" unicode="Μ" d="M434 123h-93l-122 390l-114 -513h-85l149 666h84l145 -468l301 468h91l-84 -666h-85l61 501z"/>
<glyph glyph-name="u039D" horiz-adv-x="694" unicode="Ν" d="M482 0l-266 535l-94 -535h-87l117 666h87l267 -533l94 533h87l-118 -666h-87z"/>
<glyph glyph-name="u039E" horiz-adv-x="525" unicode="Ξ" d="M150 377h266l-13 -74h-266zM118 666h432l-13 -73h-432zM4 73h455l-13 -73h-455z"/>
<glyph glyph-name="u039F" horiz-adv-x="724" unicode="Ο" d="M340 61q64 0 113 27.5t83 73.5t51.5 105.5t17.5 122.5q0 46 -13.5 85t-39 68t-62 45.5t-82.5 16.5q-65 0 -115 -29t-83.5 -75.5t-51 -106t-17.5 -120.5q0 -46 12.5 -85t37 -67.5t62 -44.5t87.5 -16zM695 394q0 -80 -25.5 -153t-72.5 -129.5t-114 -90t-150 -33.5 q-65 0 -117.5 22.5t-89 61.5t-56 90.5t-19.5 108.5q0 86 25.5 160.5t72.5 129t114 86t151 31.5q65 0 117 -22t88.5 -60t56 -90t19.5 -112z"/>
<glyph glyph-name="u03A0" horiz-adv-x="652" unicode="Π" d="M125 0h-90l117 666h492l-117 -666h-90l104 593h-312z"/>
<glyph glyph-name="u03A1" horiz-adv-x="503" unicode="Ρ" d="M225 333q40 0 78 8t68 26t48.5 47.5t18.5 71.5q0 51 -34.5 80t-88.5 29h-85l-46 -262h41zM528 490q0 -62 -26.5 -105t-69.5 -71t-98.5 -40.5t-113.5 -12.5h-49l-46 -261h-90l117 666h172q46 0 83.5 -13t64.5 -36t41.5 -55.5t14.5 -71.5z"/>
<glyph glyph-name="u03A3" horiz-adv-x="520" unicode="Σ" d="M103 73h351l-13 -73h-449l10 70l252 279l-145 250l12 67h430l-13 -73h-332l143 -252z"/>
<glyph glyph-name="u03A4" horiz-adv-x="490" unicode="Τ" d="M541 666l-12 -72h-179l-105 -594h-90l105 594h-179l12 72h448z"/>
<glyph glyph-name="u03A5" horiz-adv-x="525" unicode="Υ" d="M309 249l-44 -249h-90l46 263l-146 403h94l110 -325l217 325h102z"/>
<glyph glyph-name="u03A6" horiz-adv-x="789" unicode="Φ" d="M660 381q0 77 -49.5 120t-129.5 52l-78 -441q57 3 104 23.5t81 56t53 84t19 105.5zM135 292q0 -84 49 -127.5t129 -52.5l78 441q-57 -5 -104 -24.5t-81 -53.5t-52.5 -80t-18.5 -103zM383 -7h-90l8 47q-119 10 -187 71.5t-68 171.5q0 77 29 137.5t78.5 104t114.5 69 t136 32.5l10 46h90l-10 -46q119 -10 187 -71t68 -164q0 -82 -29 -146.5t-78.5 -109.5t-114.5 -69t-136 -26z"/>
<glyph glyph-name="u03A7" horiz-adv-x="612" unicode="Χ" d="M318 270l-223 -270h-106l290 347l-158 319h93l122 -253l208 253h106l-275 -328l170 -338h-95z"/>
<glyph glyph-name="u03A8" horiz-adv-x="698" unicode="Ψ" d="M355 0h-90l36 206q-52 1 -94.5 11.5t-73 32.5t-47.5 56.5t-17 82.5q0 29 6 65l37 212h91l-35 -197q-6 -38 -6 -66q0 -65 39.5 -91.5t112.5 -31.5l67 386h91l-68 -386q45 3 80.5 13.5t61.5 32.5t43 57t26 86l35 197h91l-37 -212q-12 -66 -39.5 -112.5t-68 -76t-93 -44 t-112.5 -15.5z"/>
<glyph glyph-name="u03B1" horiz-adv-x="552" unicode="α" d="M277 421q-34 0 -62 -17.5t-48.5 -48t-32 -73t-11.5 -92.5q0 -68 25 -99t58 -31q30 0 57.5 18t51 46t41.5 62t29 65q-2 31 -7.5 61.5t-17.5 54.5t-32.5 39t-50.5 15zM527 479q-5 -19 -12.5 -45t-16 -55.5t-16.5 -62t-15 -64.5q-7 -35 -8.5 -63t-1.5 -60q0 -24 3.5 -38 t9.5 -21.5t14.5 -10.5t17.5 -3l-23 -63q-5 -2 -14 -3t-17 -1q-30 0 -51 24.5t-21 78.5v33q-13 -24 -31.5 -48.5t-43 -43.5t-55 -31t-68.5 -12q-29 0 -55 10.5t-45.5 33t-31 56.5t-11.5 81q0 67 18 125.5t50.5 101.5t78 67.5t101.5 24.5q22 0 43.5 -7t40 -21t32.5 -36.5 t22 -53.5q6 28 14 59t14 48h78z"/>
<glyph glyph-name="u03B2" horiz-adv-x="510" unicode="β" d="M132 83q21 -14 53 -19.5t59 -5.5q35 0 61 11.5t43 31t25.5 45.5t8.5 54q0 54 -28.5 84t-88.5 30h-42l11 64q36 0 67 9t54 27.5t36.5 46.5t13.5 66t-22.5 60.5t-64.5 22.5q-29 0 -49 -9.5t-33.5 -26.5t-21.5 -40t-12 -50zM-6 -206l112 646q22 128 78.5 183t152.5 55 q72 0 112.5 -38t40.5 -102q0 -71 -36.5 -113t-94.5 -64l-1 -5q48 -10 80.5 -46.5t32.5 -100.5q0 -44 -15.5 -83.5t-45.5 -69.5t-73.5 -48t-100.5 -18q-38 0 -65 7.5t-54 17.5l-35 -221h-88z"/>
<glyph glyph-name="u03B3" horiz-adv-x="467" unicode="γ" d="M79 -205l37 208l-87 477h93l66 -392q22 25 50.5 66.5t55.5 93t49 111t31 121.5h83q-5 -60 -28.5 -124.5t-58.5 -127t-78.5 -121t-88.5 -106.5l-36 -207z"/>
<glyph glyph-name="u03B4" horiz-adv-x="522" unicode="δ" d="M284 394q-87 -32 -125 -86.5t-38 -121.5q0 -61 33 -94.5t88 -33.5q22 0 48 8.5t48.5 28.5t37 52.5t14.5 79.5q0 32 -7.5 55.5t-21 43t-33 35.5t-44.5 33zM477 571q-38 21 -72 31t-79 10q-35 0 -56 -13.5t-21 -43.5q0 -18 6.5 -31t21.5 -26.5t39 -30.5t59 -43 q56 -42 79.5 -88t23.5 -94q0 -51 -17 -97t-49.5 -80.5t-79 -54.5t-106.5 -20q-42 0 -77.5 13.5t-61 38t-40 58.5t-14.5 75q0 91 46 153t153 107q-65 45 -65 103q0 37 15 64t39 43.5t55.5 24.5t64.5 8q54 0 94 -14t63 -27z"/>
<glyph glyph-name="u03B5" horiz-adv-x="440" unicode="ε" d="M162 258q-41 9 -59 35t-18 55q0 39 18 66.5t46 44t62 24t67 7.5q41 0 77 -7.5t68 -24.5l-21 -66q-20 10 -52.5 18.5t-73.5 8.5q-18 0 -36.5 -3t-34.5 -11.5t-26 -22.5t-10 -36q0 -31 28.5 -48t77.5 -17h77l-13 -70h-92q-18 0 -40.5 -2t-42 -10.5t-33 -24t-13.5 -42.5 q0 -37 30.5 -54t84.5 -17q38 0 70.5 9t50.5 20l18 -64q-32 -20 -76 -28.5t-92 -8.5q-33 0 -65 7.5t-56.5 23t-39.5 41t-15 61.5q0 53 37.5 87t95.5 45z"/>
<glyph glyph-name="u03B6" horiz-adv-x="413" unicode="ζ" d="M171 7q-70 18 -103.5 54.5t-33.5 105.5q0 75 32.5 140t80 119.5t102 97.5t99.5 75h-223l12 68h336l-12 -66q-28 -19 -64 -43.5t-73.5 -55t-73.5 -65.5t-64 -74t-45 -81t-17 -86q0 -25 3.5 -45t14 -35t29.5 -26.5t49 -20.5q42 -12 72.5 -22.5t50.5 -24t30 -30.5t10 -41 q0 -33 -13.5 -59.5t-35.5 -47t-49.5 -35t-54.5 -22.5l-42 47q46 16 79.5 40.5t33.5 57.5q0 17 -6.5 27.5t-22 18.5t-40.5 14.5t-61 14.5z"/>
<glyph glyph-name="u03B7" horiz-adv-x="542" unicode="η" d="M394 -206h-90l78 438q5 23 7 45t2 39q0 45 -14.5 74t-50.5 29q-24 0 -45.5 -12.5t-41.5 -34t-38.5 -50.5t-36.5 -62l-46 -260h-88l85 480h85l-20 -116q14 26 31 49t38 40t47 27t58 10q31 0 54.5 -12.5t39.5 -35t24 -53t8 -67.5q0 -15 -2 -38t-7 -49z"/>
<glyph glyph-name="u03B8" horiz-adv-x="551" unicode="θ" d="M445 438q0 33 -5 64t-17 55t-31.5 38.5t-48.5 14.5q-36 0 -65.5 -20.5t-52 -53.5t-38.5 -75.5t-26 -86.5h279q2 12 3.5 32.5t1.5 31.5zM248 58q39 0 69 22.5t52.5 57.5t37 79t21.5 87h-279q-2 -20 -3 -39.5t-1 -47.5q0 -69 25 -114t78 -45zM531 439q0 -42 -7 -92 t-22.5 -99.5t-38.5 -96t-55.5 -82.5t-74.5 -57.5t-94 -21.5q-50 0 -85 19.5t-56.5 53t-31 77t-9.5 91.5t7.5 100t23 101.5t39.5 94t57 78.5t75 53.5t95 19.5q48 0 81.5 -17t55 -48.5t31 -75.5t9.5 -98z"/>
<glyph glyph-name="u03B9" horiz-adv-x="275" unicode="ι" d="M145 151q-4 -20 -5 -32t-1 -17q0 -17 10 -27.5t33 -10.5t46 6l-8 -67q-36 -11 -75 -11q-52 0 -75 21.5t-23 64.5q0 10 2 24t5 33l61 345h88z"/>
<glyph glyph-name="u03BA" horiz-adv-x="468" unicode="κ" d="M30 0l85 482h88l-41 -232l216 230h102l-235 -236q35 -60 82 -122t113 -122h-113q-19 19 -42 48t-46 61.5t-44 66t-35 62.5l-42 -238h-88z"/>
<glyph glyph-name="u03BB" horiz-adv-x="472" unicode="λ" d="M269 370l-201 -370h-95l271 472q-8 43 -19 69.5t-27 41.5t-36.5 21t-46.5 8l15 66q39 0 70 -9t55 -30t41 -57t28 -90l98 -492h-88z"/>
<glyph glyph-name="u03BC" horiz-adv-x="541" unicode="μ" d="M506 480l-85 -480h-85l26 151q-14 -27 -31.5 -55.5t-40 -52t-49.5 -38.5t-59 -15q-40 0 -65 19.5t-39 54.5q14 -45 19 -99q2 -22 2 -43q0 -29 -4 -53l-14 -75h-87l121 686h88l-44 -248q-3 -17 -5 -34.5t-2 -33.5q0 -20 1.5 -38.5t7.5 -33t17.5 -23t31.5 -8.5 q25 0 49.5 20t46.5 50.5t41 66.5t33 69l38 213h88z"/>
<glyph glyph-name="u03BD" horiz-adv-x="451" unicode="ν" d="M108 0q-5 56 -9 117t-10.5 123.5t-18 123t-29.5 116.5h93q13 -47 21.5 -101.5t13.5 -109.5t7.5 -104.5t2.5 -85.5q25 30 55.5 73t57 95t45.5 111.5t21 121.5h87q-7 -76 -32.5 -145.5t-61 -130.5t-75.5 -112.5t-75 -91.5h-93z"/>
<glyph glyph-name="u03BE" horiz-adv-x="421" unicode="ξ" d="M343 607q-67 0 -99.5 -29t-32.5 -85q0 -49 37 -73t91 -24h48l-12 -70h-48q-44 0 -81.5 -8t-65 -24.5t-43 -42t-15.5 -62.5q0 -46 24 -72t73 -44q38 -14 68 -26.5t50.5 -27.5t31.5 -33.5t11 -45.5q0 -52 -42.5 -92.5t-111.5 -60.5l-42 47q15 5 34.5 12.5t37 19t29 26 t11.5 32.5q0 17 -10 28.5t-28 20.5t-44.5 18t-59.5 21q-24 9 -45.5 23t-38.5 33.5t-27 44t-10 52.5q0 42 10 74.5t32 56.5t57 42t85 32v4q-42 15 -67.5 46.5t-25.5 82.5q0 40 15.5 72.5t44 55.5t69.5 35.5t91 12.5q35 0 67.5 -6t67.5 -20l-26 -69q-49 23 -110 23z"/>
<glyph glyph-name="u03BF" horiz-adv-x="518" unicode="ο" d="M225 58q40 0 72 20.5t53.5 53.5t33 74.5t11.5 82.5q0 27 -6.5 51.5t-19.5 42.5t-33.5 28.5t-48.5 10.5q-37 0 -67.5 -19.5t-52 -52t-33.5 -75t-12 -89.5q0 -59 25.5 -93.5t77.5 -34.5zM483 294q0 -54 -18 -108.5t-51.5 -98t-82.5 -70.5t-111 -27q-45 0 -79.5 14.5 t-58.5 40.5t-36 61.5t-12 77.5q0 59 17.5 114.5t50.5 98t81.5 68t110.5 25.5q45 0 80 -15.5t59.5 -42.5t37 -62.5t12.5 -75.5z"/>
<glyph glyph-name="u03C0" horiz-adv-x="665" unicode="π" d="M450 412h-167q-10 -67 -23 -130t-27 -117t-27 -96.5t-23 -68.5h-89q15 33 32 85.5t32 111t26 116t14 99.5h-17q-36 0 -60.5 -9t-50.5 -37l-25 57q15 17 30 28t33.5 17.5t41 9t52.5 2.5h440l-13 -68h-92q-17 -62 -27.5 -110t-17.5 -84t-9.5 -60t-2.5 -39q0 -30 12 -42.5 t35 -12.5t46 6l-8 -67q-17 -5 -35 -8t-38 -3q-52 0 -75.5 24.5t-23.5 70.5q0 28 5 65.5t13.5 80.5t18.5 88.5t20 90.5z"/>
<glyph glyph-name="u03C1" horiz-adv-x="524" unicode="ρ" d="M301 421q-62 0 -92.5 -37.5t-44.5 -115.5l-34 -196q33 -13 80 -13q52 0 89 18.5t60 51.5t33.5 77t10.5 95q0 54 -24 87t-78 33zM83 288q3 17 13.5 50.5t35.5 67.5t67.5 59t110.5 25q51 0 85.5 -15.5t55.5 -41.5t30.5 -59t9.5 -68q0 -54 -17 -110t-51.5 -101.5t-86 -75 t-121.5 -29.5q-23 0 -49 3.5t-47 11.5l-37 -211h-88z"/>
<glyph glyph-name="u03C2" horiz-adv-x="453" unicode="ς" d="M224 -10q-53 5 -89 21t-59 42t-33 60t-10 75q0 60 17.5 115t51 96.5t81.5 66t110 24.5q40 0 73.5 -9t56.5 -23l-21 -66q-23 12 -50 19.5t-57 7.5q-42 0 -74.5 -18t-54.5 -49.5t-33.5 -73t-11.5 -89.5q0 -52 25 -86t87 -43q85 -13 126 -35.5t41 -73.5q0 -33 -13.5 -59.5 t-35.5 -47t-49.5 -35t-54.5 -22.5l-42 47q46 16 79.5 40.5t33.5 57.5q0 28 -19.5 40.5t-74.5 17.5z"/>
<glyph glyph-name="u03C3" horiz-adv-x="570" unicode="σ" d="M231 58q39 0 69.5 22t51.5 55.5t32 73.5t11 76q0 21 -3.5 44t-14.5 42t-31 31t-53 12q-35 0 -66.5 -15t-54.5 -43t-36.5 -68t-13.5 -90q0 -62 25 -101t84 -39zM426 412q24 -19 40.5 -50t16.5 -79q0 -49 -17.5 -101t-50.5 -94.5t-81 -70t-109 -27.5q-41 0 -75.5 12 t-60.5 37t-40.5 62t-14.5 88q0 59 17.5 112t52 92.5t86 63t119.5 23.5h255l-15 -68h-123z"/>
<glyph glyph-name="u03C4" horiz-adv-x="462" unicode="τ" d="M214 412h-39q-36 0 -60.5 -9t-50.5 -37l-25 57q15 17 30 28t33.5 17.5t41 9t52.5 2.5h281l-13 -68h-163l-50 -288q-1 -6 -1.5 -11t-0.5 -10q0 -20 9.5 -29.5t32.5 -9.5t46 6l-8 -67q-17 -5 -35 -8t-38 -3q-52 0 -74.5 21.5t-22.5 64.5q0 22 4 42z"/>
<glyph glyph-name="u03C5" horiz-adv-x="515" unicode="υ" d="M456 480q5 -18 9.5 -45t4.5 -64q0 -39 -6 -82.5t-19 -86t-33.5 -81t-49.5 -67.5t-67.5 -46.5t-86.5 -17.5q-78 0 -119 34t-41 105q0 26 6 56l52 295h87l-42 -240q-5 -29 -10 -55t-5 -42q0 -42 15 -64t57 -22q35 0 62 15.5t47 40.5t33 57t21 65.5t11.5 65.5t3.5 57 q0 52 -3.5 77t-9.5 45h83z"/>
<glyph glyph-name="u03C6" horiz-adv-x="668" unicode="φ" d="M340 56q51 1 90 24.5t65 59t39 78.5t13 85q0 119 -85 119q-29 0 -46.5 -23t-25.5 -65zM35 219q0 30 6 64t20 68.5t37.5 67.5t59.5 61h98q-33 -26 -58 -57.5t-41.5 -64.5t-25 -67t-8.5 -65q0 -29 7 -57.5t22.5 -52t40.5 -39.5t61 -20l40 230q11 63 30 102.5t43.5 62 t52.5 30.5t57 8q45 0 75 -16t47.5 -40.5t24.5 -54t7 -56.5q0 -67 -20 -127t-58 -105.5t-94.5 -72.5t-129.5 -28l-34 -196h-88l35 198q-38 3 -75.5 17.5t-66.5 42.5t-47 69.5t-18 97.5z"/>
<glyph glyph-name="u03C7" horiz-adv-x="473" unicode="χ" d="M152 480l83 -254l148 254h95l-215 -336l122 -349h-90l-87 272l-169 -272h-95l234 355l-116 330h90z"/>
<glyph glyph-name="u03C8" horiz-adv-x="721" unicode="ψ" d="M694 371q0 -82 -20 -151t-60 -119.5t-100 -78.5t-140 -28l-36 -200h-87l36 200q-41 3 -79 12t-67.5 29t-47.5 54.5t-18 87.5q0 28 6 64l41 239h91l-35 -201q-4 -22 -8.5 -49t-4.5 -52q0 -35 12 -57t31 -34.5t43 -18.5t48 -7l97 550h87l-97 -550q49 0 89.5 23t69.5 63.5 t45.5 94.5t16.5 116q0 38 -3.5 70t-9.5 52h86q5 -18 9.5 -45t4.5 -64z"/>
<glyph glyph-name="u03D1" horiz-adv-x="592" unicode="ϑ" d="M318 610q-41 0 -71 -27.5t-30 -79.5q0 -35 15 -59t42.5 -39t67 -22.5t87.5 -8.5q3 20 4 38t1 35q0 35 -6.5 65t-20.5 51.5t-36 34t-53 12.5zM68 330q20 -4 37 -12t29 -24t19.5 -41t8.5 -62q2 -69 22.5 -100.5t66.5 -31.5q15 0 37 6.5t46 31t46.5 73t37.5 131.5 q-134 4 -208.5 50.5t-74.5 136.5q0 48 15.5 83.5t42 59.5t62 35.5t74.5 11.5q62 0 100 -21t58.5 -55t27 -76t6.5 -85q0 -16 -1 -33.5t-3 -33.5q32 0 48 -9.5t28 -23.5l-35 -56q-8 7 -19.5 12.5t-32.5 6.5q-37 -165 -99 -239.5t-161 -74.5q-58 0 -90.5 19.5t-48.5 49.5 t-20 65t-4 65t-11.5 50.5t-40.5 30.5z"/>
<glyph glyph-name="u03D2" horiz-adv-x="581" unicode="ϒ" d="M305 354q16 48 46.5 103t72.5 102t93.5 78.5t108.5 31.5v-75q-27 0 -58 -17.5t-62.5 -47t-61.5 -69t-55 -84t-43 -91.5t-26 -91l-34 -194h-90l33 189q6 37 6 77q0 67 -13 127t-36 104.5t-54 70.5t-66 26l25 75q54 0 93.5 -30.5t65 -77t38 -100.5t12.5 -101v-6h5z"/>
<glyph glyph-name="u03D6" horiz-adv-x="705" unicode="ϖ" d="M390 211q-4 -21 -5.5 -35t-1.5 -33q0 -47 19.5 -64t46.5 -17q35 0 60.5 20t42 50.5t24.5 66.5t8 67q0 45 -9.5 80t-24.5 61h-325q-23 -18 -42 -44t-32.5 -57.5t-21 -67t-7.5 -71.5q0 -55 21.5 -80t49.5 -25q17 0 33 7t30 23t25.5 42.5t18.5 65.5l29 163h88zM54 407l13 73 h632l-13 -73h-57q14 -17 27.5 -57t13.5 -91q0 -32 -11 -78.5t-37 -89t-69 -72.5t-106 -30q-57 0 -85.5 26.5t-33.5 77.5h-4q-26 -54 -68.5 -79t-87.5 -25q-27 0 -51.5 10t-42.5 30t-29 51.5t-11 73.5q0 30 5 64t16.5 67t29.5 64.5t45 57.5h-76z"/>
<glyph glyph-name="u0424" horiz-adv-x="789" unicode="Ф" d="M660 381q0 77 -49.5 120t-129.5 52l-78 -441q57 3 104 23.5t81 56t53 84t19 105.5zM135 292q0 -84 49 -127.5t129 -52.5l78 441q-57 -5 -104 -24.5t-81 -53.5t-52.5 -80t-18.5 -103zM383 -7h-90l8 47q-119 10 -187 71.5t-68 171.5q0 77 29 137.5t78.5 104t114.5 69 t136 32.5l10 46h90l-10 -46q119 -10 187 -71t68 -164q0 -82 -29 -146.5t-78.5 -109.5t-114.5 -69t-136 -26z"/>
<glyph glyph-name="u043A" horiz-adv-x="468" unicode="к" d="M30 0l85 482h88l-41 -232l216 230h102l-235 -236q35 -60 82 -122t113 -122h-113q-19 19 -42 48t-46 61.5t-44 66t-35 62.5l-42 -238h-88z"/>
<glyph glyph-name="endash" horiz-adv-x="519" unicode="–" d="M71 277l12 71h390l-12 -71h-390z"/>
<glyph glyph-name="emdash" horiz-adv-x="767" unicode="—" d="M48 222l12 71h659l-12 -71h-659z"/>
<glyph glyph-name="quoteleft" horiz-adv-x="240" unicode="‘" d="M264 670q-38 -50 -59 -101t-30 -115l-84 8q12 79 42 136t81 108z"/>
<glyph glyph-name="quotesinglbase" horiz-adv-x="239" unicode="‚" d="M-32 -109q38 50 59 101t30 115l84 -8q-12 -79 -42 -136t-81 -108z"/>
<glyph glyph-name="quotedblleft" horiz-adv-x="430" unicode="“" d="M264 670q-38 -50 -59 -101t-30 -115l-84 8q12 79 42 136t81 108zM464 670q-38 -50 -59 -101t-30 -115l-84 8q12 79 42 136t81 108z"/>
<glyph glyph-name="quotedblright" horiz-adv-x="430" unicode="”" d="M290 490q38 50 59 101t30 115l84 -8q-12 -79 -42 -136t-81 -108zM90 490q38 50 59 101t30 115l84 -8q-12 -79 -42 -136t-81 -108z"/>
<glyph glyph-name="dagger" horiz-adv-x="450" unicode="†" d="M174 116l33 289l39 107l-89 -18h-54l13 74h54l82 -18v108l9 48h88l-8 -48l-39 -108l89 18h54l-13 -74h-54l-83 18l1 -107l-69 -289h-53z"/>
<glyph glyph-name="daggerdbl" horiz-adv-x="456" unicode="‡" d="M210 405l38 107l-89 -18h-54l13 74h54l82 -18l1 108l8 48h88l-8 -48l-39 -108l89 18h54l-13 -74h-54l-83 18l1 -107l-18 -104l-38 -107l89 18h54l-13 -74h-54l-82 18v-108l-9 -48h-88l8 48l39 108l-89 -18h-54l13 74h54l83 -18l-1 107z"/>
<glyph glyph-name="ellipsis" horiz-adv-x="753" unicode="…" d="M534 44q0 29 18 46.5t47 17.5q23 0 37 -14.5t14 -35.5q0 -26 -17.5 -45.5t-48.5 -19.5q-23 0 -36.5 15t-13.5 36zM283 44q0 29 18 46.5t47 17.5q23 0 37 -14.5t14 -35.5q0 -26 -17.5 -45.5t-48.5 -19.5q-23 0 -36.5 15t-13.5 36zM32 44q0 29 18 46.5t47 17.5 q23 0 37 -14.5t14 -35.5q0 -26 -17.5 -45.5t-48.5 -19.5q-23 0 -36.5 15t-13.5 36z"/>
<glyph glyph-name="perthousand" horiz-adv-x="1271" unicode="‰" d="M1028 47q28 0 50 16.5t37 42t22.5 56t7.5 57.5q0 42 -19 70.5t-58 28.5q-29 0 -50.5 -16t-36 -41.5t-22 -56t-7.5 -58.5q0 -41 17.5 -70t58.5 -29zM1217 222q0 -39 -13 -80.5t-37.5 -75.5t-61 -56t-84.5 -22q-34 0 -60.5 13t-44.5 35t-27 50.5t-9 59.5q0 43 13.5 84.5 t38.5 74t61.5 52.5t82.5 20q33 0 59.5 -12t44.5 -32.5t27.5 -49t9.5 -61.5zM228 348q28 0 50 16.5t37 42t22.5 56t7.5 57.5q0 42 -19 70.5t-58 28.5q-29 0 -50.5 -16t-36 -41.5t-22 -56t-7.5 -58.5q0 -41 17.5 -70t58.5 -29zM417 523q0 -39 -13 -80.5t-37.5 -75.5t-61 -56 t-84.5 -22q-34 0 -60.5 13t-44.5 35t-27 50.5t-9 59.5q0 43 13.5 84.5t38.5 74t61.5 52.5t82.5 20q33 0 59.5 -12t44.5 -32.5t27.5 -49t9.5 -61.5zM644 47q28 0 50 16.5t37 42t22.5 56t7.5 57.5q0 42 -19 70.5t-58 28.5q-29 0 -50.5 -16t-36 -41.5t-22 -56t-7.5 -58.5 q0 -41 17.5 -70t58.5 -29zM833 222q0 -39 -13 -80.5t-37.5 -75.5t-61 -56t-84.5 -22q-34 0 -60.5 13t-44.5 35t-27 50.5t-9 59.5q0 43 13.5 84.5t38.5 74t61.5 52.5t82.5 20q33 0 59.5 -12t44.5 -32.5t27.5 -49t9.5 -61.5zM639 678l57 -38l-427 -652l-56 38z"/>
<glyph glyph-name="guilsinglleft" horiz-adv-x="341" unicode="‹" d="M243 73l-64 -40l-135 211l203 205l51 -51l-161 -162z"/>
<glyph glyph-name="guilsinglright" horiz-adv-x="341" unicode="›" d="M95 409l64 40l135 -211l-203 -205l-51 51l161 162z"/>
<glyph glyph-name="fraction" horiz-adv-x="213" unicode="⁄" d="M322 678l54 -38l-462 -652l-54 39z"/>
<glyph glyph-name="Euro" horiz-adv-x="565" unicode="€" d="M35 277h88q2 27 5.5 55t10.5 57h-84l10 60h90q15 46 39.5 88t59.5 73t81.5 49.5t106.5 18.5q36 0 70.5 -6.5t62.5 -20.5l-17 -66q-57 24 -114 24q-77 0 -126.5 -45.5t-75.5 -114.5h258l-10 -60h-266q-7 -27 -10 -55t-5 -57h262l-11 -59h-252q0 -34 6.5 -63.5t23.5 -51 t44.5 -34t69.5 -12.5q30 0 59.5 5.5t55.5 15.5l9 -64q-26 -12 -63 -19t-74 -7q-57 0 -98 19.5t-68 51.5t-39 72t-12 80v7h-97z"/>
<glyph glyph-name="trademark" horiz-adv-x="715" unicode="™" d="M440 573l-15 -220h-54l23 313h58l91 -206l91 206h58l23 -313h-54l-15 220l-73 -161h-60zM326 666v-46h-90v-267h-56v267h-90v46h236z"/>
<glyph glyph-name="partialdiff" horiz-adv-x="555" unicode="∂" d="M283 363q-40 0 -70 -15t-49.5 -40.5t-29.5 -58.5t-10 -70q0 -25 5 -47.5t17 -39t31 -26t47 -9.5q38 0 70 18.5t57.5 50.5t44.5 75.5t33 94.5q-29 32 -68 49.5t-78 17.5zM279 434q51 0 93 -17.5t71 -47.5q3 17 4 34.5t1 34.5q0 42 -8 79.5t-25.5 66t-45 45.5t-67.5 17 q-35 0 -67 -12.5t-61 -30.5l-27 63q40 26 80 38t86 12q54 0 95 -21.5t68.5 -59t41.5 -87.5t14 -107q0 -23 -2 -47.5t-6 -49.5q-11 -64 -36 -127.5t-64 -114.5t-91.5 -82.5t-118.5 -31.5q-42 0 -74.5 15.5t-54.5 42t-33.5 60.5t-11.5 72q0 52 16 98.5t47 81.5t75 55.5 t101 20.5z"/>
<glyph glyph-name="product" horiz-adv-x="841" unicode="∏" d="M188 -206h-88l142 801h-128l13 71h731l-12 -71h-128l-140 -801h-89l141 801h-300z"/>
<glyph glyph-name="summation" horiz-adv-x="569" unicode="∑" d="M80 -135h368l-13 -71h-446l-11 72l311 363l-182 366l12 71h470l-12 -71h-376l185 -374z"/>
<glyph glyph-name="minus" horiz-adv-x="550" unicode="−" d="M77 289v68h428v-68h-428z"/>
<glyph glyph-name="radical" horiz-adv-x="743" unicode="√" d="M56 351l202 58l110 -436l348 809h81l-385 -882h-98l-113 418l-126 -37z"/>
<glyph glyph-name="infinity" horiz-adv-x="910" unicode="∞" d="M427 323q-30 41 -71.5 70t-92.5 29q-49 0 -78 -26t-29 -73t29 -73t78 -26q51 0 92.5 29t71.5 70zM513 323q30 -41 71.5 -70t92.5 -29q49 0 78 26t29 73t-29 73t-78 26q-51 0 -92.5 -29t-71.5 -70zM470 269q-39 -47 -94 -79.5t-121 -32.5q-40 0 -73 12t-57 34t-37 52.5 t-13 67.5t13 67.5t37 52.5t57 34t73 12q66 0 121 -32.5t94 -79.5q39 47 94 79.5t121 32.5q40 0 73 -12t57 -34t37 -52.5t13 -67.5t-13 -67.5t-37 -52.5t-57 -34t-73 -12q-66 0 -121 32.5t-94 79.5z"/>
<glyph glyph-name="approxequal" horiz-adv-x="609" unicode="≈" d="M428 167q-29 0 -56 10t-55 24t-46.5 21.5t-40.5 7.5q-27 0 -49 -11.5t-48 -34.5l-38 49q32 31 63.5 49t75.5 18q29 0 53.5 -8.5t53.5 -24.5q24 -13 45 -21.5t44 -8.5q26 0 46 11.5t43 29.5l35 -51q-28 -26 -59.5 -43t-66.5 -17zM428 346q-29 0 -56 10t-55 24t-46.5 21.5 t-40.5 7.5q-27 0 -49 -11.5t-48 -34.5l-38 49q32 31 63.5 49t75.5 18q29 0 53.5 -8.5t53.5 -24.5q24 -13 45 -21.5t44 -8.5q26 0 46 11.5t43 29.5l35 -51q-28 -26 -59.5 -43t-66.5 -17z"/>
<glyph glyph-name="notequal" horiz-adv-x="572" unicode="≠" d="M80 463h271l72 125l54 -32l-54 -93h109v-68h-148l-83 -143h231v-68h-270l-72 -125l-54 32l53 93h-109v68h149l82 143h-231v68z"/>
<glyph glyph-name="lessequal" horiz-adv-x="597" unicode="≤" d="M519 571l23 -66l-372 -143l372 -143l-23 -66l-439 176v66zM80 68h462v-68h-462v68z"/>
<glyph glyph-name="greaterequal" horiz-adv-x="597" unicode="≥" d="M542 395v-66l-439 -176l-23 66l372 143l-372 143l23 66zM542 0h-462v68h462v-68z"/>
<glyph glyph-name="lozenge" horiz-adv-x="576" unicode="◊" d="M256 73l202 261l-108 259l-204 -264zM549 325l-258 -325h-86l-152 339l262 327h88z"/>
</font>
</defs>
</svg>
